{
.appVersion = "1141";
DisplayStrings = (

glyphs = (
{
color = 7;
glyphname = .notdef;
lastChange = "2018-03-17 11:42:23 +0000";
layers = (
{
background = {
paths = (
{
closed = 1;
nodes = (
"187 710 LINE",
"61 0 LINE",
"615 0 LINE",
"741 710 LINE"
);
},
{
closed = 1;
nodes = (
"543 48 LINE",
"151 48 LINE",
"395 314 LINE"
);
},
{
closed = 1;
nodes = (
"370 353 LINE",
"130 89 LINE",
"224 619 LINE"
);
},
{
closed = 1;
nodes = (
"578 89 LINE",
"430 356 LINE",
"672 619 LINE"
);
},
{
closed = 1;
nodes = (
"406 396 LINE",
"259 662 LINE",
"651 662 LINE"
);
}
);
};
layerId = "CC363ACD-D5A5-4E19-A940-9AF36D109D9E";
paths = (
{
closed = 1;
nodes = (
"200 710 LINE",
"74 0 LINE",
"628 0 LINE",
"754 710 LINE"
);
},
{
closed = 1;
nodes = (
"558 48 LINE",
"166 48 LINE",
"411 315 LINE"
);
},
{
closed = 1;
nodes = (
"384 356 LINE",
"143 91 LINE",
"237 622 LINE"
);
},
{
closed = 1;
nodes = (
"591 86 LINE",
"444 352 LINE",
"685 616 LINE"
);
},
{
closed = 1;
nodes = (
"419 392 LINE",
"270 662 LINE",
"662 662 LINE"
);
}
);
width = 795;
},
{
background = {
paths = (
{
closed = 1;
nodes = (
"70 710 LINE",
"70 0 LINE",
"634 0 LINE",
"634 710 LINE"
);
},
{
closed = 1;
nodes = (
"553 48 LINE",
"151 48 LINE",
"353 314 LINE"
);
},
{
closed = 1;
nodes = (
"321 353 LINE",
"123 89 LINE",
"123 619 LINE"
);
},
{
closed = 1;
nodes = (
"581 89 LINE",
"381 356 LINE",
"581 619 LINE"
);
},
{
closed = 1;
nodes = (
"350 396 LINE",
"151 662 LINE",
"553 662 LINE"
);
}
);
};
layerId = "C1DA716A-5F29-4CD0-A38F-CCADF5849A80";
paths = (
{
closed = 1;
nodes = (
"149 710 LINE",
"23 0 LINE",
"577 0 LINE",
"703 710 LINE"
);
},
{
closed = 1;
nodes = (
"507 48 LINE",
"115 48 LINE",
"360 315 LINE"
);
},
{
closed = 1;
nodes = (
"333 356 LINE",
"92 91 LINE",
"186 622 LINE"
);
},
{
closed = 1;
nodes = (
"540 86 LINE",
"393 352 LINE",
"634 616 LINE"
);
},
{
closed = 1;
nodes = (
"368 392 LINE",
"219 662 LINE",
"611 662 LINE"
);
}
);
width = 695;
},
{
layerId = "6641C2CA-B9F9-47EE-AEEC-6BEE387D8CB9";
paths = (
{
closed = 1;
nodes = (
"185 710 LINE",
"59 0 LINE",
"613 0 LINE",
"739 710 LINE"
);
},
{
closed = 1;
nodes = (
"543 48 LINE",
"151 48 LINE",
"396 315 LINE"
);
},
{
closed = 1;
nodes = (
"369 356 LINE",
"128 91 LINE",
"222 622 LINE"
);
},
{
closed = 1;
nodes = (
"576 86 LINE",
"429 352 LINE",
"670 616 LINE"
);
},
{
closed = 1;
nodes = (
"404 392 LINE",
"255 662 LINE",
"647 662 LINE"
);
}
);
width = 766;
}
);
leftMetricsKey = H;
rightMetricsKey = H;
},
{
color = 7;
glyphname = A;
lastChange = "2018-06-27 16:01:05 +0000";
layers = (
{
anchors = (
{
name = bottom;
position = "{286, 0}";
},
{
name = ogonek;
position = "{571, 0}";
},
{
name = top;
position = "{404, 710}";
}
);
background = {
paths = (
{
closed = 1;
nodes = (
"528 172 LINE",
"528 219 LINE",
"120 219 LINE",
"120 172 LINE"
);
},
{
closed = 1;
nodes = (
"358 710 LINE",
"293 710 LINE",
"10 0 LINE",
"67 0 LINE",
"323 648 LINE",
"327 648 LINE",
"583 0 LINE",
"640 0 LINE"
);
}
);
};
layerId = "CC363ACD-D5A5-4E19-A940-9AF36D109D9E";
paths = (
{
closed = 1;
nodes = (
"394 648 LINE",
"398 648 LINE",
"534 0 LINE",
"589 0 LINE",
"437 710 LINE",
"372 710 LINE",
"-31 0 LINE",
"28 0 LINE"
);
},
{
closed = 1;
nodes = (
"510 172 LINE",
"519 223 LINE",
"118 223 LINE",
"109 172 LINE"
);
}
);
width = 650;
},
{
anchors = (
{
name = bottom;
position = "{339, 0}";
},
{
name = ogonek;
position = "{652, 0}";
},
{
name = top;
position = "{453, 710}";
}
);
background = {
paths = (
{
closed = 1;
nodes = (
"584 111 LINE",
"584 263 LINE",
"165 263 LINE",
"165 111 LINE"
);
},
{
closed = 1;
nodes = (
"532 710 LINE",
"222 710 LINE",
"5 0 LINE",
"211 0 LINE",
"369 566 LINE",
"376 566 LINE",
"524 0 LINE",
"749 0 LINE"
);
}
);
};
layerId = "C1DA716A-5F29-4CD0-A38F-CCADF5849A80";
paths = (
{
closed = 1;
nodes = (
"426 566 LINE",
"433 566 LINE",
"472 0 LINE",
"692 0 LINE",
"606 710 LINE",
"296 710 LINE",
"-42 0 LINE",
"183 0 LINE"
);
},
{
closed = 1;
nodes = (
"554 111 LINE",
"581 263 LINE",
"169 263 LINE",
"142 111 LINE"
);
}
);
width = 744;
},
{
anchors = (
{
name = bottom;
position = "{293, 0}";
},
{
name = ogonek;
position = "{592, 0}";
},
{
name = top;
position = "{412, 710}";
}
);
background = {
paths = (
{
closed = 1;
nodes = (
"537 154 LINE",
"537 238 LINE",
"118 238 LINE",
"118 154 LINE"
);
},
{
closed = 1;
nodes = (
"399 710 LINE",
"262 710 LINE",
"-8 0 LINE",
"101 0 LINE",
"327 623 LINE",
"332 623 LINE",
"555 0 LINE",
"666 0 LINE"
);
}
);
};
layerId = "6641C2CA-B9F9-47EE-AEEC-6BEE387D8CB9";
paths = (
{
closed = 1;
nodes = (
"400 623 LINE",
"405 623 LINE",
"514 0 LINE",
"622 0 LINE",
"481 710 LINE",
"344 710 LINE",
"-42 0 LINE",
"70 0 LINE"
);
},
{
closed = 1;
nodes = (
"519 153 LINE",
"534 238 LINE",
"123 238 LINE",
"107 153 LINE"
);
}
);
width = 674;
}
);
unicode = 0041;
userData = {
RMXScaler = {
source = A;
};
};
},
{
color = 7;
glyphname = B;
lastChange = "2018-04-13 10:27:52 +0000";
layers = (
{
background = {
paths = (
{
closed = 1;
nodes = (
"174 0 LINE",
"174 710 LINE",
"120 710 LINE",
"120 0 LINE"
);
},
{
closed = 1;
nodes = (
"511 359 LINE",
"593 376 OFFCURVE",
"638 428 OFFCURVE",
"638 528 CURVE SMOOTH",
"638 639 OFFCURVE",
"574 710 OFFCURVE",
"415 710 CURVE SMOOTH",
"162 710 LINE",
"162 661 LINE",
"423 661 LINE SMOOTH",
"535 661 OFFCURVE",
"584 607 OFFCURVE",
"584 521 CURVE SMOOTH",
"584 433 OFFCURVE",
"535 379 OFFCURVE",
"423 379 CURVE SMOOTH",
"162 379 LINE",
"162 330 LINE",
"420 330 LINE SMOOTH",
"540 330 OFFCURVE",
"601 289 OFFCURVE",
"601 190 CURVE SMOOTH",
"601 93 OFFCURVE",
"540 49 OFFCURVE",
"420 49 CURVE SMOOTH",
"162 49 LINE",
"162 0 LINE",
"412 0 LINE SMOOTH",
"572 0 OFFCURVE",
"655 67 OFFCURVE",
"655 185 CURVE SMOOTH",
"655 299 OFFCURVE",
"592 341 OFFCURVE",
"511 355 CURVE"
);
}
);
};
layerId = "CC363ACD-D5A5-4E19-A940-9AF36D109D9E";
paths = (
{
closed = 1;
nodes = (
"129 0 LINE",
"254 710 LINE",
"199 710 LINE",
"74 0 LINE"
);
},
{
closed = 1;
nodes = (
"512 356 LINE",
"594 372 OFFCURVE",
"679 418 OFFCURVE",
"679 548 CURVE SMOOTH",
"679 639 OFFCURVE",
"614 710 OFFCURVE",
"490 710 CURVE SMOOTH",
"242 710 LINE",
"234 661 LINE",
"485 661 LINE SMOOTH",
"579 661 OFFCURVE",
"625 616 OFFCURVE",
"625 543 CURVE SMOOTH",
"625 436 OFFCURVE",
"549 379 OFFCURVE",
"421 379 CURVE SMOOTH",
"184 379 LINE",
"175 330 LINE",
"416 330 LINE SMOOTH",
"529 330 OFFCURVE",
"583 293 OFFCURVE",
"583 212 CURVE SMOOTH",
"583 96 OFFCURVE",
"503 49 OFFCURVE",
"372 49 CURVE SMOOTH",
"126 49 LINE",
"117 0 LINE",
"367 0 LINE SMOOTH",
"534 0 OFFCURVE",
"637 67 OFFCURVE",
"637 212 CURVE SMOOTH",
"637 298 OFFCURVE",
"577 340 OFFCURVE",
"511 352 CURVE"
);
}
);
width = 731;
},
{
background = {
paths = (
{
closed = 1;
nodes = (
"282 0 LINE",
"282 710 LINE",
"70 710 LINE",
"70 0 LINE"
);
},
{
closed = 1;
nodes = (
"582 360 LINE",
"660 383 OFFCURVE",
"695 434 OFFCURVE",
"695 529 CURVE SMOOTH",
"695 639 OFFCURVE",
"617 710 OFFCURVE",
"444 710 CURVE SMOOTH",
"263 710 LINE",
"263 556 LINE",
"406 556 LINE SMOOTH",
"460 556 OFFCURVE",
"484 543 OFFCURVE",
"484 491 CURVE SMOOTH",
"484 445 OFFCURVE",
"460 425 OFFCURVE",
"406 425 CURVE SMOOTH",
"263 425 LINE",
"263 285 LINE",
"423 285 LINE SMOOTH",
"477 285 OFFCURVE",
"503 266 OFFCURVE",
"503 220 CURVE SMOOTH",
"503 168 OFFCURVE",
"477 154 OFFCURVE",
"423 154 CURVE SMOOTH",
"263 154 LINE",
"263 0 LINE",
"460 0 LINE SMOOTH",
"634 0 OFFCURVE",
"713 71 OFFCURVE",
"713 186 CURVE SMOOTH",
"713 287 OFFCURVE",
"672 336 OFFCURVE",
"582 354 CURVE"
);
}
);
};
layerId = "C1DA716A-5F29-4CD0-A38F-CCADF5849A80";
paths = (
{
closed = 1;
nodes = (
"235 0 LINE",
"360 710 LINE",
"148 710 LINE",
"23 0 LINE"
);
},
{
closed = 1;
nodes = (
"581 360 LINE",
"671 387 OFFCURVE",
"722 438 OFFCURVE",
"722 544 CURVE SMOOTH",
"722 644 OFFCURVE",
"644 710 OFFCURVE",
"493 710 CURVE SMOOTH",
"339 710 LINE",
"312 556 LINE",
"443 556 LINE SMOOTH",
"495 556 OFFCURVE",
"515 535 OFFCURVE",
"515 503 CURVE SMOOTH",
"515 451 OFFCURVE",
"490 425 OFFCURVE",
"426 425 CURVE SMOOTH",
"289 425 LINE",
"266 285 LINE",
"409 285 LINE SMOOTH",
"463 285 OFFCURVE",
"482 265 OFFCURVE",
"482 230 CURVE SMOOTH",
"482 178 OFFCURVE",
"459 154 OFFCURVE",
"394 154 CURVE SMOOTH",
"242 154 LINE",
"214 0 LINE",
"412 0 LINE SMOOTH",
"584 0 OFFCURVE",
"692 65 OFFCURVE",
"692 214 CURVE SMOOTH",
"692 291 OFFCURVE",
"650 330 OFFCURVE",
"580 353 CURVE"
);
}
);
width = 741;
},
{
background = {
paths = (
{
closed = 1;
nodes = (
"209 0 LINE",
"209 710 LINE",
"106 710 LINE",
"106 0 LINE"
);
},
{
closed = 1;
nodes = (
"539 360 LINE",
"621 379 OFFCURVE",
"662 431 OFFCURVE",
"662 529 CURVE SMOOTH",
"662 640 OFFCURVE",
"601 710 OFFCURVE",
"433 710 CURVE SMOOTH",
"194 710 LINE",
"194 623 LINE",
"426 623 LINE SMOOTH",
"518 623 OFFCURVE",
"560 591 OFFCURVE",
"560 510 CURVE SMOOTH",
"560 435 OFFCURVE",
"518 396 OFFCURVE",
"426 396 CURVE SMOOTH",
"194 396 LINE",
"194 314 LINE",
"430 314 LINE SMOOTH",
"528 314 OFFCURVE",
"577 282 OFFCURVE",
"577 200 CURVE SMOOTH",
"577 116 OFFCURVE",
"528 87 OFFCURVE",
"430 87 CURVE SMOOTH",
"194 87 LINE",
"194 0 LINE",
"434 0 LINE SMOOTH",
"604 0 OFFCURVE",
"679 70 OFFCURVE",
"679 186 CURVE SMOOTH",
"679 293 OFFCURVE",
"627 337 OFFCURVE",
"539 354 CURVE"
);
}
);
};
layerId = "6641C2CA-B9F9-47EE-AEEC-6BEE387D8CB9";
paths = (
{
closed = 1;
nodes = (
"163 0 LINE",
"288 710 LINE",
"185 710 LINE",
"60 0 LINE"
);
},
{
closed = 1;
nodes = (
"547 357 LINE",
"628 372 OFFCURVE",
"699 423 OFFCURVE",
"699 540 CURVE SMOOTH",
"699 646 OFFCURVE",
"628 710 OFFCURVE",
"493 710 CURVE SMOOTH",
"272 710 LINE",
"258 623 LINE",
"478 623 LINE SMOOTH",
"561 623 OFFCURVE",
"597 589 OFFCURVE",
"597 530 CURVE SMOOTH",
"597 438 OFFCURVE",
"540 396 OFFCURVE",
"438 396 CURVE SMOOTH",
"217 396 LINE",
"203 314 LINE",
"428 314 LINE SMOOTH",
"511 314 OFFCURVE",
"557 281 OFFCURVE",
"557 220 CURVE SMOOTH",
"557 121 OFFCURVE",
"500 87 OFFCURVE",
"390 87 CURVE SMOOTH",
"163 87 LINE",
"147 0 LINE",
"380 0 LINE SMOOTH",
"568 0 OFFCURVE",
"659 71 OFFCURVE",
"659 208 CURVE SMOOTH",
"659 288 OFFCURVE",
"613 336 OFFCURVE",
"546 351 CURVE"
);
}
);
width = 736;
}
);
leftMetricsKey = H;
unicode = 0042;
userData = {
RMXScaler = {
source = B;
};
};
},
{
color = 7;
glyphname = C;
lastChange = "2018-05-11 07:32:01 +0000";
layers = (
{
anchors = (
{
name = bottom;
position = "{351, 0}";
},
{
name = top;
position = "{449, 710}";
}
);
background = {
paths = (
{
closed = 1;
nodes = (
"515 -15 OFFCURVE",
"617 69 OFFCURVE",
"666 214 CURVE",
"611 221 LINE",
"563 96 OFFCURVE",
"491 36 OFFCURVE",
"355 36 CURVE SMOOTH",
"184 36 OFFCURVE",
"109 153 OFFCURVE",
"145 365 CURVE SMOOTH",
"178 558 OFFCURVE",
"276 674 OFFCURVE",
"448 674 CURVE SMOOTH",
"574 674 OFFCURVE",
"636 617 OFFCURVE",
"653 490 CURVE",
"708 493 LINE",
"692 640 OFFCURVE",
"605 725 OFFCURVE",
"453 725 CURVE SMOOTH",
"253 725 OFFCURVE",
"130 590 OFFCURVE",
"89 370 CURVE SMOOTH",
"44 131 OFFCURVE",
"153 -15 OFFCURVE",
"350 -15 CURVE SMOOTH"
);
}
);
};
layerId = "CC363ACD-D5A5-4E19-A940-9AF36D109D9E";
paths = (
{
closed = 1;
nodes = (
"515 -15 OFFCURVE",
"617 69 OFFCURVE",
"666 214 CURVE",
"611 221 LINE",
"563 96 OFFCURVE",
"491 36 OFFCURVE",
"355 36 CURVE SMOOTH",
"184 36 OFFCURVE",
"109 153 OFFCURVE",
"145 365 CURVE SMOOTH",
"178 558 OFFCURVE",
"266 674 OFFCURVE",
"438 674 CURVE SMOOTH",
"564 674 OFFCURVE",
"636 617 OFFCURVE",
"653 490 CURVE",
"708 493 LINE",
"692 640 OFFCURVE",
"595 725 OFFCURVE",
"443 725 CURVE SMOOTH",
"243 725 OFFCURVE",
"128 590 OFFCURVE",
"89 370 CURVE SMOOTH",
"47 131 OFFCURVE",
"153 -15 OFFCURVE",
"350 -15 CURVE SMOOTH"
);
}
);
width = 740;
},
{
anchors = (
{
name = bottom;
position = "{358, 0}";
},
{
name = top;
position = "{447, 710}";
}
);
background = {
anchors = (
{
name = bottom;
position = "{344, 0}";
},
{
name = top;
position = "{465, 710}";
}
);
paths = (
{
closed = 1;
nodes = (
"591 -15 OFFCURVE",
"674 81 OFFCURVE",
"708 245 CURVE",
"506 265 LINE",
"487 191 OFFCURVE",
"450 158 OFFCURVE",
"384 158 CURVE SMOOTH",
"309 158 OFFCURVE",
"271 199 OFFCURVE",
"271 280 CURVE SMOOTH",
"271 419 OFFCURVE",
"318 553 OFFCURVE",
"436 553 CURVE SMOOTH",
"513 553 OFFCURVE",
"538 512 OFFCURVE",
"537 440 CURVE",
"743 455 LINE",
"748 616 OFFCURVE",
"647 725 OFFCURVE",
"454 725 CURVE SMOOTH",
"179 725 OFFCURVE",
"49 539 OFFCURVE",
"49 272 CURVE SMOOTH",
"49 87 OFFCURVE",
"175 -15 OFFCURVE",
"364 -15 CURVE SMOOTH"
);
}
);
};
guideLines = (
{
angle = 80;
position = "{56, 353}";
}
);
layerId = "C1DA716A-5F29-4CD0-A38F-CCADF5849A80";
paths = (
{
closed = 1;
nodes = (
"582 -15 OFFCURVE",
"674 81 OFFCURVE",
"712 257 CURVE",
"506 277 LINE",
"488 201 OFFCURVE",
"456 158 OFFCURVE",
"384 158 CURVE SMOOTH",
"292 158 OFFCURVE",
"256 219 OFFCURVE",
"281 363 CURVE SMOOTH",
"305 501 OFFCURVE",
"351 552 OFFCURVE",
"427 552 CURVE SMOOTH",
"500 552 OFFCURVE",
"534 517 OFFCURVE",
"536 432 CURVE",
"742 442 LINE",
"748 613 OFFCURVE",
"644 725 OFFCURVE",
"442 725 CURVE SMOOTH",
"230 725 OFFCURVE",
"101 617 OFFCURVE",
"59 373 CURVE SMOOTH",
"17 130 OFFCURVE",
"142 -15 OFFCURVE",
"369 -15 CURVE SMOOTH"
);
}
);
width = 754;
},
{
anchors = (
{
name = bottom;
position = "{355, 0}";
},
{
name = top;
position = "{445, 710}";
}
);
background = {
paths = (
{
closed = 1;
nodes = (
"575 -15 OFFCURVE",
"681 71 OFFCURVE",
"704 228 CURVE",
"599 236 LINE",
"576 123 OFFCURVE",
"516 76 OFFCURVE",
"392 76 CURVE SMOOTH",
"243 76 OFFCURVE",
"163 176 OFFCURVE",
"163 355 CURVE SMOOTH",
"163 534 OFFCURVE",
"243 634 OFFCURVE",
"391 634 CURVE SMOOTH",
"513 634 OFFCURVE",
"573 583 OFFCURVE",
"598 475 CURVE",
"702 482 LINE",
"679 639 OFFCURVE",
"571 725 OFFCURVE",
"391 725 CURVE SMOOTH",
"181 725 OFFCURVE",
"55 587 OFFCURVE",
"55 355 CURVE SMOOTH",
"55 123 OFFCURVE",
"180 -15 OFFCURVE",
"392 -15 CURVE SMOOTH"
);
}
);
};
layerId = "6641C2CA-B9F9-47EE-AEEC-6BEE387D8CB9";
paths = (
{
closed = 1;
nodes = (
"536 -15 OFFCURVE",
"641 68 OFFCURVE",
"687 225 CURVE",
"583 236 LINE",
"545 123 OFFCURVE",
"482 76 OFFCURVE",
"363 76 CURVE SMOOTH",
"214 76 OFFCURVE",
"148 181 OFFCURVE",
"179 360 CURVE SMOOTH",
"210 539 OFFCURVE",
"288 634 OFFCURVE",
"431 634 CURVE SMOOTH",
"546 634 OFFCURVE",
"612 583 OFFCURVE",
"623 475 CURVE",
"727 480 LINE",
"715 637 OFFCURVE",
"609 725 OFFCURVE",
"436 725 CURVE SMOOTH",
"237 725 OFFCURVE",
"111 597 OFFCURVE",
"74 370 CURVE SMOOTH",
"35 129 OFFCURVE",
"149 -15 OFFCURVE",
"358 -15 CURVE SMOOTH"
);
}
);
width = 753;
}
);
leftMetricsKey = O;
unicode = 0043;
userData = {
RMXScaler = {
source = C;
};
};
},
{
color = 7;
glyphname = D;
lastChange = "2018-04-05 09:22:53 +0000";
layers = (
{
anchors = (
{
name = top;
position = "{407, 710}";
}
);
background = {
anchors = (
{
name = top;
position = "{406, 710}";
}
);
paths = (
{
closed = 1;
nodes = (
"128 0 LINE",
"254 710 LINE",
"199 710 LINE",
"73 0 LINE"
);
},
{
closed = 1;
nodes = (
"107 50 LINE",
"98 0 LINE",
"300 0 LINE SMOOTH",
"566 0 OFFCURVE",
"693 153 OFFCURVE",
"695 439 CURVE SMOOTH",
"696 610 OFFCURVE",
"591 710 OFFCURVE",
"413 710 CURVE SMOOTH",
"224 710 LINE",
"215 660 LINE",
"408 660 LINE SMOOTH",
"559 660 OFFCURVE",
"638 585 OFFCURVE",
"638 439 CURVE SMOOTH",
"638 178 OFFCURVE",
"531 50 OFFCURVE",
"305 50 CURVE SMOOTH"
);
}
);
};
layerId = "CC363ACD-D5A5-4E19-A940-9AF36D109D9E";
paths = (
{
closed = 1;
nodes = (
"129 0 LINE",
"255 710 LINE",
"200 710 LINE",
"74 0 LINE"
);
},
{
closed = 1;
nodes = (
"108 50 LINE",
"99 0 LINE",
"293 0 LINE SMOOTH",
"496 0 OFFCURVE",
"632 85 OFFCURVE",
"676 333 CURVE SMOOTH",
"721 586 OFFCURVE",
"621 710 OFFCURVE",
"401 710 CURVE SMOOTH",
"225 710 LINE",
"216 660 LINE",
"396 660 LINE SMOOTH",
"571 660 OFFCURVE",
"661 579 OFFCURVE",
"620 343 CURVE SMOOTH",
"580 111 OFFCURVE",
"458 50 OFFCURVE",
"298 50 CURVE SMOOTH"
);
}
);
width = 733;
},
{
anchors = (
{
name = top;
position = "{423, 710}";
}
);
background = {
anchors = (
{
name = top;
position = "{433, 710}";
}
);
paths = (
{
closed = 1;
nodes = (
"243 0 LINE",
"369 710 LINE",
"149 710 LINE",
"23 0 LINE"
);
},
{
closed = 1;
nodes = (
"232 167 LINE",
"202 0 LINE",
"334 0 LINE SMOOTH",
"616 0 OFFCURVE",
"754 147 OFFCURVE",
"754 424 CURVE SMOOTH",
"754 611 OFFCURVE",
"627 710 OFFCURVE",
"438 710 CURVE SMOOTH",
"328 710 LINE",
"298 543 LINE",
"403 543 LINE SMOOTH",
"491 543 OFFCURVE",
"532 499 OFFCURVE",
"532 414 CURVE SMOOTH",
"532 273 OFFCURVE",
"486 167 OFFCURVE",
"349 167 CURVE SMOOTH"
);
}
);
};
layerId = "C1DA716A-5F29-4CD0-A38F-CCADF5849A80";
paths = (
{
closed = 1;
nodes = (
"243 0 LINE",
"369 710 LINE",
"149 710 LINE",
"23 0 LINE"
);
},
{
closed = 1;
nodes = (
"232 167 LINE",
"202 0 LINE",
"337 0 LINE SMOOTH",
"563 0 OFFCURVE",
"704 98 OFFCURVE",
"745 335 CURVE SMOOTH",
"787 575 OFFCURVE",
"667 710 OFFCURVE",
"453 710 CURVE SMOOTH",
"328 710 LINE",
"298 543 LINE",
"408 543 LINE SMOOTH",
"510 543 OFFCURVE",
"548 486 OFFCURVE",
"524 350 CURVE SMOOTH",
"500 214 OFFCURVE",
"449 167 OFFCURVE",
"357 167 CURVE SMOOTH"
);
}
);
width = 773;
},
{
anchors = (
{
name = top;
position = "{399, 710}";
}
);
background = {
anchors = (
{
name = top;
position = "{418, 710}";
}
);
paths = (
{
closed = 1;
nodes = (
"164 0 LINE",
"290 710 LINE",
"185 710 LINE",
"59 0 LINE"
);
},
{
closed = 1;
nodes = (
"146 90 LINE",
"130 0 LINE",
"320 0 LINE SMOOTH",
"588 0 OFFCURVE",
"710 161 OFFCURVE",
"712 413 CURVE SMOOTH",
"713 588 OFFCURVE",
"619 710 OFFCURVE",
"421 710 CURVE SMOOTH",
"256 710 LINE",
"240 620 LINE",
"411 620 LINE SMOOTH",
"559 620 OFFCURVE",
"605 543 OFFCURVE",
"605 413 CURVE SMOOTH",
"605 211 OFFCURVE",
"528 90 OFFCURVE",
"330 90 CURVE SMOOTH"
);
}
);
};
layerId = "6641C2CA-B9F9-47EE-AEEC-6BEE387D8CB9";
paths = (
{
closed = 1;
nodes = (
"164 0 LINE",
"290 710 LINE",
"185 710 LINE",
"59 0 LINE"
);
},
{
closed = 1;
nodes = (
"145 90 LINE",
"129 0 LINE",
"305 0 LINE SMOOTH",
"528 0 OFFCURVE",
"657 101 OFFCURVE",
"698 335 CURVE SMOOTH",
"740 572 OFFCURVE",
"644 710 OFFCURVE",
"424 710 CURVE SMOOTH",
"255 710 LINE",
"239 620 LINE",
"414 620 LINE SMOOTH",
"565 620 OFFCURVE",
"627 539 OFFCURVE",
"593 345 CURVE SMOOTH",
"559 151 OFFCURVE",
"456 90 OFFCURVE",
"315 90 CURVE SMOOTH"
);
}
);
width = 740;
}
);
leftMetricsKey = H;
rightMetricsKey = O;
unicode = 0044;
userData = {
RMXScaler = {
source = D;
};
};
},
{
color = 7;
glyphname = E;
lastChange = "2018-03-24 21:26:05 +0000";
layers = (
{
anchors = (
{
name = bottom;
position = "{322, 0}";
},
{
name = ogonek;
position = "{516, 0}";
},
{
name = top;
position = "{426, 710}";
}
);
background = {
paths = (
{
closed = 1;
nodes = (
"175 0 LINE",
"175 710 LINE",
"120 710 LINE",
"120 0 LINE"
);
},
{
closed = 1;
nodes = (
"590 660 LINE",
"590 710 LINE",
"162 710 LINE",
"162 660 LINE"
);
},
{
closed = 1;
nodes = (
"524 339 LINE",
"524 387 LINE",
"162 387 LINE",
"162 339 LINE"
);
},
{
closed = 1;
nodes = (
"590 0 LINE",
"590 50 LINE",
"162 50 LINE",
"162 0 LINE"
);
}
);
};
layerId = "CC363ACD-D5A5-4E19-A940-9AF36D109D9E";
paths = (
{
closed = 1;
nodes = (
"129 0 LINE",
"254 710 LINE",
"199 710 LINE",
"74 0 LINE"
);
},
{
closed = 1;
nodes = (
"651 660 LINE",
"660 710 LINE",
"242 710 LINE",
"233 660 LINE"
);
},
{
closed = 1;
nodes = (
"529 339 LINE",
"537 387 LINE",
"185 387 LINE",
"177 339 LINE"
);
},
{
closed = 1;
nodes = (
"534 0 LINE",
"543 50 LINE",
"125 50 LINE",
"116 0 LINE"
);
}
);
width = 661;
},
{
anchors = (
{
name = bottom;
position = "{322, 0}";
},
{
name = ogonek;
position = "{546, 0}";
},
{
name = top;
position = "{433, 710}";
}
);
background = {
paths = (
{
closed = 1;
nodes = (
"285 0 LINE",
"285 710 LINE",
"70 710 LINE",
"70 0 LINE"
);
},
{
closed = 1;
nodes = (
"643 537 LINE",
"643 710 LINE",
"189 710 LINE",
"189 537 LINE"
);
},
{
closed = 1;
nodes = (
"573 279 LINE",
"573 430 LINE",
"207 430 LINE",
"207 279 LINE"
);
},
{
closed = 1;
nodes = (
"643 0 LINE",
"643 173 LINE",
"189 173 LINE",
"189 0 LINE"
);
}
);
};
layerId = "C1DA716A-5F29-4CD0-A38F-CCADF5849A80";
paths = (
{
closed = 1;
nodes = (
"237 0 LINE",
"362 710 LINE",
"148 710 LINE",
"23 0 LINE"
);
},
{
closed = 1;
nodes = (
"681 537 LINE",
"712 710 LINE",
"267 710 LINE",
"236 537 LINE"
);
},
{
closed = 1;
nodes = (
"574 279 LINE",
"600 430 LINE",
"235 430 LINE",
"209 279 LINE"
);
},
{
closed = 1;
nodes = (
"586 0 LINE",
"617 173 LINE",
"172 173 LINE",
"141 0 LINE"
);
}
);
width = 684;
},
{
anchors = (
{
name = bottom;
position = "{327, 0}";
},
{
name = ogonek;
position = "{526, 0}";
},
{
name = top;
position = "{434, 710}";
}
);
background = {
paths = (
{
closed = 1;
nodes = (
"211 0 LINE",
"211 710 LINE",
"106 710 LINE",
"106 0 LINE"
);
},
{
closed = 1;
nodes = (
"612 620 LINE",
"612 710 LINE",
"179 710 LINE",
"179 620 LINE"
);
},
{
closed = 1;
nodes = (
"547 314 LINE",
"547 400 LINE",
"192 400 LINE",
"192 314 LINE"
);
},
{
closed = 1;
nodes = (
"612 0 LINE",
"612 90 LINE",
"179 90 LINE",
"179 0 LINE"
);
}
);
};
layerId = "6641C2CA-B9F9-47EE-AEEC-6BEE387D8CB9";
paths = (
{
closed = 1;
nodes = (
"164 0 LINE",
"289 710 LINE",
"185 710 LINE",
"60 0 LINE"
);
},
{
closed = 1;
nodes = (
"665 620 LINE",
"682 710 LINE",
"257 710 LINE",
"241 620 LINE"
);
},
{
closed = 1;
nodes = (
"548 314 LINE",
"563 400 LINE",
"215 400 LINE",
"199 314 LINE"
);
},
{
closed = 1;
nodes = (
"556 0 LINE",
"572 90 LINE",
"148 90 LINE",
"132 0 LINE"
);
}
);
width = 672;
}
);
leftMetricsKey = "=H";
unicode = 0045;
userData = {
RMXScaler = {
source = E;
};
};
},
{
color = 7;
glyphname = F;
lastChange = "2018-03-02 13:17:43 +0000";
layers = (
{
background = {
paths = (
{
closed = 1;
nodes = (
"175 0 LINE",
"175 710 LINE",
"120 710 LINE",
"120 0 LINE"
);
},
{
closed = 1;
nodes = (
"577 660 LINE",
"577 710 LINE",
"162 710 LINE",
"162 660 LINE"
);
},
{
closed = 1;
nodes = (
"510 331 LINE",
"510 379 LINE",
"162 379 LINE",
"162 331 LINE"
);
}
);
};
layerId = "CC363ACD-D5A5-4E19-A940-9AF36D109D9E";
paths = (
{
closed = 1;
nodes = (
"129 0 LINE",
"254 710 LINE",
"199 710 LINE",
"74 0 LINE"
);
},
{
closed = 1;
nodes = (
"637 660 LINE",
"646 710 LINE",
"242 710 LINE",
"233 660 LINE"
);
},
{
closed = 1;
nodes = (
"512 331 LINE",
"520 379 LINE",
"183 379 LINE",
"175 331 LINE"
);
}
);
width = 597;
},
{
background = {
paths = (
{
closed = 1;
nodes = (
"290 0 LINE",
"290 710 LINE",
"70 710 LINE",
"70 0 LINE"
);
},
{
closed = 1;
nodes = (
"626 537 LINE",
"626 710 LINE",
"190 710 LINE",
"190 537 LINE"
);
},
{
closed = 1;
nodes = (
"563 248 LINE",
"563 401 LINE",
"190 401 LINE",
"190 248 LINE"
);
}
);
};
layerId = "C1DA716A-5F29-4CD0-A38F-CCADF5849A80";
paths = (
{
closed = 1;
nodes = (
"243 0 LINE",
"368 710 LINE",
"148 710 LINE",
"23 0 LINE"
);
},
{
closed = 1;
nodes = (
"663 537 LINE",
"694 710 LINE",
"267 710 LINE",
"236 537 LINE"
);
},
{
closed = 1;
nodes = (
"549 248 LINE",
"576 401 LINE",
"212 401 LINE",
"185 248 LINE"
);
}
);
width = 636;
},
{
background = {
paths = (
{
closed = 1;
nodes = (
"211 0 LINE",
"211 710 LINE",
"106 710 LINE",
"106 0 LINE"
);
},
{
closed = 1;
nodes = (
"593 620 LINE",
"593 710 LINE",
"180 710 LINE",
"180 620 LINE"
);
},
{
closed = 1;
nodes = (
"528 300 LINE",
"528 387 LINE",
"180 387 LINE",
"180 300 LINE"
);
}
);
};
layerId = "6641C2CA-B9F9-47EE-AEEC-6BEE387D8CB9";
paths = (
{
closed = 1;
nodes = (
"165 0 LINE",
"290 710 LINE",
"185 710 LINE",
"60 0 LINE"
);
},
{
closed = 1;
nodes = (
"645 620 LINE",
"662 710 LINE",
"259 710 LINE",
"242 620 LINE"
);
},
{
closed = 1;
nodes = (
"526 300 LINE",
"541 387 LINE",
"202 387 LINE",
"186 300 LINE"
);
}
);
width = 610;
}
);
leftMetricsKey = H;
unicode = 0046;
userData = {
RMXScaler = {
source = F;
};
};
},
{
color = 7;
glyphname = G;
lastChange = "2018-05-18 19:31:42 +0000";
layers = (
{
anchors = (
{
name = bottom;
position = "{348, 0}";
},
{
name = top;
position = "{463, 710}";
}
);
background = {
paths = (
{
closed = 1;
nodes = (
"513 -15 OFFCURVE",
"573 74 OFFCURVE",
"607 132 CURVE",
"612 132 LINE",
"597 0 LINE",
"640 0 LINE",
"701 346 LINE",
"452 346 LINE",
"444 301 LINE",
"665 301 LINE",
"649 309 LINE",
"601 137 OFFCURVE",
"510 36 OFFCURVE",
"359 36 CURVE SMOOTH",
"180 36 OFFCURVE",
"111 165 OFFCURVE",
"146 365 CURVE SMOOTH",
"180 561 OFFCURVE",
"282 674 OFFCURVE",
"442 674 CURVE SMOOTH",
"576 674 OFFCURVE",
"652 622 OFFCURVE",
"668 499 CURVE",
"722 502 LINE",
"708 639 OFFCURVE",
"612 725 OFFCURVE",
"447 725 CURVE SMOOTH",
"256 725 OFFCURVE",
"128 589 OFFCURVE",
"89 369 CURVE SMOOTH",
"49 144 OFFCURVE",
"148 -15 OFFCURVE",
"354 -15 CURVE SMOOTH"
);
}
);
};
guideLines = (
{
angle = 80;
position = "{144, 353}";
}
);
layerId = "CC363ACD-D5A5-4E19-A940-9AF36D109D9E";
paths = (
{
closed = 1;
nodes = (
"496 -15 OFFCURVE",
"563 58 OFFCURVE",
"607 127 CURVE",
"612 127 LINE",
"597 0 LINE",
"640 0 LINE",
"701 346 LINE",
"452 346 LINE",
"444 301 LINE",
"665 301 LINE",
"652 322 LINE",
"648 307 LINE SMOOTH",
"604 144 OFFCURVE",
"510 36 OFFCURVE",
"359 36 CURVE SMOOTH",
"180 36 OFFCURVE",
"111 165 OFFCURVE",
"146 365 CURVE SMOOTH",
"180 561 OFFCURVE",
"282 674 OFFCURVE",
"442 674 CURVE SMOOTH",
"576 674 OFFCURVE",
"652 622 OFFCURVE",
"668 499 CURVE",
"722 502 LINE",
"708 639 OFFCURVE",
"612 725 OFFCURVE",
"447 725 CURVE SMOOTH",
"256 725 OFFCURVE",
"128 589 OFFCURVE",
"89 369 CURVE SMOOTH",
"49 144 OFFCURVE",
"148 -15 OFFCURVE",
"354 -15 CURVE SMOOTH"
);
}
);
width = 780;
},
{
anchors = (
{
name = bottom;
position = "{341, 0}";
},
{
name = top;
position = "{459, 710}";
}
);
background = {
paths = (
{
closed = 1;
nodes = (
"440 -15 OFFCURVE",
"485 40 OFFCURVE",
"517 91 CURVE",
"524 91 LINE",
"531 0 LINE",
"687 0 LINE",
"756 393 LINE",
"430 393 LINE",
"405 253 LINE",
"579 253 LINE",
"549 288 LINE",
"526 195 OFFCURVE",
"478 144 OFFCURVE",
"389 144 CURVE SMOOTH",
"286 144 OFFCURVE",
"254 218 OFFCURVE",
"279 363 CURVE SMOOTH",
"301 493 OFFCURVE",
"344 555 OFFCURVE",
"440 555 CURVE SMOOTH",
"512 555 OFFCURVE",
"537 518 OFFCURVE",
"548 464 CURVE",
"758 474 LINE",
"753 605 OFFCURVE",
"664 725 OFFCURVE",
"450 725 CURVE SMOOTH",
"219 725 OFFCURVE",
"99 602 OFFCURVE",
"59 373 CURVE SMOOTH",
"18 140 OFFCURVE",
"117 -15 OFFCURVE",
"318 -15 CURVE SMOOTH"
);
}
);
};
layerId = "C1DA716A-5F29-4CD0-A38F-CCADF5849A80";
paths = (
{
closed = 1;
nodes = (
"440 -15 OFFCURVE",
"485 40 OFFCURVE",
"517 91 CURVE",
"524 91 LINE",
"531 0 LINE",
"687 0 LINE",
"756 393 LINE",
"430 393 LINE",
"405 253 LINE",
"579 253 LINE",
"550 297 LINE",
"542 266 LINE SMOOTH",
"525 200 OFFCURVE",
"478 144 OFFCURVE",
"389 144 CURVE SMOOTH",
"286 144 OFFCURVE",
"254 218 OFFCURVE",
"279 363 CURVE SMOOTH",
"301 493 OFFCURVE",
"344 555 OFFCURVE",
"440 555 CURVE SMOOTH",
"512 555 OFFCURVE",
"537 518 OFFCURVE",
"548 464 CURVE",
"758 474 LINE",
"753 605 OFFCURVE",
"664 725 OFFCURVE",
"450 725 CURVE SMOOTH",
"219 725 OFFCURVE",
"99 602 OFFCURVE",
"59 373 CURVE SMOOTH",
"18 140 OFFCURVE",
"117 -15 OFFCURVE",
"318 -15 CURVE SMOOTH"
);
}
);
width = 789;
},
{
anchors = (
{
name = bottom;
position = "{339, 0}";
},
{
name = top;
position = "{458, 710}";
}
);
background = {
paths = (
{
closed = 1;
nodes = (
"466 -16 OFFCURVE",
"536 52 OFFCURVE",
"575 115 CURVE",
"581 115 LINE",
"571 0 LINE",
"654 0 LINE",
"718 361 LINE",
"437 361 LINE",
"422 278 LINE",
"649 278 LINE",
"617 305 LINE",
"576 167 OFFCURVE",
"502 73 OFFCURVE",
"361 73 CURVE SMOOTH",
"218 73 OFFCURVE",
"144 166 OFFCURVE",
"179 365 CURVE SMOOTH",
"209 535 OFFCURVE",
"288 634 OFFCURVE",
"434 634 CURVE SMOOTH",
"558 634 OFFCURVE",
"614 581 OFFCURVE",
"628 490 CURVE",
"732 495 LINE",
"718 626 OFFCURVE",
"625 725 OFFCURVE",
"444 725 CURVE SMOOTH",
"246 725 OFFCURVE",
"116 603 OFFCURVE",
"74 370 CURVE SMOOTH",
"31 129 OFFCURVE",
"150 -16 OFFCURVE",
"337 -16 CURVE SMOOTH"
);
}
);
};
guideLines = (
{
angle = 80;
position = "{175, 353}";
}
);
layerId = "6641C2CA-B9F9-47EE-AEEC-6BEE387D8CB9";
paths = (
{
closed = 1;
nodes = (
"466 -16 OFFCURVE",
"536 47 OFFCURVE",
"575 110 CURVE",
"581 110 LINE",
"571 0 LINE",
"654 0 LINE",
"718 361 LINE",
"437 361 LINE",
"422 278 LINE",
"649 278 LINE",
"620 321 LINE",
"609 285 LINE SMOOTH",
"574 171 OFFCURVE",
"502 73 OFFCURVE",
"361 73 CURVE SMOOTH",
"218 73 OFFCURVE",
"144 166 OFFCURVE",
"179 365 CURVE SMOOTH",
"209 535 OFFCURVE",
"288 634 OFFCURVE",
"434 634 CURVE SMOOTH",
"558 634 OFFCURVE",
"614 581 OFFCURVE",
"628 490 CURVE",
"732 495 LINE",
"718 626 OFFCURVE",
"625 725 OFFCURVE",
"444 725 CURVE SMOOTH",
"246 725 OFFCURVE",
"116 603 OFFCURVE",
"74 370 CURVE SMOOTH",
"31 129 OFFCURVE",
"150 -16 OFFCURVE",
"337 -16 CURVE SMOOTH"
);
}
);
width = 785;
}
);
leftMetricsKey = O;
unicode = 0047;
userData = {
RMXScaler = {
source = G;
};
};
},
{
color = 7;
glyphname = H;
lastChange = "2018-03-02 11:02:40 +0000";
layers = (
{
anchors = (
{
name = top;
position = "{465, 710}";
}
);
background = {
paths = (
{
closed = 1;
nodes = (
"606 389 LINE",
"169 389 LINE",
"169 710 LINE",
"114 710 LINE",
"114 0 LINE",
"169 0 LINE",
"169 339 LINE",
"606 339 LINE",
"606 0 LINE",
"661 0 LINE",
"661 710 LINE",
"606 710 LINE"
);
}
);
};
layerId = "CC363ACD-D5A5-4E19-A940-9AF36D109D9E";
paths = (
{
closed = 1;
nodes = (
"129 0 LINE",
"189 339 LINE",
"616 339 LINE",
"556 0 LINE",
"611 0 LINE",
"736 710 LINE",
"681 710 LINE",
"625 389 LINE",
"198 389 LINE",
"254 710 LINE",
"199 710 LINE",
"74 0 LINE"
);
}
);
width = 777;
},
{
anchors = (
{
name = top;
position = "{474, 710}";
}
);
background = {
paths = (
{
closed = 1;
nodes = (
"515 445 LINE",
"287 445 LINE",
"287 710 LINE",
"67 710 LINE",
"67 0 LINE",
"287 0 LINE",
"287 270 LINE",
"515 270 LINE",
"515 0 LINE",
"735 0 LINE",
"735 710 LINE",
"515 710 LINE"
);
}
);
};
layerId = "C1DA716A-5F29-4CD0-A38F-CCADF5849A80";
paths = (
{
closed = 1;
nodes = (
"243 0 LINE",
"290 270 LINE",
"508 270 LINE",
"461 0 LINE",
"681 0 LINE",
"806 710 LINE",
"586 710 LINE",
"539 445 LINE",
"321 445 LINE",
"368 710 LINE",
"148 710 LINE",
"23 0 LINE"
);
}
);
width = 798;
},
{
anchors = (
{
name = top;
position = "{472, 710}";
}
);
background = {
paths = (
{
closed = 1;
nodes = (
"587 405 LINE",
"211 405 LINE",
"211 710 LINE",
"106 710 LINE",
"106 0 LINE",
"211 0 LINE",
"211 315 LINE",
"587 315 LINE",
"587 0 LINE",
"692 0 LINE",
"692 710 LINE",
"587 710 LINE"
);
}
);
};
layerId = "6641C2CA-B9F9-47EE-AEEC-6BEE387D8CB9";
paths = (
{
closed = 1;
nodes = (
"165 0 LINE",
"220 315 LINE",
"586 315 LINE",
"531 0 LINE",
"636 0 LINE",
"761 710 LINE",
"656 710 LINE",
"602 405 LINE",
"237 405 LINE",
"290 710 LINE",
"185 710 LINE",
"60 0 LINE"
);
}
);
width = 789;
}
);
unicode = 0048;
userData = {
RMXScaler = {
source = H;
};
};
},
{
color = 7;
glyphname = I;
lastChange = "2018-03-02 11:04:41 +0000";
layers = (
{
anchors = (
{
name = bottom;
position = "{105, 0}";
},
{
name = ogonek;
position = "{111, 0}";
},
{
name = top;
position = "{227, 710}";
}
);
background = {
paths = (
{
closed = 1;
nodes = (
"129 0 LINE",
"188 336 LINE",
"605 336 LINE",
"546 0 LINE",
"606 0 LINE",
"731 710 LINE",
"671 710 LINE",
"615 389 LINE",
"198 389 LINE",
"254 710 LINE",
"194 710 LINE",
"69 0 LINE"
);
}
);
};
layerId = "CC363ACD-D5A5-4E19-A940-9AF36D109D9E";
paths = (
{
closed = 1;
nodes = (
"129 0 LINE",
"254 710 LINE",
"199 710 LINE",
"74 0 LINE"
);
}
);
width = 295;
},
{
anchors = (
{
name = bottom;
position = "{138, 0}";
},
{
name = ogonek;
position = "{202, 0}";
},
{
name = top;
position = "{255, 710}";
}
);
background = {
paths = (
{
closed = 1;
nodes = (
"243 0 LINE",
"290 270 LINE",
"508 270 LINE",
"461 0 LINE",
"681 0 LINE",
"806 710 LINE",
"586 710 LINE",
"538 440 LINE",
"320 440 LINE",
"368 710 LINE",
"148 710 LINE",
"23 0 LINE"
);
}
);
};
layerId = "C1DA716A-5F29-4CD0-A38F-CCADF5849A80";
paths = (
{
closed = 1;
nodes = (
"243 0 LINE",
"368 710 LINE",
"148 710 LINE",
"23 0 LINE"
);
}
);
width = 360;
},
{
anchors = (
{
name = bottom;
position = "{118, 0}";
},
{
name = ogonek;
position = "{146, 0}";
},
{
name = top;
position = "{237, 710}";
}
);
layerId = "6641C2CA-B9F9-47EE-AEEC-6BEE387D8CB9";
paths = (
{
closed = 1;
nodes = (
"165 0 LINE",
"290 710 LINE",
"185 710 LINE",
"60 0 LINE"
);
}
);
width = 318;
}
);
leftMetricsKey = "=H";
rightMetricsKey = "=H";
unicode = 0049;
userData = {
RMXScaler = {
source = I;
};
};
},
{
color = 7;
glyphname = J;
lastChange = "2018-03-02 17:15:21 +0000";
layers = (
{
anchors = (
{
name = top;
position = "{345, 710}";
}
);
background = {
paths = (
{
closed = 1;
nodes = (
"-17 -6 LINE",
"6 -12 OFFCURVE",
"42 -15 OFFCURVE",
"69 -15 CURVE SMOOTH",
"220 -15 OFFCURVE",
"278 76 OFFCURVE",
"278 262 CURVE SMOOTH",
"278 710 LINE",
"223 710 LINE",
"223 263 LINE SMOOTH",
"223 103 OFFCURVE",
"187 36 OFFCURVE",
"63 36 CURVE SMOOTH",
"40 36 OFFCURVE",
"8 38 OFFCURVE",
"-11 42 CURVE"
);
}
);
};
layerId = "CC363ACD-D5A5-4E19-A940-9AF36D109D9E";
paths = (
{
closed = 1;
nodes = (
"-36 -1 LINE",
"-14 -7 OFFCURVE",
"21 -15 OFFCURVE",
"58 -15 CURVE SMOOTH",
"199 -15 OFFCURVE",
"260 76 OFFCURVE",
"289 242 CURVE SMOOTH",
"372 710 LINE",
"317 710 LINE",
"234 243 LINE SMOOTH",
"209 103 OFFCURVE",
"169 36 OFFCURVE",
"58 36 CURVE SMOOTH",
"25 36 OFFCURVE",
"0 41 OFFCURVE",
"-25 48 CURVE"
);
}
);
width = 403;
},
{
anchors = (
{
name = top;
position = "{379, 710}";
}
);
background = {
paths = (
{
closed = 1;
nodes = (
"-51 6 LINE",
"-16 -6 OFFCURVE",
"38 -15 OFFCURVE",
"103 -15 CURVE SMOOTH",
"295 -15 OFFCURVE",
"387 74 OFFCURVE",
"387 264 CURVE SMOOTH",
"387 710 LINE",
"167 710 LINE",
"167 263 LINE SMOOTH",
"167 184 OFFCURVE",
"134 155 OFFCURVE",
"65 155 CURVE SMOOTH",
"24 155 OFFCURVE",
"-8 163 OFFCURVE",
"-31 170 CURVE"
);
}
);
};
layerId = "C1DA716A-5F29-4CD0-A38F-CCADF5849A80";
paths = (
{
closed = 1;
nodes = (
"-41 11 LINE",
"6 -5 OFFCURVE",
"64 -15 OFFCURVE",
"119 -15 CURVE SMOOTH",
"301 -15 OFFCURVE",
"378 74 OFFCURVE",
"412 264 CURVE SMOOTH",
"491 710 LINE",
"271 710 LINE",
"192 263 LINE SMOOTH",
"179 189 OFFCURVE",
"145 155 OFFCURVE",
"86 155 CURVE SMOOTH",
"54 155 OFFCURVE",
"18 163 OFFCURVE",
"-7 172 CURVE"
);
}
);
width = 473;
},
{
anchors = (
{
name = top;
position = "{355, 710}";
}
);
background = {
paths = (
{
closed = 1;
nodes = (
"10 -1 LINE",
"38 -9 OFFCURVE",
"76 -15 OFFCURVE",
"122 -15 CURVE SMOOTH",
"275 -15 OFFCURVE",
"342 77 OFFCURVE",
"342 256 CURVE SMOOTH",
"342 710 LINE",
"237 710 LINE",
"237 249 LINE SMOOTH",
"237 137 OFFCURVE",
"211 76 OFFCURVE",
"105 76 CURVE SMOOTH",
"76 76 OFFCURVE",
"50 80 OFFCURVE",
"20 86 CURVE"
);
}
);
};
layerId = "6641C2CA-B9F9-47EE-AEEC-6BEE387D8CB9";
paths = (
{
closed = 1;
nodes = (
"-37 2 LINE",
"-6 -8 OFFCURVE",
"33 -15 OFFCURVE",
"76 -15 CURVE SMOOTH",
"229 -15 OFFCURVE",
"296 75 OFFCURVE",
"327 248 CURVE SMOOTH",
"409 710 LINE",
"304 710 LINE",
"222 249 LINE SMOOTH",
"200 128 OFFCURVE",
"159 76 OFFCURVE",
"68 76 CURVE SMOOTH",
"35 76 OFFCURVE",
"7 81 OFFCURVE",
"-18 89 CURVE"
);
}
);
width = 426;
}
);
rightMetricsKey = U;
unicode = 004A;
userData = {
RMXScaler = {
source = J;
};
};
},
{
color = 7;
glyphname = K;
lastChange = "2018-05-18 14:01:49 +0000";
layers = (
{
anchors = (
{
name = bottom;
position = "{308, 0}";
},
{
name = top;
position = "{422, 710}";
}
);
background = {
paths = (
{
closed = 1;
nodes = (
"228 341 LINE",
"692 710 LINE",
"616 710 LINE",
"200 382 LINE",
"180 382 LINE",
"173 341 LINE"
);
},
{
closed = 1;
nodes = (
"129 0 LINE",
"255 710 LINE",
"200 710 LINE",
"74 0 LINE"
);
},
{
closed = 1;
nodes = (
"576 0 LINE",
"230 378 LINE",
"185 350 LINE",
"510 0 LINE"
);
}
);
};
layerId = "CC363ACD-D5A5-4E19-A940-9AF36D109D9E";
paths = (
{
closed = 1;
nodes = (
"129 0 LINE",
"255 710 LINE",
"200 710 LINE",
"74 0 LINE"
);
},
{
closed = 1;
nodes = (
"616 710 LINE",
"200 382 LINE",
"180 382 LINE",
"173 341 LINE",
"193 341 LINE",
"510 0 LINE",
"576 0 LINE",
"232 376 LINE",
"232 344 LINE",
"692 710 LINE"
);
}
);
width = 632;
},
{
anchors = (
{
name = bottom;
position = "{344, 0}";
},
{
name = top;
position = "{452, 710}";
}
);
background = {
paths = (
{
closed = 1;
nodes = (
"444 293 LINE",
"811 710 LINE",
"577 710 LINE",
"328 424 LINE",
"286 424 LINE",
"267 293 LINE"
);
},
{
closed = 1;
nodes = (
"242 0 LINE",
"368 710 LINE",
"149 710 LINE",
"23 0 LINE"
);
},
{
closed = 1;
nodes = (
"691 0 LINE",
"471 415 LINE",
"285 332 LINE",
"455 0 LINE"
);
}
);
};
layerId = "C1DA716A-5F29-4CD0-A38F-CCADF5849A80";
paths = (
{
closed = 1;
nodes = (
"242 0 LINE",
"368 710 LINE",
"149 710 LINE",
"23 0 LINE"
);
},
{
closed = 1;
nodes = (
"577 710 LINE",
"328 424 LINE",
"286 424 LINE",
"267 293 LINE",
"305 293 LINE",
"455 0 LINE",
"691 0 LINE",
"457 441 LINE",
"439 287 LINE",
"811 710 LINE"
);
}
);
width = 743;
},
{
anchors = (
{
name = bottom;
position = "{318, 0}";
},
{
name = top;
position = "{426, 710}";
}
);
background = {
paths = (
{
closed = 1;
nodes = (
"287 324 LINE",
"732 710 LINE",
"602 710 LINE",
"240 400 LINE",
"215 400 LINE",
"203 324 LINE"
);
},
{
closed = 1;
nodes = (
"164 0 LINE",
"290 710 LINE",
"185 710 LINE",
"59 0 LINE"
);
},
{
closed = 1;
nodes = (
"614 0 LINE",
"296 393 LINE",
"208 348 LINE",
"493 0 LINE"
);
}
);
};
layerId = "6641C2CA-B9F9-47EE-AEEC-6BEE387D8CB9";
paths = (
{
closed = 1;
nodes = (
"164 0 LINE",
"290 710 LINE",
"185 710 LINE",
"59 0 LINE"
);
},
{
closed = 1;
nodes = (
"602 710 LINE",
"240 400 LINE",
"215 400 LINE",
"203 324 LINE",
"228 324 LINE",
"493 0 LINE",
"614 0 LINE",
"297 392 LINE",
"293 329 LINE",
"732 710 LINE"
);
}
);
width = 666;
}
);
leftMetricsKey = H;
unicode = 004B;
userData = {
RMXScaler = {
source = K;
};
};
},
{
color = 7;
glyphname = L;
lastChange = "2018-04-05 09:36:54 +0000";
layers = (
{
anchors = (
{
name = bottom;
position = "{278, 0}";
},
{
name = periodcentered;
position = "{374, 370}";
},
{
name = top;
position = "{228, 710}";
},
{
name = topright;
position = "{343, 463}";
}
);
background = {
paths = (
{
closed = 1;
nodes = (
"145 0 LINE",
"145 710 LINE",
"90 710 LINE",
"90 0 LINE"
);
},
{
closed = 1;
nodes = (
"504 0 LINE",
"504 50 LINE",
"132 50 LINE",
"132 0 LINE"
);
}
);
};
layerId = "CC363ACD-D5A5-4E19-A940-9AF36D109D9E";
paths = (
{
closed = 1;
nodes = (
"129 0 LINE",
"254 710 LINE",
"199 710 LINE",
"74 0 LINE"
);
},
{
closed = 1;
nodes = (
"478 0 LINE",
"487 50 LINE",
"125 50 LINE",
"116 0 LINE"
);
}
);
width = 534;
},
{
anchors = (
{
name = bottom;
position = "{296, 0}";
},
{
name = periodcentered;
position = "{410, 370}";
},
{
name = top;
position = "{261, 710}";
},
{
name = topright;
position = "{456, 475}";
}
);
background = {
paths = (
{
closed = 1;
nodes = (
"270 0 LINE",
"270 710 LINE",
"50 710 LINE",
"50 0 LINE"
);
},
{
closed = 1;
nodes = (
"560 0 LINE",
"560 173 LINE",
"168 173 LINE",
"168 0 LINE"
);
}
);
};
layerId = "C1DA716A-5F29-4CD0-A38F-CCADF5849A80";
paths = (
{
closed = 1;
nodes = (
"243 0 LINE",
"368 710 LINE",
"148 710 LINE",
"23 0 LINE"
);
},
{
closed = 1;
nodes = (
"523 0 LINE",
"554 173 LINE",
"172 173 LINE",
"141 0 LINE"
);
}
);
width = 596;
},
{
anchors = (
{
name = bottom;
position = "{282, 0}";
},
{
name = periodcentered;
position = "{408, 370}";
},
{
name = top;
position = "{238, 710}";
},
{
name = topright;
position = "{401, 468}";
}
);
background = {
paths = (
{
closed = 1;
nodes = (
"181 0 LINE",
"181 710 LINE",
"76 710 LINE",
"76 0 LINE"
);
},
{
closed = 1;
nodes = (
"516 0 LINE",
"516 90 LINE",
"148 90 LINE",
"148 0 LINE"
);
}
);
};
layerId = "6641C2CA-B9F9-47EE-AEEC-6BEE387D8CB9";
paths = (
{
closed = 1;
nodes = (
"165 0 LINE",
"290 710 LINE",
"185 710 LINE",
"60 0 LINE"
);
},
{
closed = 1;
nodes = (
"490 0 LINE",
"506 90 LINE",
"148 90 LINE",
"132 0 LINE"
);
}
);
width = 557;
}
);
leftMetricsKey = "=H";
unicode = 004C;
userData = {
RMXScaler = {
source = L;
};
};
},
{
color = 7;
glyphname = M;
lastChange = "2018-04-03 12:26:12 +0000";
layers = (
{
background = {
paths = (
{
closed = 1;
nodes = (
"731 710 LINE",
"472 68 LINE",
"467 68 LINE",
"206 710 LINE",
"120 710 LINE",
"120 0 LINE",
"172 0 LINE",
"172 645 LINE",
"177 645 LINE",
"438 0 LINE",
"497 0 LINE",
"758 645 LINE",
"763 645 LINE",
"763 0 LINE",
"817 0 LINE",
"817 710 LINE"
);
}
);
};
layerId = "CC363ACD-D5A5-4E19-A940-9AF36D109D9E";
paths = (
{
closed = 1;
nodes = (
"799 710 LINE",
"429 68 LINE",
"424 68 LINE",
"284 710 LINE",
"199 710 LINE",
"74 0 LINE",
"126 0 LINE",
"240 645 LINE",
"245 645 LINE",
"387 0 LINE",
"446 0 LINE",
"817 645 LINE",
"822 645 LINE",
"707 0 LINE",
"761 0 LINE",
"886 710 LINE"
);
}
);
width = 927;
},
{
background = {
paths = (
{
closed = 1;
nodes = (
"623 710 LINE",
"493 256 LINE",
"486 256 LINE",
"352 710 LINE",
"27 710 LINE",
"27 0 LINE",
"207 0 LINE",
"207 500 LINE",
"214 500 LINE",
"370 0 LINE",
"570 0 LINE",
"726 500 LINE",
"733 500 LINE",
"733 0 LINE",
"943 0 LINE",
"943 710 LINE"
);
}
);
};
layerId = "C1DA716A-5F29-4CD0-A38F-CCADF5849A80";
paths = (
{
closed = 1;
nodes = (
"735 710 LINE",
"523 266 LINE",
"516 266 LINE",
"469 710 LINE",
"149 710 LINE",
"23 0 LINE",
"203 0 LINE",
"292 500 LINE",
"299 500 LINE",
"361 0 LINE",
"561 0 LINE",
"801 500 LINE",
"808 500 LINE",
"719 0 LINE",
"929 0 LINE",
"1055 710 LINE"
);
}
);
width = 1047;
},
{
background = {
paths = (
{
closed = 1;
nodes = (
"732 710 LINE",
"511 125 LINE",
"505 125 LINE",
"279 710 LINE",
"115 710 LINE",
"115 0 LINE",
"210 0 LINE",
"210 598 LINE",
"217 598 LINE",
"449 0 LINE",
"552 0 LINE",
"784 598 LINE",
"791 598 LINE",
"791 0 LINE",
"894 0 LINE",
"894 710 LINE"
);
}
);
};
guideLines = (
{
angle = 80;
position = "{122, 353}";
}
);
layerId = "6641C2CA-B9F9-47EE-AEEC-6BEE387D8CB9";
paths = (
{
closed = 1;
nodes = (
"788 710 LINE",
"466 125 LINE",
"460 125 LINE",
"345 710 LINE",
"185 710 LINE",
"60 0 LINE",
"155 0 LINE",
"262 598 LINE",
"269 598 LINE",
"389 0 LINE",
"492 0 LINE",
"827 598 LINE",
"834 598 LINE",
"726 0 LINE",
"829 0 LINE",
"954 710 LINE"
);
}
);
width = 982;
}
);
leftMetricsKey = H;
rightMetricsKey = H;
unicode = 004D;
userData = {
RMXScaler = {
source = M;
};
};
},
{
color = 7;
glyphname = N;
lastChange = "2018-03-27 12:26:07 +0000";
layers = (
{
anchors = (
{
name = bottom;
position = "{344, 0}";
},
{
name = top;
position = "{460, 710}";
}
);
background = {
paths = (
{
closed = 1;
nodes = (
"616 98 LINE",
"169 710 LINE",
"120 710 LINE",
"120 0 LINE",
"172 0 LINE",
"172 612 LINE",
"176 612 LINE",
"623 0 LINE",
"672 0 LINE",
"672 710 LINE",
"620 710 LINE",
"620 98 LINE"
);
}
);
};
guideLines = (
{
angle = 80;
position = "{207, 459}";
}
);
layerId = "CC363ACD-D5A5-4E19-A940-9AF36D109D9E";
paths = (
{
closed = 1;
nodes = (
"74 0 LINE",
"126 0 LINE",
"234 613 LINE",
"238 613 LINE",
"567 0 LINE",
"616 0 LINE",
"741 710 LINE",
"689 710 LINE",
"581 97 LINE",
"577 97 LINE",
"248 710 LINE",
"199 710 LINE"
);
}
);
width = 782;
},
{
anchors = (
{
name = bottom;
position = "{361, 0}";
},
{
name = top;
position = "{473, 710}";
}
);
background = {
paths = (
{
closed = 1;
nodes = (
"556 289 LINE",
"309 710 LINE",
"70 710 LINE",
"70 0 LINE",
"255 0 LINE",
"255 423 LINE",
"262 423 LINE",
"510 0 LINE",
"748 0 LINE",
"748 710 LINE",
"563 710 LINE",
"563 289 LINE"
);
}
);
};
layerId = "C1DA716A-5F29-4CD0-A38F-CCADF5849A80";
paths = (
{
closed = 1;
nodes = (
"23 0 LINE",
"208 0 LINE",
"283 423 LINE",
"290 423 LINE",
"458 0 LINE",
"691 0 LINE",
"816 710 LINE",
"631 710 LINE",
"557 289 LINE",
"550 289 LINE",
"381 710 LINE",
"148 710 LINE"
);
}
);
width = 808;
},
{
anchors = (
{
name = bottom;
position = "{361, 0}";
},
{
name = top;
position = "{472, 710}";
}
);
background = {
paths = (
{
closed = 1;
nodes = (
"602 165 LINE",
"213 710 LINE",
"106 710 LINE",
"106 0 LINE",
"201 0 LINE",
"201 545 LINE",
"207 545 LINE",
"595 0 LINE",
"702 0 LINE",
"702 710 LINE",
"607 710 LINE",
"607 165 LINE"
);
}
);
};
guideLines = (
{
angle = 80;
position = "{625, 459}";
},
{
angle = 80;
position = "{236, 459}";
}
);
layerId = "6641C2CA-B9F9-47EE-AEEC-6BEE387D8CB9";
paths = (
{
closed = 1;
nodes = (
"60 0 LINE",
"155 0 LINE",
"251 547 LINE",
"256 547 LINE",
"539 0 LINE",
"639 0 LINE",
"764 710 LINE",
"669 710 LINE",
"573 163 LINE",
"568 163 LINE",
"285 710 LINE",
"185 710 LINE"
);
}
);
width = 792;
}
);
leftMetricsKey = "=H";
rightMetricsKey = "=H";
unicode = 004E;
userData = {
RMXScaler = {
source = N;
};
};
},
{
color = 7;
glyphname = O;
lastChange = "2018-05-11 07:01:35 +0000";
layers = (
{
anchors = (
{
name = bottom;
position = "{344, 0}";
},
{
name = top;
position = "{456, 710}";
}
);
background = {
paths = (
{
closed = 1;
nodes = (
"609 -15 OFFCURVE",
"731 123 OFFCURVE",
"731 355 CURVE SMOOTH",
"731 587 OFFCURVE",
"609 725 OFFCURVE",
"405 725 CURVE SMOOTH",
"201 725 OFFCURVE",
"79 587 OFFCURVE",
"79 355 CURVE SMOOTH",
"79 123 OFFCURVE",
"201 -15 OFFCURVE",
"405 -15 CURVE SMOOTH"
);
},
{
closed = 1;
nodes = (
"230 36 OFFCURVE",
"136 148 OFFCURVE",
"136 355 CURVE SMOOTH",
"136 562 OFFCURVE",
"230 674 OFFCURVE",
"405 674 CURVE SMOOTH",
"580 674 OFFCURVE",
"674 562 OFFCURVE",
"674 355 CURVE SMOOTH",
"674 148 OFFCURVE",
"580 36 OFFCURVE",
"405 36 CURVE SMOOTH"
);
}
);
};
guideLines = (
{
angle = 80;
position = "{406, 353}";
}
);
layerId = "CC363ACD-D5A5-4E19-A940-9AF36D109D9E";
paths = (
{
closed = 1;
nodes = (
"562 -15 OFFCURVE",
"683 104 OFFCURVE",
"723 337 CURVE SMOOTH",
"763 568 OFFCURVE",
"659 725 OFFCURVE",
"453 725 CURVE SMOOTH",
"251 725 OFFCURVE",
"130 606 OFFCURVE",
"90 373 CURVE SMOOTH",
"50 142 OFFCURVE",
"154 -15 OFFCURVE",
"360 -15 CURVE SMOOTH"
);
},
{
closed = 1;
nodes = (
"185 36 OFFCURVE",
"110 163 OFFCURVE",
"146 370 CURVE SMOOTH",
"182 577 OFFCURVE",
"278 674 OFFCURVE",
"448 674 CURVE SMOOTH",
"628 674 OFFCURVE",
"703 547 OFFCURVE",
"666 340 CURVE SMOOTH",
"629 133 OFFCURVE",
"535 36 OFFCURVE",
"365 36 CURVE SMOOTH"
);
}
);
width = 780;
},
{
anchors = (
{
name = bottom;
position = "{352, 0}";
},
{
name = top;
position = "{464, 710}";
}
);
background = {
paths = (
{
closed = 1;
nodes = (
"600 -15 OFFCURVE",
"732 107 OFFCURVE",
"774 345 CURVE SMOOTH",
"814 574 OFFCURVE",
"701 725 OFFCURVE",
"466 725 CURVE SMOOTH",
"231 725 OFFCURVE",
"98 603 OFFCURVE",
"56 365 CURVE SMOOTH",
"16 136 OFFCURVE",
"130 -15 OFFCURVE",
"365 -15 CURVE SMOOTH"
);
},
{
closed = 1;
nodes = (
"284 155 OFFCURVE",
"257 233 OFFCURVE",
"279 360 CURVE SMOOTH",
"300 482 OFFCURVE",
"345 555 OFFCURVE",
"443 555 CURVE SMOOTH",
"546 555 OFFCURVE",
"574 477 OFFCURVE",
"551 350 CURVE SMOOTH",
"529 228 OFFCURVE",
"485 155 OFFCURVE",
"387 155 CURVE SMOOTH"
);
}
);
};
guideLines = (
{
angle = 80;
position = "{774, 353}";
}
);
layerId = "C1DA716A-5F29-4CD0-A38F-CCADF5849A80";
paths = (
{
closed = 1;
nodes = (
"612 -15 OFFCURVE",
"731 102 OFFCURVE",
"771 330 CURVE SMOOTH",
"813 568 OFFCURVE",
"693 725 OFFCURVE",
"453 725 CURVE SMOOTH",
"218 725 OFFCURVE",
"98 598 OFFCURVE",
"60 380 CURVE SMOOTH",
"19 142 OFFCURVE",
"137 -15 OFFCURVE",
"377 -15 CURVE SMOOTH"
);
},
{
closed = 1;
nodes = (
"284 155 OFFCURVE",
"257 233 OFFCURVE",
"279 360 CURVE SMOOTH",
"300 482 OFFCURVE",
"340 555 OFFCURVE",
"438 555 CURVE SMOOTH",
"546 555 OFFCURVE",
"574 477 OFFCURVE",
"551 350 CURVE SMOOTH",
"529 228 OFFCURVE",
"490 155 OFFCURVE",
"392 155 CURVE SMOOTH"
);
}
);
width = 800;
},
{
anchors = (
{
name = bottom;
position = "{357, 0}";
},
{
name = top;
position = "{482, 710}";
}
);
associatedMasterId = "C1DA716A-5F29-4CD0-A38F-CCADF5849A80";
background = {
paths = (
{
closed = 1;
nodes = (
"646 -15 OFFCURVE",
"788 179 OFFCURVE",
"788 421 CURVE SMOOTH",
"788 604 OFFCURVE",
"673 725 OFFCURVE",
"465 725 CURVE SMOOTH",
"195 725 OFFCURVE",
"53 531 OFFCURVE",
"53 289 CURVE SMOOTH",
"53 106 OFFCURVE",
"168 -15 OFFCURVE",
"376 -15 CURVE SMOOTH"
);
},
{
closed = 1;
nodes = (
"311 158 OFFCURVE",
"276 217 OFFCURVE",
"276 297 CURVE SMOOTH",
"276 392 OFFCURVE",
"320 552 OFFCURVE",
"455 552 CURVE SMOOTH",
"530 552 OFFCURVE",
"565 493 OFFCURVE",
"565 413 CURVE SMOOTH",
"565 318 OFFCURVE",
"521 158 OFFCURVE",
"386 158 CURVE SMOOTH"
);
}
);
};
layerId = "24ECF26C-6CC0-429B-8953-F6EE04B07353";
name = "Oct 6 17, 13:09";
paths = (
{
closed = 1;
nodes = (
"659 -15 OFFCURVE",
"785 179 OFFCURVE",
"784 439 CURVE SMOOTH",
"783 604 OFFCURVE",
"680 725 OFFCURVE",
"465 725 CURVE SMOOTH",
"182 725 OFFCURVE",
"55 531 OFFCURVE",
"57 271 CURVE SMOOTH",
"58 106 OFFCURVE",
"161 -15 OFFCURVE",
"376 -15 CURVE SMOOTH"
);
},
{
closed = 1;
nodes = (
"309 158 OFFCURVE",
"278 205 OFFCURVE",
"279 282 CURVE SMOOTH",
"281 438 OFFCURVE",
"330 552 OFFCURVE",
"449 552 CURVE SMOOTH",
"532 552 OFFCURVE",
"563 505 OFFCURVE",
"562 428 CURVE SMOOTH",
"560 272 OFFCURVE",
"511 158 OFFCURVE",
"392 158 CURVE SMOOTH"
);
}
);
width = 810;
},
{
anchors = (
{
name = bottom;
position = "{350, 0}";
},
{
name = top;
position = "{475, 710}";
}
);
associatedMasterId = "CC363ACD-D5A5-4E19-A940-9AF36D109D9E";
background = {
paths = (
{
closed = 1;
nodes = (
"621 -15 OFFCURVE",
"743 224 OFFCURVE",
"743 428 CURVE SMOOTH",
"743 601 OFFCURVE",
"645 725 OFFCURVE",
"465 725 CURVE SMOOTH",
"205 725 OFFCURVE",
"83 486 OFFCURVE",
"83 282 CURVE SMOOTH",
"83 109 OFFCURVE",
"181 -15 OFFCURVE",
"361 -15 CURVE SMOOTH"
);
},
{
closed = 1;
nodes = (
"218 39 OFFCURVE",
"144 140 OFFCURVE",
"144 282 CURVE SMOOTH",
"144 456 OFFCURVE",
"235 671 OFFCURVE",
"462 671 CURVE SMOOTH",
"608 671 OFFCURVE",
"682 570 OFFCURVE",
"682 428 CURVE SMOOTH",
"682 254 OFFCURVE",
"591 39 OFFCURVE",
"364 39 CURVE SMOOTH"
);
}
);
};
layerId = "2790E82D-5D22-4FBA-9FD8-74AE5A497A95";
name = "Oct 6 17, 14:20";
paths = (
{
closed = 1;
nodes = (
"621 -15 OFFCURVE",
"743 224 OFFCURVE",
"743 428 CURVE SMOOTH",
"743 601 OFFCURVE",
"645 725 OFFCURVE",
"465 725 CURVE SMOOTH",
"205 725 OFFCURVE",
"83 486 OFFCURVE",
"83 282 CURVE SMOOTH",
"83 109 OFFCURVE",
"181 -15 OFFCURVE",
"361 -15 CURVE SMOOTH"
);
},
{
closed = 1;
nodes = (
"218 39 OFFCURVE",
"144 140 OFFCURVE",
"144 282 CURVE SMOOTH",
"144 456 OFFCURVE",
"235 671 OFFCURVE",
"462 671 CURVE SMOOTH",
"608 671 OFFCURVE",
"682 570 OFFCURVE",
"682 428 CURVE SMOOTH",
"682 254 OFFCURVE",
"591 39 OFFCURVE",
"364 39 CURVE SMOOTH"
);
}
);
width = 792;
},
{
anchors = (
{
name = bottom;
position = "{350, 0}";
},
{
name = top;
position = "{475, 710}";
}
);
associatedMasterId = "CC363ACD-D5A5-4E19-A940-9AF36D109D9E";
background = {
paths = (
{
closed = 1;
nodes = (
"621 -15 OFFCURVE",
"743 224 OFFCURVE",
"743 428 CURVE SMOOTH",
"743 601 OFFCURVE",
"645 725 OFFCURVE",
"465 725 CURVE SMOOTH",
"205 725 OFFCURVE",
"83 486 OFFCURVE",
"83 282 CURVE SMOOTH",
"83 109 OFFCURVE",
"181 -15 OFFCURVE",
"361 -15 CURVE SMOOTH"
);
},
{
closed = 1;
nodes = (
"218 39 OFFCURVE",
"144 140 OFFCURVE",
"144 282 CURVE SMOOTH",
"144 456 OFFCURVE",
"235 671 OFFCURVE",
"462 671 CURVE SMOOTH",
"608 671 OFFCURVE",
"682 570 OFFCURVE",
"682 428 CURVE SMOOTH",
"682 254 OFFCURVE",
"591 39 OFFCURVE",
"364 39 CURVE SMOOTH"
);
}
);
};
layerId = "5E732E0B-540D-490C-B219-113A1CF9EE32";
name = "Oct 6 17, 14:24";
paths = (
{
closed = 1;
nodes = (
"171 -15 OFFCURVE",
"78 109 OFFCURVE",
"83 280 CURVE SMOOTH",
"89 486 OFFCURVE",
"201 725 OFFCURVE",
"465 725 CURVE SMOOTH",
"655 725 OFFCURVE",
"748 601 OFFCURVE",
"743 430 CURVE SMOOTH",
"737 224 OFFCURVE",
"625 -15 OFFCURVE",
"361 -15 CURVE SMOOTH"
);
},
{
closed = 1;
nodes = (
"233 671 OFFCURVE",
"150 456 OFFCURVE",
"144 278 CURVE SMOOTH",
"139 140 OFFCURVE",
"208 39 OFFCURVE",
"364 39 CURVE SMOOTH",
"593 39 OFFCURVE",
"676 254 OFFCURVE",
"682 432 CURVE SMOOTH",
"687 570 OFFCURVE",
"618 671 OFFCURVE",
"462 671 CURVE SMOOTH"
);
}
);
width = 792;
},
{
anchors = (
{
name = bottom;
position = "{345, 0}";
},
{
name = top;
position = "{460, 710}";
}
);
background = {
paths = (
{
closed = 1;
nodes = (
"613 -15 OFFCURVE",
"739 121 OFFCURVE",
"739 355 CURVE SMOOTH",
"739 589 OFFCURVE",
"613 725 OFFCURVE",
"396 725 CURVE SMOOTH",
"180 725 OFFCURVE",
"54 589 OFFCURVE",
"54 355 CURVE SMOOTH",
"54 121 OFFCURVE",
"180 -15 OFFCURVE",
"396 -15 CURVE SMOOTH"
);
},
{
closed = 1;
nodes = (
"243 76 OFFCURVE",
"161 172 OFFCURVE",
"161 355 CURVE SMOOTH",
"161 538 OFFCURVE",
"243 634 OFFCURVE",
"396 634 CURVE SMOOTH",
"550 634 OFFCURVE",
"632 538 OFFCURVE",
"632 355 CURVE SMOOTH",
"632 172 OFFCURVE",
"550 76 OFFCURVE",
"396 76 CURVE SMOOTH"
);
}
);
};
guideLines = (
{
angle = 80;
position = "{71, 353}";
}
);
layerId = "6641C2CA-B9F9-47EE-AEEC-6BEE387D8CB9";
paths = (
{
closed = 1;
nodes = (
"573 -15 OFFCURVE",
"700 101 OFFCURVE",
"741 335 CURVE SMOOTH",
"782 569 OFFCURVE",
"674 725 OFFCURVE",
"454 725 CURVE SMOOTH",
"243 725 OFFCURVE",
"117 609 OFFCURVE",
"75 375 CURVE SMOOTH",
"33 141 OFFCURVE",
"142 -15 OFFCURVE",
"361 -15 CURVE SMOOTH"
);
},
{
closed = 1;
nodes = (
"210 76 OFFCURVE",
"148 187 OFFCURVE",
"180 370 CURVE SMOOTH",
"212 553 OFFCURVE",
"296 634 OFFCURVE",
"444 634 CURVE SMOOTH",
"606 634 OFFCURVE",
"669 523 OFFCURVE",
"636 340 CURVE SMOOTH",
"603 157 OFFCURVE",
"520 76 OFFCURVE",
"371 76 CURVE SMOOTH"
);
}
);
width = 783;
}
);
unicode = 004F;
userData = {
RMXScaler = {
source = O;
};
};
},
{
color = 7;
glyphname = P;
lastChange = "2018-03-02 17:23:25 +0000";
layers = (
{
background = {
paths = (
{
closed = 1;
nodes = (
"175 0 LINE",
"175 710 LINE",
"120 710 LINE",
"120 0 LINE"
);
},
{
closed = 1;
nodes = (
"160 347 LINE",
"160 299 LINE",
"390 299 LINE SMOOTH",
"547 299 OFFCURVE",
"629 365 OFFCURVE",
"629 505 CURVE SMOOTH",
"629 645 OFFCURVE",
"547 710 OFFCURVE",
"390 710 CURVE SMOOTH",
"160 710 LINE",
"160 661 LINE",
"378 661 LINE SMOOTH",
"526 661 OFFCURVE",
"575 614 OFFCURVE",
"575 504 CURVE SMOOTH",
"575 394 OFFCURVE",
"526 347 OFFCURVE",
"378 347 CURVE SMOOTH"
);
}
);
};
layerId = "CC363ACD-D5A5-4E19-A940-9AF36D109D9E";
paths = (
{
closed = 1;
nodes = (
"129 0 LINE",
"255 710 LINE",
"200 710 LINE",
"74 0 LINE"
);
},
{
closed = 1;
nodes = (
"176 347 LINE",
"167 299 LINE",
"387 299 LINE SMOOTH",
"565 299 OFFCURVE",
"667 365 OFFCURVE",
"667 529 CURVE SMOOTH",
"667 648 OFFCURVE",
"586 710 OFFCURVE",
"441 710 CURVE SMOOTH",
"240 710 LINE",
"231 661 LINE",
"436 661 LINE SMOOTH",
"561 661 OFFCURVE",
"613 618 OFFCURVE",
"613 529 CURVE SMOOTH",
"613 390 OFFCURVE",
"530 347 OFFCURVE",
"392 347 CURVE SMOOTH"
);
}
);
width = 670;
},
{
background = {
paths = (
{
closed = 1;
nodes = (
"290 0 LINE",
"290 710 LINE",
"70 710 LINE",
"70 0 LINE"
);
},
{
closed = 1;
nodes = (
"271 380 LINE",
"271 227 LINE",
"447 227 LINE SMOOTH",
"638 227 OFFCURVE",
"721 315 OFFCURVE",
"721 464 CURVE SMOOTH",
"721 622 OFFCURVE",
"638 710 OFFCURVE",
"456 710 CURVE SMOOTH",
"271 710 LINE",
"271 550 LINE",
"407 550 LINE SMOOTH",
"476 550 OFFCURVE",
"503 527 OFFCURVE",
"503 467 CURVE SMOOTH",
"503 405 OFFCURVE",
"476 380 OFFCURVE",
"407 380 CURVE SMOOTH"
);
}
);
};
layerId = "C1DA716A-5F29-4CD0-A38F-CCADF5849A80";
paths = (
{
closed = 1;
nodes = (
"243 0 LINE",
"369 710 LINE",
"149 710 LINE",
"23 0 LINE"
);
},
{
closed = 1;
nodes = (
"292 380 LINE",
"264 227 LINE",
"421 227 LINE SMOOTH",
"625 227 OFFCURVE",
"745 298 OFFCURVE",
"745 493 CURVE SMOOTH",
"745 633 OFFCURVE",
"649 710 OFFCURVE",
"483 710 CURVE SMOOTH",
"350 710 LINE",
"322 550 LINE",
"438 550 LINE SMOOTH",
"497 550 OFFCURVE",
"532 533 OFFCURVE",
"532 483 CURVE SMOOTH",
"532 415 OFFCURVE",
"500 380 OFFCURVE",
"413 380 CURVE SMOOTH"
);
}
);
width = 737;
},
{
background = {
paths = (
{
closed = 1;
nodes = (
"211 0 LINE",
"211 710 LINE",
"106 710 LINE",
"106 0 LINE"
);
},
{
closed = 1;
nodes = (
"192 363 LINE",
"192 275 LINE",
"404 275 LINE SMOOTH",
"578 275 OFFCURVE",
"656 352 OFFCURVE",
"656 493 CURVE SMOOTH",
"656 635 OFFCURVE",
"578 710 OFFCURVE",
"406 710 CURVE SMOOTH",
"192 710 LINE",
"192 622 LINE",
"381 622 LINE SMOOTH",
"507 622 OFFCURVE",
"553 590 OFFCURVE",
"553 493 CURVE SMOOTH",
"553 397 OFFCURVE",
"507 363 OFFCURVE",
"380 363 CURVE SMOOTH"
);
}
);
};
layerId = "6641C2CA-B9F9-47EE-AEEC-6BEE387D8CB9";
paths = (
{
closed = 1;
nodes = (
"164 0 LINE",
"290 710 LINE",
"185 710 LINE",
"59 0 LINE"
);
},
{
closed = 1;
nodes = (
"210 363 LINE",
"194 275 LINE",
"395 275 LINE SMOOTH",
"584 275 OFFCURVE",
"688 344 OFFCURVE",
"689 512 CURVE SMOOTH",
"690 632 OFFCURVE",
"612 710 OFFCURVE",
"454 710 CURVE SMOOTH",
"272 710 LINE",
"255 622 LINE",
"439 622 LINE SMOOTH",
"541 622 OFFCURVE",
"587 588 OFFCURVE",
"587 512 CURVE SMOOTH",
"587 401 OFFCURVE",
"529 363 OFFCURVE",
"403 363 CURVE SMOOTH"
);
}
);
width = 690;
}
);
leftMetricsKey = H;
unicode = 0050;
userData = {
RMXScaler = {
source = P;
};
};
},
{
color = 7;
glyphname = Q;
lastChange = "2018-04-03 12:45:35 +0000";
layers = (
{
background = {
paths = (
{
closed = 1;
nodes = (
"553 -15 OFFCURVE",
"686 114 OFFCURVE",
"727 347 CURVE SMOOTH",
"768 578 OFFCURVE",
"660 725 OFFCURVE",
"464 725 CURVE SMOOTH",
"262 725 OFFCURVE",
"129 596 OFFCURVE",
"88 363 CURVE SMOOTH",
"47 132 OFFCURVE",
"155 -15 OFFCURVE",
"351 -15 CURVE SMOOTH"
);
},
{
closed = 1;
nodes = (
"186 36 OFFCURVE",
"108 153 OFFCURVE",
"144 360 CURVE SMOOTH",
"180 567 OFFCURVE",
"289 674 OFFCURVE",
"459 674 CURVE SMOOTH",
"629 674 OFFCURVE",
"707 557 OFFCURVE",
"670 350 CURVE SMOOTH",
"633 143 OFFCURVE",
"526 36 OFFCURVE",
"356 36 CURVE SMOOTH"
);
},
{
closed = 1;
nodes = (
"613 -106 LINE",
"517 44 LINE",
"512 44 LINE",
"404 213 LINE",
"345 213 LINE",
"472 17 LINE",
"477 17 LINE",
"555 -106 LINE"
);
}
);
};
layerId = "CC363ACD-D5A5-4E19-A940-9AF36D109D9E";
paths = (
{
closed = 1;
nodes = (
"562 -15 OFFCURVE",
"682 104 OFFCURVE",
"723 337 CURVE SMOOTH",
"764 568 OFFCURVE",
"659 725 OFFCURVE",
"453 725 CURVE SMOOTH",
"251 725 OFFCURVE",
"131 606 OFFCURVE",
"90 373 CURVE SMOOTH",
"49 142 OFFCURVE",
"154 -15 OFFCURVE",
"360 -15 CURVE SMOOTH"
);
},
{
closed = 1;
nodes = (
"185 36 OFFCURVE",
"110 163 OFFCURVE",
"146 370 CURVE SMOOTH",
"182 577 OFFCURVE",
"278 674 OFFCURVE",
"448 674 CURVE SMOOTH",
"628 674 OFFCURVE",
"703 547 OFFCURVE",
"666 340 CURVE SMOOTH",
"629 133 OFFCURVE",
"535 36 OFFCURVE",
"365 36 CURVE SMOOTH"
);
},
{
closed = 1;
nodes = (
"613 -106 LINE",
"517 44 LINE",
"512 44 LINE",
"404 213 LINE",
"345 213 LINE",
"472 17 LINE",
"477 17 LINE",
"555 -106 LINE"
);
}
);
width = 780;
},
{
background = {
paths = (
{
closed = 1;
nodes = (
"601 -15 OFFCURVE",
"733 107 OFFCURVE",
"775 345 CURVE SMOOTH",
"815 574 OFFCURVE",
"702 725 OFFCURVE",
"467 725 CURVE SMOOTH",
"232 725 OFFCURVE",
"99 603 OFFCURVE",
"57 365 CURVE SMOOTH",
"17 136 OFFCURVE",
"131 -15 OFFCURVE",
"366 -15 CURVE SMOOTH"
);
},
{
closed = 1;
nodes = (
"285 155 OFFCURVE",
"258 233 OFFCURVE",
"280 360 CURVE SMOOTH",
"301 482 OFFCURVE",
"346 555 OFFCURVE",
"444 555 CURVE SMOOTH",
"547 555 OFFCURVE",
"575 477 OFFCURVE",
"552 350 CURVE SMOOTH",
"530 228 OFFCURVE",
"486 155 OFFCURVE",
"388 155 CURVE SMOOTH"
);
},
{
closed = 1;
nodes = (
"680 -88 LINE",
"575 112 LINE",
"543 112 LINE",
"478 262 LINE",
"323 262 LINE",
"425 34 LINE",
"447 34 LINE",
"509 -88 LINE"
);
}
);
};
layerId = "C1DA716A-5F29-4CD0-A38F-CCADF5849A80";
paths = (
{
closed = 1;
nodes = (
"612 -15 OFFCURVE",
"731 102 OFFCURVE",
"771 330 CURVE SMOOTH",
"813 568 OFFCURVE",
"693 725 OFFCURVE",
"453 725 CURVE SMOOTH",
"218 725 OFFCURVE",
"98 598 OFFCURVE",
"60 380 CURVE SMOOTH",
"19 142 OFFCURVE",
"137 -15 OFFCURVE",
"377 -15 CURVE SMOOTH"
);
},
{
closed = 1;
nodes = (
"284 155 OFFCURVE",
"257 233 OFFCURVE",
"279 360 CURVE SMOOTH",
"300 482 OFFCURVE",
"340 555 OFFCURVE",
"438 555 CURVE SMOOTH",
"546 555 OFFCURVE",
"574 477 OFFCURVE",
"551 350 CURVE SMOOTH",
"529 228 OFFCURVE",
"490 155 OFFCURVE",
"392 155 CURVE SMOOTH"
);
},
{
closed = 1;
nodes = (
"680 -88 LINE",
"575 112 LINE",
"543 112 LINE",
"478 262 LINE",
"323 262 LINE",
"425 34 LINE",
"447 34 LINE",
"509 -88 LINE"
);
}
);
width = 800;
},
{
background = {
paths = (
{
closed = 1;
nodes = (
"564 -15 OFFCURVE",
"703 111 OFFCURVE",
"744 345 CURVE SMOOTH",
"785 579 OFFCURVE",
"675 725 OFFCURVE",
"465 725 CURVE SMOOTH",
"254 725 OFFCURVE",
"115 599 OFFCURVE",
"73 365 CURVE SMOOTH",
"31 131 OFFCURVE",
"143 -15 OFFCURVE",
"352 -15 CURVE SMOOTH"
);
},
{
closed = 1;
nodes = (
"211 76 OFFCURVE",
"147 177 OFFCURVE",
"179 360 CURVE SMOOTH",
"211 543 OFFCURVE",
"307 634 OFFCURVE",
"455 634 CURVE SMOOTH",
"607 634 OFFCURVE",
"671 533 OFFCURVE",
"638 350 CURVE SMOOTH",
"605 167 OFFCURVE",
"511 76 OFFCURVE",
"362 76 CURVE SMOOTH"
);
},
{
closed = 1;
nodes = (
"654 -101 LINE",
"548 69 LINE",
"534 69 LINE",
"443 226 LINE",
"344 226 LINE",
"463 18 LINE",
"478 18 LINE",
"551 -101 LINE"
);
}
);
};
layerId = "6641C2CA-B9F9-47EE-AEEC-6BEE387D8CB9";
paths = (
{
closed = 1;
nodes = (
"573 -15 OFFCURVE",
"700 101 OFFCURVE",
"741 335 CURVE SMOOTH",
"782 569 OFFCURVE",
"674 725 OFFCURVE",
"454 725 CURVE SMOOTH",
"243 725 OFFCURVE",
"117 609 OFFCURVE",
"75 375 CURVE SMOOTH",
"33 141 OFFCURVE",
"142 -15 OFFCURVE",
"361 -15 CURVE SMOOTH"
);
},
{
closed = 1;
nodes = (
"210 76 OFFCURVE",
"148 187 OFFCURVE",
"180 370 CURVE SMOOTH",
"212 553 OFFCURVE",
"296 634 OFFCURVE",
"444 634 CURVE SMOOTH",
"606 634 OFFCURVE",
"669 523 OFFCURVE",
"636 340 CURVE SMOOTH",
"603 157 OFFCURVE",
"520 76 OFFCURVE",
"371 76 CURVE SMOOTH"
);
},
{
closed = 1;
nodes = (
"654 -101 LINE",
"548 69 LINE",
"534 69 LINE",
"443 226 LINE",
"344 226 LINE",
"463 18 LINE",
"478 18 LINE",
"551 -101 LINE"
);
}
);
width = 783;
}
);
leftMetricsKey = O;
rightMetricsKey = O;
unicode = 0051;
userData = {
RMXScaler = {
source = Q;
};
};
},
{
color = 7;
glyphname = R;
lastChange = "2018-05-18 22:47:55 +0000";
layers = (
{
anchors = (
{
name = bottom;
position = "{309, 0}";
},
{
name = top;
position = "{392, 710}";
}
);
background = {
paths = (
{
closed = 1;
nodes = (
"174 362 LINE",
"166 314 LINE",
"389 314 LINE SMOOTH",
"561 314 OFFCURVE",
"659 377 OFFCURVE",
"659 534 CURVE SMOOTH",
"659 644 OFFCURVE",
"586 710 OFFCURVE",
"457 710 CURVE SMOOTH",
"236 710 LINE",
"227 661 LINE",
"447 661 LINE SMOOTH",
"561 661 OFFCURVE",
"606 619 OFFCURVE",
"606 529 CURVE SMOOTH",
"606 407 OFFCURVE",
"536 362 OFFCURVE",
"399 362 CURVE SMOOTH"
);
},
{
closed = 1;
nodes = (
"570 0 LINE",
"364 328 LINE",
"304 328 LINE",
"510 0 LINE"
);
},
{
closed = 1;
nodes = (
"129 0 LINE",
"255 710 LINE",
"200 710 LINE",
"74 0 LINE"
);
}
);
};
layerId = "CC363ACD-D5A5-4E19-A940-9AF36D109D9E";
paths = (
{
closed = 1;
nodes = (
"129 0 LINE",
"255 710 LINE",
"200 710 LINE",
"74 0 LINE"
);
},
{
closed = 1;
nodes = (
"659 644 OFFCURVE",
"586 710 OFFCURVE",
"457 710 CURVE SMOOTH",
"236 710 LINE",
"227 661 LINE",
"447 661 LINE SMOOTH",
"561 661 OFFCURVE",
"606 619 OFFCURVE",
"606 529 CURVE SMOOTH",
"606 407 OFFCURVE",
"536 362 OFFCURVE",
"399 362 CURVE SMOOTH",
"174 362 LINE",
"166 314 LINE",
"255 314 LINE",
"313 314 LINE",
"323 298 OFFCURVE",
"333 282 OFFCURVE",
"343 266 CURVE SMOOTH",
"510 0 LINE",
"570 0 LINE",
"360 335 LINE",
"348 314 LINE",
"389 314 LINE SMOOTH",
"561 314 OFFCURVE",
"659 377 OFFCURVE",
"659 534 CURVE SMOOTH"
);
}
);
width = 686;
},
{
anchors = (
{
name = bottom;
position = "{335, 0}";
},
{
name = top;
position = "{418, 710}";
}
);
background = {
paths = (
{
closed = 1;
nodes = (
"293 393 LINE",
"267 249 LINE",
"420 249 LINE SMOOTH",
"621 249 OFFCURVE",
"744 320 OFFCURVE",
"744 506 CURVE SMOOTH",
"744 638 OFFCURVE",
"654 710 OFFCURVE",
"495 710 CURVE SMOOTH",
"349 710 LINE",
"321 551 LINE",
"449 551 LINE SMOOTH",
"510 551 OFFCURVE",
"534 525 OFFCURVE",
"534 484 CURVE SMOOTH",
"534 417 OFFCURVE",
"495 393 OFFCURVE",
"420 393 CURVE SMOOTH"
);
},
{
closed = 1;
nodes = (
"674 0 LINE",
"521 320 LINE",
"308 320 LINE",
"446 0 LINE"
);
},
{
closed = 1;
nodes = (
"242 0 LINE",
"368 710 LINE",
"149 710 LINE",
"23 0 LINE"
);
}
);
};
layerId = "C1DA716A-5F29-4CD0-A38F-CCADF5849A80";
paths = (
{
closed = 1;
nodes = (
"242 0 LINE",
"368 710 LINE",
"149 710 LINE",
"23 0 LINE"
);
},
{
closed = 1;
nodes = (
"744 638 OFFCURVE",
"654 710 OFFCURVE",
"495 710 CURVE SMOOTH",
"349 710 LINE",
"321 551 LINE",
"449 551 LINE SMOOTH",
"510 551 OFFCURVE",
"534 525 OFFCURVE",
"534 484 CURVE SMOOTH",
"534 417 OFFCURVE",
"495 393 OFFCURVE",
"420 393 CURVE SMOOTH",
"293 393 LINE",
"267 249 LINE",
"309 249 LINE",
"339 249 LINE",
"344 238 OFFCURVE",
"348 228 OFFCURVE",
"353 217 CURVE SMOOTH",
"446 0 LINE",
"674 0 LINE",
"508 347 LINE",
"466 259 LINE",
"511 259 LINE SMOOTH",
"653 259 OFFCURVE",
"744 354 OFFCURVE",
"744 506 CURVE SMOOTH"
);
}
);
width = 743;
},
{
anchors = (
{
name = bottom;
position = "{318, 0}";
},
{
name = top;
position = "{398, 710}";
}
);
background = {
paths = (
{
closed = 1;
nodes = (
"212 375 LINE",
"198 291 LINE",
"391 291 LINE SMOOTH",
"577 291 OFFCURVE",
"690 353 OFFCURVE",
"690 528 CURVE SMOOTH",
"689 637 OFFCURVE",
"616 710 OFFCURVE",
"473 710 CURVE SMOOTH",
"272 710 LINE",
"256 622 LINE",
"453 622 LINE SMOOTH",
"546 622 OFFCURVE",
"588 584 OFFCURVE",
"588 518 CURVE SMOOTH",
"588 404 OFFCURVE",
"521 375 OFFCURVE",
"400 375 CURVE SMOOTH"
);
},
{
closed = 1;
nodes = (
"600 0 LINE",
"417 330 LINE",
"306 330 LINE",
"487 0 LINE"
);
},
{
closed = 1;
nodes = (
"164 0 LINE",
"290 710 LINE",
"185 710 LINE",
"59 0 LINE"
);
}
);
};
layerId = "6641C2CA-B9F9-47EE-AEEC-6BEE387D8CB9";
paths = (
{
closed = 1;
nodes = (
"164 0 LINE",
"290 710 LINE",
"185 710 LINE",
"59 0 LINE"
);
},
{
closed = 1;
nodes = (
"689 637 OFFCURVE",
"616 710 OFFCURVE",
"473 710 CURVE SMOOTH",
"272 710 LINE",
"256 622 LINE",
"453 622 LINE SMOOTH",
"546 622 OFFCURVE",
"588 584 OFFCURVE",
"588 518 CURVE SMOOTH",
"588 404 OFFCURVE",
"521 375 OFFCURVE",
"400 375 CURVE SMOOTH",
"212 375 LINE",
"198 291 LINE",
"279 291 LINE",
"327 291 LINE",
"334 278 OFFCURVE",
"341 266 OFFCURVE",
"348 253 CURVE SMOOTH",
"487 0 LINE",
"600 0 LINE",
"416 331 LINE",
"400 295 LINE",
"423 295 LINE SMOOTH",
"590 295 OFFCURVE",
"690 363 OFFCURVE",
"690 528 CURVE"
);
}
);
width = 714;
}
);
leftMetricsKey = H;
unicode = 0052;
userData = {
RMXScaler = {
source = R;
};
};
},
{
color = 7;
glyphname = S;
lastChange = "2018-04-03 12:47:38 +0000";
layers = (
{
anchors = (
{
name = bottom;
position = "{306, 0}";
},
{
name = top;
position = "{393, 710}";
}
);
background = {
anchors = (
{
name = bottom;
position = "{303, 0}";
},
{
name = top;
position = "{382, 710}";
}
);
paths = (
{
closed = 1;
nodes = (
"463 -15 OFFCURVE",
"569 59 OFFCURVE",
"569 197 CURVE SMOOTH",
"569 296 OFFCURVE",
"505 350 OFFCURVE",
"400 375 CURVE SMOOTH",
"315 395 LINE SMOOTH",
"233 414 OFFCURVE",
"196 455 OFFCURVE",
"196 521 CURVE SMOOTH",
"196 618 OFFCURVE",
"263 674 OFFCURVE",
"381 674 CURVE SMOOTH",
"500 674 OFFCURVE",
"559 638 OFFCURVE",
"561 530 CURVE",
"619 534 LINE",
"618 665 OFFCURVE",
"540 725 OFFCURVE",
"383 725 CURVE SMOOTH",
"233 725 OFFCURVE",
"137 648 OFFCURVE",
"137 516 CURVE SMOOTH",
"137 423 OFFCURVE",
"191 367 OFFCURVE",
"297 342 CURVE SMOOTH",
"381 322 LINE SMOOTH",
"466 302 OFFCURVE",
"510 265 OFFCURVE",
"510 192 CURVE SMOOTH",
"510 89 OFFCURVE",
"433 36 OFFCURVE",
"305 36 CURVE SMOOTH",
"180 36 OFFCURVE",
"114 77 OFFCURVE",
"113 175 CURVE",
"55 171 LINE",
"55 41 OFFCURVE",
"144 -15 OFFCURVE",
"303 -15 CURVE SMOOTH"
);
}
);
};
layerId = "CC363ACD-D5A5-4E19-A940-9AF36D109D9E";
paths = (
{
closed = 1;
nodes = (
"450 -15 OFFCURVE",
"546 45 OFFCURVE",
"567 163 CURVE SMOOTH",
"589 288 OFFCURVE",
"523 345 OFFCURVE",
"403 373 CURVE SMOOTH",
"316 393 LINE SMOOTH",
"216 416 OFFCURVE",
"180 465 OFFCURVE",
"194 545 CURVE SMOOTH",
"210 634 OFFCURVE",
"273 676 OFFCURVE",
"389 676 CURVE SMOOTH",
"511 676 OFFCURVE",
"565 635 OFFCURVE",
"568 528 CURVE",
"621 531 LINE",
"618 665 OFFCURVE",
"539 725 OFFCURVE",
"394 725 CURVE SMOOTH",
"250 725 OFFCURVE",
"161 663 OFFCURVE",
"141 552 CURVE SMOOTH",
"122 446 OFFCURVE",
"174 375 OFFCURVE",
"295 346 CURVE SMOOTH",
"382 325 LINE SMOOTH",
"482 301 OFFCURVE",
"530 268 OFFCURVE",
"513 169 CURVE SMOOTH",
"497 76 OFFCURVE",
"422 34 OFFCURVE",
"306 34 CURVE SMOOTH",
"172 34 OFFCURVE",
"112 82 OFFCURVE",
"109 182 CURVE",
"55 179 LINE",
"59 53 OFFCURVE",
"136 -15 OFFCURVE",
"301 -15 CURVE SMOOTH"
);
}
);
width = 657;
},
{
anchors = (
{
name = bottom;
position = "{332, 0}";
},
{
name = top;
position = "{410, 710}";
}
);
background = {
paths = (
{
closed = 1;
nodes = (
"536 -15 OFFCURVE",
"636 49 OFFCURVE",
"662 197 CURVE SMOOTH",
"684 321 OFFCURVE",
"628 392 OFFCURVE",
"469 430 CURVE SMOOTH",
"386 450 LINE SMOOTH",
"323 465 OFFCURVE",
"300 482 OFFCURVE",
"307 520 CURVE SMOOTH",
"313 555 OFFCURVE",
"351 566 OFFCURVE",
"400 566 CURVE SMOOTH",
"484 566 OFFCURVE",
"503 535 OFFCURVE",
"505 484 CURVE",
"706 494 LINE",
"702 632 OFFCURVE",
"615 725 OFFCURVE",
"415 725 CURVE SMOOTH",
"216 725 OFFCURVE",
"120 653 OFFCURVE",
"97 523 CURVE SMOOTH",
"73 389 OFFCURVE",
"155 307 OFFCURVE",
"288 276 CURVE SMOOTH",
"378 255 LINE SMOOTH",
"438 241 OFFCURVE",
"457 225 OFFCURVE",
"451 192 CURVE SMOOTH",
"444 155 OFFCURVE",
"408 144 OFFCURVE",
"351 144 CURVE SMOOTH",
"278 144 OFFCURVE",
"238 164 OFFCURVE",
"236 228 CURVE",
"31 218 LINE",
"25 81 OFFCURVE",
"115 -15 OFFCURVE",
"336 -15 CURVE SMOOTH"
);
}
);
};
guideLines = (
{
angle = 80;
position = "{689, 353}";
}
);
layerId = "C1DA716A-5F29-4CD0-A38F-CCADF5849A80";
paths = (
{
closed = 1;
nodes = (
"516 -15 OFFCURVE",
"634 39 OFFCURVE",
"660 187 CURVE SMOOTH",
"682 311 OFFCURVE",
"628 392 OFFCURVE",
"469 430 CURVE SMOOTH",
"386 450 LINE SMOOTH",
"323 465 OFFCURVE",
"300 482 OFFCURVE",
"307 520 CURVE SMOOTH",
"313 555 OFFCURVE",
"351 566 OFFCURVE",
"400 566 CURVE SMOOTH",
"484 566 OFFCURVE",
"503 535 OFFCURVE",
"505 484 CURVE",
"706 494 LINE",
"702 632 OFFCURVE",
"615 725 OFFCURVE",
"415 725 CURVE SMOOTH",
"216 725 OFFCURVE",
"120 653 OFFCURVE",
"97 523 CURVE SMOOTH",
"73 389 OFFCURVE",
"155 307 OFFCURVE",
"288 276 CURVE SMOOTH",
"378 255 LINE SMOOTH",
"438 241 OFFCURVE",
"457 225 OFFCURVE",
"451 192 CURVE SMOOTH",
"444 155 OFFCURVE",
"408 144 OFFCURVE",
"351 144 CURVE SMOOTH",
"278 144 OFFCURVE",
"238 164 OFFCURVE",
"236 228 CURVE",
"31 218 LINE",
"25 81 OFFCURVE",
"115 -15 OFFCURVE",
"336 -15 CURVE SMOOTH"
);
}
);
width = 714;
},
{
anchors = (
{
name = bottom;
position = "{310, 0}";
},
{
name = top;
position = "{398, 710}";
}
);
background = {
anchors = (
{
name = bottom;
position = "{309, 0}";
},
{
name = top;
position = "{394, 710}";
}
);
paths = (
{
closed = 1;
nodes = (
"484 -15 OFFCURVE",
"599 54 OFFCURVE",
"599 211 CURVE SMOOTH",
"599 306 OFFCURVE",
"541 367 OFFCURVE",
"420 392 CURVE SMOOTH",
"341 408 LINE SMOOTH",
"256 425 OFFCURVE",
"225 459 OFFCURVE",
"225 515 CURVE SMOOTH",
"225 597 OFFCURVE",
"288 639 OFFCURVE",
"389 639 CURVE SMOOTH",
"496 639 OFFCURVE",
"540 599 OFFCURVE",
"542 516 CURVE",
"646 523 LINE",
"647 662 OFFCURVE",
"561 725 OFFCURVE",
"395 725 CURVE SMOOTH",
"231 725 OFFCURVE",
"121 650 OFFCURVE",
"121 505 CURVE SMOOTH",
"121 401 OFFCURVE",
"182 345 OFFCURVE",
"296 321 CURVE SMOOTH",
"373 304 LINE SMOOTH",
"457 286 OFFCURVE",
"495 259 OFFCURVE",
"495 197 CURVE SMOOTH",
"495 111 OFFCURVE",
"429 71 OFFCURVE",
"315 71 CURVE SMOOTH",
"205 71 OFFCURVE",
"153 107 OFFCURVE",
"151 191 CURVE",
"47 184 LINE",
"46 43 OFFCURVE",
"139 -15 OFFCURVE",
"309 -15 CURVE SMOOTH"
);
}
);
};
layerId = "6641C2CA-B9F9-47EE-AEEC-6BEE387D8CB9";
paths = (
{
closed = 1;
nodes = (
"478 -15 OFFCURVE",
"573 45 OFFCURVE",
"596 172 CURVE SMOOTH",
"617 289 OFFCURVE",
"561 357 OFFCURVE",
"420 390 CURVE SMOOTH",
"343 408 LINE SMOOTH",
"249 430 OFFCURVE",
"216 464 OFFCURVE",
"229 537 CURVE SMOOTH",
"241 604 OFFCURVE",
"292 639 OFFCURVE",
"390 639 CURVE SMOOTH",
"492 639 OFFCURVE",
"542 607 OFFCURVE",
"547 515 CURVE",
"650 519 LINE",
"642 654 OFFCURVE",
"566 725 OFFCURVE",
"398 725 CURVE SMOOTH",
"239 725 OFFCURVE",
"148 662 OFFCURVE",
"127 542 CURVE SMOOTH",
"108 431 OFFCURVE",
"159 358 OFFCURVE",
"297 325 CURVE SMOOTH",
"373 307 LINE SMOOTH",
"470 284 OFFCURVE",
"507 255 OFFCURVE",
"493 175 CURVE SMOOTH",
"481 105 OFFCURVE",
"416 71 OFFCURVE",
"317 71 CURVE SMOOTH",
"198 71 OFFCURVE",
"155 113 OFFCURVE",
"148 195 CURVE",
"45 189 LINE",
"55 54 OFFCURVE",
"138 -15 OFFCURVE",
"309 -15 CURVE SMOOTH"
);
}
);
width = 670;
}
);
unicode = 0053;
userData = {
RMXScaler = {
source = S;
};
};
},
{
color = 7;
glyphname = T;
lastChange = "2018-03-02 13:29:47 +0000";
layers = (
{
anchors = (
{
name = bottom;
position = "{221, 0}";
},
{
name = top;
position = "{342, 710}";
}
);
background = {
paths = (
{
closed = 1;
nodes = (
"15 710 LINE",
"15 660 LINE",
"245 660 LINE",
"245 0 LINE",
"300 0 LINE",
"300 660 LINE",
"530 660 LINE",
"530 710 LINE"
);
}
);
};
layerId = "CC363ACD-D5A5-4E19-A940-9AF36D109D9E";
paths = (
{
closed = 1;
nodes = (
"94 710 LINE",
"85 660 LINE",
"310 660 LINE",
"193 0 LINE",
"248 0 LINE",
"365 660 LINE",
"590 660 LINE",
"599 710 LINE"
);
}
);
width = 535;
},
{
anchors = (
{
name = bottom;
position = "{272, 0}";
},
{
name = top;
position = "{395, 710}";
}
);
background = {
paths = (
{
closed = 1;
nodes = (
"36 710 LINE",
"36 537 LINE",
"241 537 LINE",
"241 0 LINE",
"461 0 LINE",
"461 537 LINE",
"666 537 LINE",
"666 710 LINE"
);
}
);
};
layerId = "C1DA716A-5F29-4CD0-A38F-CCADF5849A80";
paths = (
{
closed = 1;
nodes = (
"84 710 LINE",
"53 537 LINE",
"253 537 LINE",
"158 0 LINE",
"378 0 LINE",
"473 537 LINE",
"673 537 LINE",
"704 710 LINE"
);
}
);
width = 631;
},
{
anchors = (
{
name = bottom;
position = "{243, 0}";
},
{
name = top;
position = "{365, 710}";
}
);
background = {
paths = (
{
closed = 1;
nodes = (
"17 710 LINE",
"17 620 LINE",
"241 620 LINE",
"241 0 LINE",
"346 0 LINE",
"346 620 LINE",
"569 620 LINE",
"569 710 LINE"
);
}
);
};
layerId = "6641C2CA-B9F9-47EE-AEEC-6BEE387D8CB9";
paths = (
{
closed = 1;
nodes = (
"95 710 LINE",
"79 620 LINE",
"297 620 LINE",
"188 0 LINE",
"293 0 LINE",
"402 620 LINE",
"620 620 LINE",
"637 710 LINE"
);
}
);
width = 574;
}
);
unicode = 0054;
userData = {
RMXScaler = {
source = T;
};
};
},
{
color = 7;
glyphname = U;
lastChange = "2018-04-10 11:14:45 +0000";
layers = (
{
anchors = (
{
name = bottom;
position = "{340, 0}";
},
{
name = ogonek;
position = "{417, 0}";
},
{
name = top;
position = "{449, 710}";
}
);
background = {
paths = (
{
closed = 1;
nodes = (
"556 -15 OFFCURVE",
"660 71 OFFCURVE",
"660 262 CURVE SMOOTH",
"660 710 LINE",
"605 710 LINE",
"605 270 LINE SMOOTH",
"605 91 OFFCURVE",
"526 36 OFFCURVE",
"390 36 CURVE SMOOTH",
"254 36 OFFCURVE",
"175 91 OFFCURVE",
"175 270 CURVE SMOOTH",
"175 710 LINE",
"120 710 LINE",
"120 262 LINE SMOOTH",
"120 71 OFFCURVE",
"224 -15 OFFCURVE",
"390 -15 CURVE SMOOTH"
);
}
);
};
layerId = "CC363ACD-D5A5-4E19-A940-9AF36D109D9E";
paths = (
{
closed = 1;
nodes = (
"189 710 LINE",
"117 301 LINE SMOOTH",
"77 76 OFFCURVE",
"181 -15 OFFCURVE",
"347 -15 CURVE SMOOTH",
"500 -15 OFFCURVE",
"605 67 OFFCURVE",
"644 286 CURVE SMOOTH",
"719 710 LINE",
"664 710 LINE",
"591 297 LINE SMOOTH",
"554 90 OFFCURVE",
"470 36 OFFCURVE",
"352 36 CURVE SMOOTH",
"219 36 OFFCURVE",
"134 88 OFFCURVE",
"171 297 CURVE SMOOTH",
"244 710 LINE"
);
}
);
width = 750;
},
{
anchors = (
{
name = bottom;
position = "{345, 0}";
},
{
name = ogonek;
position = "{430, 0}";
},
{
name = top;
position = "{457, 710}";
}
);
background = {
paths = (
{
closed = 1;
nodes = (
"618 -15 OFFCURVE",
"716 84 OFFCURVE",
"716 320 CURVE SMOOTH",
"716 710 LINE",
"496 710 LINE",
"496 315 LINE SMOOTH",
"496 204 OFFCURVE",
"477 155 OFFCURVE",
"388 155 CURVE SMOOTH",
"299 155 OFFCURVE",
"279 204 OFFCURVE",
"279 315 CURVE SMOOTH",
"279 710 LINE",
"59 710 LINE",
"59 320 LINE SMOOTH",
"59 84 OFFCURVE",
"158 -15 OFFCURVE",
"388 -15 CURVE SMOOTH"
);
}
);
};
layerId = "C1DA716A-5F29-4CD0-A38F-CCADF5849A80";
paths = (
{
closed = 1;
nodes = (
"138 710 LINE",
"71 330 LINE SMOOTH",
"31 104 OFFCURVE",
"139 -15 OFFCURVE",
"354 -15 CURVE SMOOTH",
"589 -15 OFFCURVE",
"672 84 OFFCURVE",
"714 320 CURVE SMOOTH",
"783 710 LINE",
"563 710 LINE",
"493 315 LINE SMOOTH",
"474 207 OFFCURVE",
"456 155 OFFCURVE",
"371 155 CURVE SMOOTH",
"288 155 OFFCURVE",
"269 210 OFFCURVE",
"288 315 CURVE SMOOTH",
"358 710 LINE"
);
}
);
width = 765;
},
{
anchors = (
{
name = bottom;
position = "{341, 0}";
},
{
name = ogonek;
position = "{429, 0}";
},
{
name = top;
position = "{455, 710}";
}
);
background = {
paths = (
{
closed = 1;
nodes = (
"568 -15 OFFCURVE",
"671 76 OFFCURVE",
"671 287 CURVE SMOOTH",
"671 710 LINE",
"565 710 LINE",
"565 297 LINE SMOOTH",
"565 131 OFFCURVE",
"503 76 OFFCURVE",
"381 76 CURVE SMOOTH",
"259 76 OFFCURVE",
"197 131 OFFCURVE",
"197 297 CURVE SMOOTH",
"197 710 LINE",
"92 710 LINE",
"92 287 LINE SMOOTH",
"92 76 OFFCURVE",
"194 -15 OFFCURVE",
"381 -15 CURVE SMOOTH"
);
}
);
};
layerId = "6641C2CA-B9F9-47EE-AEEC-6BEE387D8CB9";
paths = (
{
closed = 1;
nodes = (
"175 710 LINE",
"104 311 LINE SMOOTH",
"65 89 OFFCURVE",
"170 -15 OFFCURVE",
"352 -15 CURVE SMOOTH",
"533 -15 OFFCURVE",
"629 65 OFFCURVE",
"671 299 CURVE SMOOTH",
"744 710 LINE",
"639 710 LINE",
"567 310 LINE SMOOTH",
"535 130 OFFCURVE",
"473 76 OFFCURVE",
"357 76 CURVE SMOOTH",
"240 76 OFFCURVE",
"177 130 OFFCURVE",
"208 304 CURVE SMOOTH",
"280 710 LINE"
);
}
);
width = 761;
}
);
unicode = 0055;
userData = {
RMXScaler = {
source = U;
};
};
},
{
color = 7;
glyphname = V;
lastChange = "2018-04-13 10:31:01 +0000";
layers = (
{
background = {
paths = (
{
closed = 1;
nodes = (
"308 69 LINE",
"303 69 LINE",
"63 710 LINE",
"4 710 LINE",
"273 0 LINE",
"335 0 LINE",
"604 710 LINE",
"546 710 LINE"
);
}
);
};
layerId = "CC363ACD-D5A5-4E19-A940-9AF36D109D9E";
paths = (
{
closed = 1;
nodes = (
"270 69 LINE",
"265 69 LINE",
"145 710 LINE",
"89 710 LINE",
"227 0 LINE",
"289 0 LINE",
"679 710 LINE",
"619 710 LINE"
);
}
);
width = 610;
},
{
background = {
paths = (
{
closed = 1;
nodes = (
"382 183 LINE",
"375 183 LINE",
"236 710 LINE",
"6 710 LINE",
"214 0 LINE",
"524 0 LINE",
"732 710 LINE",
"517 710 LINE"
);
}
);
};
layerId = "C1DA716A-5F29-4CD0-A38F-CCADF5849A80";
paths = (
{
closed = 1;
nodes = (
"351 183 LINE",
"344 183 LINE",
"308 710 LINE",
"83 710 LINE",
"160 0 LINE",
"470 0 LINE",
"799 710 LINE",
"579 710 LINE"
);
}
);
width = 726;
},
{
background = {
paths = (
{
closed = 1;
nodes = (
"333 98 LINE",
"326 98 LINE",
"114 710 LINE",
"3 710 LINE",
"256 0 LINE",
"397 0 LINE",
"650 710 LINE",
"541 710 LINE"
);
}
);
};
layerId = "6641C2CA-B9F9-47EE-AEEC-6BEE387D8CB9";
paths = (
{
closed = 1;
nodes = (
"297 98 LINE",
"290 98 LINE",
"192 710 LINE",
"84 710 LINE",
"207 0 LINE",
"348 0 LINE",
"720 710 LINE",
"609 710 LINE"
);
}
);
width = 647;
}
);
unicode = 0056;
userData = {
RMXScaler = {
source = V;
};
};
},
{
color = 7;
glyphname = W;
lastChange = "2018-04-10 11:11:46 +0000";
layers = (
{
anchors = (
{
name = top;
position = "{545, 710}";
}
);
background = {
paths = (
{
closed = 1;
nodes = (
"689 66 LINE",
"685 66 LINE",
"500 710 LINE",
"433 710 LINE",
"251 66 LINE",
"247 66 LINE",
"61 710 LINE",
"2 710 LINE",
"211 0 LINE",
"282 0 LINE",
"463 635 LINE",
"467 635 LINE",
"649 0 LINE",
"720 0 LINE",
"929 710 LINE",
"872 710 LINE"
);
}
);
};
layerId = "CC363ACD-D5A5-4E19-A940-9AF36D109D9E";
paths = (
{
closed = 1;
nodes = (
"649 66 LINE",
"645 66 LINE",
"582 710 LINE",
"515 710 LINE",
"224 66 LINE",
"220 66 LINE",
"151 710 LINE",
"94 710 LINE",
"176 0 LINE",
"247 0 LINE",
"534 635 LINE",
"538 635 LINE",
"600 0 LINE",
"671 0 LINE",
"1005 710 LINE",
"946 710 LINE"
);
}
);
width = 941;
},
{
anchors = (
{
name = top;
position = "{637, 710}";
}
);
background = {
paths = (
{
closed = 1;
nodes = (
"865 203 LINE",
"855 203 LINE",
"760 710 LINE",
"484 710 LINE",
"387 203 LINE",
"377 203 LINE",
"286 710 LINE",
"50 710 LINE",
"220 0 LINE",
"512 0 LINE",
"601 487 LINE",
"607 487 LINE",
"697 0 LINE",
"989 0 LINE",
"1159 710 LINE",
"958 710 LINE"
);
}
);
};
layerId = "C1DA716A-5F29-4CD0-A38F-CCADF5849A80";
paths = (
{
closed = 1;
nodes = (
"787 203 LINE",
"777 203 LINE",
"784 710 LINE",
"507 710 LINE",
"327 203 LINE",
"317 203 LINE",
"314 710 LINE",
"83 710 LINE",
"135 0 LINE",
"422 0 LINE",
"595 487 LINE",
"601 487 LINE",
"591 0 LINE",
"878 0 LINE",
"1182 710 LINE",
"977 710 LINE"
);
}
);
width = 1109;
},
{
anchors = (
{
name = top;
position = "{571, 710}";
}
);
background = {
paths = (
{
closed = 1;
nodes = (
"730 98 LINE",
"724 98 LINE",
"569 710 LINE",
"438 710 LINE",
"289 98 LINE",
"282 98 LINE",
"124 710 LINE",
"13 710 LINE",
"210 0 LINE",
"353 0 LINE",
"498 597 LINE",
"503 597 LINE",
"649 0 LINE",
"792 0 LINE",
"989 710 LINE",
"884 710 LINE"
);
}
);
};
layerId = "6641C2CA-B9F9-47EE-AEEC-6BEE387D8CB9";
paths = (
{
closed = 1;
nodes = (
"693 98 LINE",
"687 98 LINE",
"642 710 LINE",
"511 710 LINE",
"253 98 LINE",
"247 98 LINE",
"201 710 LINE",
"94 710 LINE",
"161 0 LINE",
"304 0 LINE",
"555 597 LINE",
"560 597 LINE",
"598 0 LINE",
"741 0 LINE",
"1060 710 LINE",
"952 710 LINE"
);
}
);
width = 996;
}
);
unicode = 0057;
userData = {
RMXScaler = {
source = W;
};
};
},
{
color = 7;
glyphname = X;
lastChange = "2018-04-14 12:38:11 +0000";
layers = (
{
background = {
paths = (
{
closed = 1;
nodes = (
"84 0 LINE",
"301 315 LINE",
"315 315 LINE",
"586 710 LINE",
"526 710 LINE",
"313 397 LINE",
"299 397 LINE",
"24 0 LINE"
);
},
{
closed = 1;
nodes = (
"589 0 LINE",
"332 364 LINE",
"319 383 LINE",
"88 710 LINE",
"27 710 LINE",
"279 352 LINE",
"293 333 LINE",
"528 0 LINE"
);
}
);
};
guideLines = (
{
angle = 80;
position = "{54, 366}";
},
{
angle = 80;
position = "{607, 366}";
}
);
layerId = "CC363ACD-D5A5-4E19-A940-9AF36D109D9E";
paths = (
{
closed = 1;
nodes = (
"55 0 LINE",
"320 316 LINE",
"330 316 LINE",
"665 710 LINE",
"599 710 LINE",
"339 400 LINE",
"329 400 LINE",
"-11 0 LINE"
);
},
{
closed = 1;
nodes = (
"543 0 LINE",
"353 367 LINE",
"343 387 LINE",
"175 710 LINE",
"118 710 LINE",
"301 356 LINE",
"313 334 LINE",
"486 0 LINE"
);
}
);
width = 624;
},
{
background = {
paths = (
{
closed = 1;
nodes = (
"216 0 LINE",
"390 331 LINE",
"483 331 LINE",
"701 710 LINE",
"486 710 LINE",
"319 394 LINE",
"225 394 LINE",
"2 0 LINE"
);
},
{
closed = 1;
nodes = (
"704 0 LINE",
"439 481 LINE",
"358 481 LINE",
"235 710 LINE",
"5 710 LINE",
"265 232 LINE",
"346 232 LINE",
"474 0 LINE"
);
}
);
};
guideLines = (
{
angle = 80;
position = "{23, 366}";
},
{
angle = 80;
position = "{713, 356}";
}
);
layerId = "C1DA716A-5F29-4CD0-A38F-CCADF5849A80";
paths = (
{
closed = 1;
nodes = (
"178 0 LINE",
"412 331 LINE",
"499 331 LINE",
"772 710 LINE",
"552 710 LINE",
"334 394 LINE",
"247 394 LINE",
"-42 0 LINE"
);
},
{
closed = 1;
nodes = (
"650 0 LINE",
"473 481 LINE",
"387 481 LINE",
"312 710 LINE",
"87 710 LINE",
"264 232 LINE",
"350 232 LINE",
"425 0 LINE"
);
}
);
width = 702;
},
{
background = {
paths = (
{
closed = 1;
nodes = (
"131 0 LINE",
"322 283 LINE",
"356 283 LINE",
"639 710 LINE",
"530 710 LINE",
"344 429 LINE",
"310 429 LINE",
"22 0 LINE"
);
},
{
closed = 1;
nodes = (
"642 0 LINE",
"382 369 LINE",
"354 409 LINE",
"141 710 LINE",
"25 710 LINE",
"278 351 LINE",
"310 306 LINE",
"526 0 LINE"
);
}
);
};
guideLines = (
{
angle = 80;
position = "{43, 366}";
},
{
angle = 80;
position = "{653, 366}";
}
);
layerId = "6641C2CA-B9F9-47EE-AEEC-6BEE387D8CB9";
paths = (
{
closed = 1;
nodes = (
"95 0 LINE",
"324 280 LINE",
"350 280 LINE",
"710 710 LINE",
"593 710 LINE",
"365 442 LINE",
"339 442 LINE",
"-22 0 LINE"
);
},
{
closed = 1;
nodes = (
"588 0 LINE",
"390 381 LINE",
"370 419 LINE",
"219 710 LINE",
"107 710 LINE",
"292 355 LINE",
"316 309 LINE",
"477 0 LINE"
);
}
);
width = 660;
}
);
unicode = 0058;
userData = {
RMXScaler = {
source = X;
};
};
},
{
color = 7;
glyphname = Y;
lastChange = "2018-03-24 21:43:17 +0000";
layers = (
{
anchors = (
{
name = bottom;
position = "{265, 0}";
},
{
name = top;
position = "{374, 710}";
}
);
background = {
paths = (
{
closed = 1;
nodes = (
"549 710 LINE",
"306 319 LINE",
"303 319 LINE",
"55 710 LINE",
"-6 710 LINE",
"274 264 LINE",
"274 0 LINE",
"328 0 LINE",
"328 264 LINE",
"608 710 LINE"
);
}
);
};
layerId = "CC363ACD-D5A5-4E19-A940-9AF36D109D9E";
paths = (
{
closed = 1;
nodes = (
"619 710 LINE",
"312 319 LINE",
"308 319 LINE",
"135 710 LINE",
"79 710 LINE",
"275 265 LINE",
"228 0 LINE",
"282 0 LINE",
"329 265 LINE",
"683 710 LINE"
);
}
);
width = 604;
},
{
anchors = (
{
name = bottom;
position = "{327, 0}";
},
{
name = top;
position = "{444, 710}";
}
);
background = {
paths = (
{
closed = 1;
nodes = (
"531 710 LINE",
"385 451 LINE",
"378 451 LINE",
"227 710 LINE",
"-5 710 LINE",
"258 266 LINE",
"258 0 LINE",
"477 0 LINE",
"477 266 LINE",
"740 710 LINE"
);
}
);
};
layerId = "C1DA716A-5F29-4CD0-A38F-CCADF5849A80";
paths = (
{
closed = 1;
nodes = (
"599 710 LINE",
"406 451 LINE",
"398 451 LINE",
"300 710 LINE",
"78 710 LINE",
"256 263 LINE",
"209 0 LINE",
"428 0 LINE",
"475 263 LINE",
"813 710 LINE"
);
}
);
width = 735;
},
{
anchors = (
{
name = bottom;
position = "{284, 0}";
},
{
name = top;
position = "{395, 710}";
}
);
background = {
paths = (
{
closed = 1;
nodes = (
"536 710 LINE",
"327 359 LINE",
"323 359 LINE",
"106 710 LINE",
"-9 710 LINE",
"266 260 LINE",
"266 0 LINE",
"370 0 LINE",
"370 260 LINE",
"645 710 LINE"
);
}
);
};
layerId = "6641C2CA-B9F9-47EE-AEEC-6BEE387D8CB9";
paths = (
{
closed = 1;
nodes = (
"609 710 LINE",
"339 359 LINE",
"335 359 LINE",
"189 710 LINE",
"79 710 LINE",
"269 261 LINE",
"223 0 LINE",
"328 0 LINE",
"375 261 LINE",
"723 710 LINE"
);
}
);
width = 644;
}
);
unicode = 0059;
userData = {
RMXScaler = {
source = Y;
};
};
},
{
color = 7;
glyphname = Z;
lastChange = "2018-03-24 21:43:34 +0000";
layers = (
{
anchors = (
{
name = top;
position = "{371, 710}";
}
);
background = {
paths = (
{
closed = 1;
nodes = (
"109 54 LINE",
"521 665 LINE",
"521 710 LINE",
"51 710 LINE",
"51 660 LINE",
"452 660 LINE",
"452 656 LINE",
"40 45 LINE",
"40 0 LINE",
"521 0 LINE",
"521 50 LINE",
"109 50 LINE"
);
}
);
};
layerId = "CC363ACD-D5A5-4E19-A940-9AF36D109D9E";
paths = (
{
closed = 1;
nodes = (
"102 54 LINE",
"609 665 LINE",
"616 710 LINE",
"156 710 LINE",
"148 660 LINE",
"534 660 LINE",
"534 656 LINE",
"27 45 LINE",
"20 0 LINE",
"491 0 LINE",
"500 50 LINE",
"102 50 LINE"
);
}
);
width = 603;
},
{
anchors = (
{
name = top;
position = "{432, 710}";
}
);
background = {
paths = (
{
closed = 1;
nodes = (
"328 180 LINE",
"656 543 LINE",
"656 710 LINE",
"65 710 LINE",
"65 537 LINE",
"382 537 LINE",
"382 530 LINE",
"54 168 LINE",
"54 0 LINE",
"656 0 LINE",
"656 173 LINE",
"328 173 LINE"
);
}
);
};
layerId = "C1DA716A-5F29-4CD0-A38F-CCADF5849A80";
paths = (
{
closed = 1;
nodes = (
"319 180 LINE",
"699 542 LINE",
"727 710 LINE",
"146 710 LINE",
"115 537 LINE",
"418 537 LINE",
"417 530 LINE",
"37 168 LINE",
"10 0 LINE",
"602 0 LINE",
"632 173 LINE",
"318 173 LINE"
);
}
);
width = 706;
},
{
anchors = (
{
name = top;
position = "{390, 710}";
}
);
background = {
paths = (
{
closed = 1;
nodes = (
"189 95 LINE",
"582 625 LINE",
"582 710 LINE",
"75 710 LINE",
"75 620 LINE",
"457 620 LINE",
"457 615 LINE",
"64 85 LINE",
"64 0 LINE",
"582 0 LINE",
"582 90 LINE",
"189 90 LINE"
);
}
);
};
layerId = "6641C2CA-B9F9-47EE-AEEC-6BEE387D8CB9";
paths = (
{
closed = 1;
nodes = (
"167 95 LINE",
"634 625 LINE",
"649 710 LINE",
"152 710 LINE",
"136 620 LINE",
"501 620 LINE",
"500 615 LINE",
"33 85 LINE",
"18 0 LINE",
"525 0 LINE",
"542 90 LINE",
"166 90 LINE"
);
}
);
width = 638;
}
);
unicode = 005A;
userData = {
RMXScaler = {
source = Z;
};
};
},
{
color = 7;
glyphname = a;
lastChange = "2018-05-18 22:52:25 +0000";
layers = (
{
anchors = (
{
name = ogonek;
position = "{457, 0}";
},
{
name = top;
position = "{358, 525}";
}
);
associatedMasterId = "CC363ACD-D5A5-4E19-A940-9AF36D109D9E";
background = {
anchors = (
{
name = ogonek;
position = "{509, 0}";
},
{
name = top;
position = "{312, 525}";
}
);
paths = (
{
closed = 1;
nodes = (
"419 314 LINE",
"240 301 LINE SMOOTH",
"98 291 OFFCURVE",
"32 235 OFFCURVE",
"32 132 CURVE SMOOTH",
"32 51 OFFCURVE",
"83 -13 OFFCURVE",
"210 -13 CURVE SMOOTH",
"285 -13 OFFCURVE",
"346 23 OFFCURVE",
"369 79 CURVE",
"356 72 LINE",
"383 72 LINE",
"372 81 LINE",
"374 0 LINE",
"485 0 LINE",
"535 316 LINE SMOOTH",
"539 342 OFFCURVE",
"541 360 OFFCURVE",
"541 382 CURVE SMOOTH",
"541 496 OFFCURVE",
"463 540 OFFCURVE",
"333 540 CURVE SMOOTH",
"188 540 OFFCURVE",
"117 476 OFFCURVE",
"85 360 CURVE",
"227 360 LINE",
"243 411 OFFCURVE",
"267 432 OFFCURVE",
"332 432 CURVE SMOOTH",
"383 432 OFFCURVE",
"408 413 OFFCURVE",
"408 372 CURVE SMOOTH",
"408 361 OFFCURVE",
"406 347 OFFCURVE",
"404 334 CURVE SMOOTH",
"382 194 LINE SMOOTH",
"372 129 OFFCURVE",
"324 89 OFFCURVE",
"254 89 CURVE SMOOTH",
"201 89 OFFCURVE",
"174 109 OFFCURVE",
"174 148 CURVE SMOOTH",
"174 187 OFFCURVE",
"201 211 OFFCURVE",
"248 215 CURVE SMOOTH",
"405 228 LINE"
);
}
);
};
layerId = "50DF258C-215D-4CC1-BFC7-39FCC540560D";
name = "Aug 30 17, 11:22";
paths = (
{
closed = 1;
nodes = (
"416 320 LINE",
"240 300 LINE SMOOTH",
"87 282 OFFCURVE",
"31 225 OFFCURVE",
"31 113 CURVE SMOOTH",
"31 38 OFFCURVE",
"78 -13 OFFCURVE",
"184 -13 CURVE SMOOTH",
"267 -13 OFFCURVE",
"331 17 OFFCURVE",
"358 79 CURVE",
"344 72 LINE",
"372 72 LINE",
"361 81 LINE",
"362 0 LINE",
"477 0 LINE",
"539 354 LINE SMOOTH",
"561 481 OFFCURVE",
"496 540 OFFCURVE",
"359 540 CURVE SMOOTH",
"207 540 OFFCURVE",
"132 479 OFFCURVE",
"97 360 CURVE",
"238 360 LINE",
"254 411 OFFCURVE",
"277 432 OFFCURVE",
"337 432 CURVE SMOOTH",
"397 432 OFFCURVE",
"414 403 OFFCURVE",
"403 342 CURVE SMOOTH",
"379 208 LINE SMOOTH",
"367 142 OFFCURVE",
"329 89 OFFCURVE",
"247 89 CURVE SMOOTH",
"193 89 OFFCURVE",
"174 109 OFFCURVE",
"174 140 CURVE SMOOTH",
"174 180 OFFCURVE",
"197 207 OFFCURVE",
"249 214 CURVE SMOOTH",
"401 234 LINE"
);
}
);
width = 601;
},
{
anchors = (
{
name = bottom;
position = "{261, 0}";
},
{
name = ogonek;
position = "{422, 0}";
},
{
name = top;
position = "{329, 523}";
}
);
background = {
paths = (
{
closed = 1;
nodes = (
"317 -15 OFFCURVE",
"376 37 OFFCURVE",
"404 90 CURVE",
"406 90 LINE",
"397 0 LINE",
"440 0 LINE",
"497 326 LINE SMOOTH",
"500 345 OFFCURVE",
"502 363 OFFCURVE",
"502 379 CURVE SMOOTH",
"502 475 OFFCURVE",
"445 538 OFFCURVE",
"321 538 CURVE SMOOTH",
"192 538 OFFCURVE",
"141 480 OFFCURVE",
"113 384 CURVE",
"167 375 LINE",
"189 451 OFFCURVE",
"224 490 OFFCURVE",
"319 490 CURVE SMOOTH",
"416 490 OFFCURVE",
"449 446 OFFCURVE",
"449 379 CURVE SMOOTH",
"449 363 OFFCURVE",
"447 346 OFFCURVE",
"444 328 CURVE SMOOTH",
"420 194 LINE SMOOTH",
"404 106 OFFCURVE",
"323 32 OFFCURVE",
"225 32 CURVE SMOOTH",
"153 32 OFFCURVE",
"111 64 OFFCURVE",
"111 124 CURVE SMOOTH",
"111 200 OFFCURVE",
"161 231 OFFCURVE",
"251 241 CURVE SMOOTH",
"447 262 LINE",
"453 307 LINE",
"252 286 LINE SMOOTH",
"128 273 OFFCURVE",
"56 229 OFFCURVE",
"56 122 CURVE SMOOTH",
"56 34 OFFCURVE",
"122 -15 OFFCURVE",
"220 -15 CURVE SMOOTH"
);
}
);
};
layerId = "CC363ACD-D5A5-4E19-A940-9AF36D109D9E";
paths = (
{
closed = 1;
nodes = (
"192 538 OFFCURVE",
"141 480 OFFCURVE",
"113 384 CURVE",
"167 375 LINE",
"189 451 OFFCURVE",
"224 490 OFFCURVE",
"319 490 CURVE SMOOTH",
"426 490 OFFCURVE",
"463 435 OFFCURVE",
"446 339 CURVE SMOOTH",
"440 306 LINE",
"422 304 OFFCURVE",
"403 302 OFFCURVE",
"385 300 CURVE SMOOTH",
"252 286 LINE SMOOTH",
"128 273 OFFCURVE",
"56 229 OFFCURVE",
"56 122 CURVE SMOOTH",
"56 34 OFFCURVE",
"122 -15 OFFCURVE",
"220 -15 CURVE SMOOTH",
"317 -15 OFFCURVE",
"376 37 OFFCURVE",
"404 90 CURVE",
"406 90 LINE",
"397 0 LINE",
"440 0 LINE",
"497 326 LINE SMOOTH",
"500 345 OFFCURVE",
"502 363 OFFCURVE",
"502 379 CURVE SMOOTH",
"502 475 OFFCURVE",
"445 538 OFFCURVE",
"321 538 CURVE SMOOTH"
);
},
{
closed = 1;
nodes = (
"153 32 OFFCURVE",
"111 64 OFFCURVE",
"111 124 CURVE SMOOTH",
"111 200 OFFCURVE",
"161 231 OFFCURVE",
"251 241 CURVE SMOOTH",
"382 255 LINE SMOOTH",
"406 258 OFFCURVE",
"433 260 OFFCURVE",
"457 263 CURVE",
"436 284 LINE",
"420 194 LINE SMOOTH",
"404 106 OFFCURVE",
"323 32 OFFCURVE",
"225 32 CURVE SMOOTH"
);
}
);
width = 583;
},
{
anchors = (
{
name = bottom;
position = "{301, 0}";
},
{
name = ogonek;
position = "{504, 0}";
},
{
name = top;
position = "{354, 535}";
}
);
background = {
paths = (
{
closed = 1;
nodes = (
"303 -13 OFFCURVE",
"333 32 OFFCURVE",
"358 73 CURVE",
"365 73 LINE",
"371 0 LINE",
"544 0 LINE",
"594 288 LINE SMOOTH",
"600 320 OFFCURVE",
"602 345 OFFCURVE",
"602 371 CURVE SMOOTH",
"602 487 OFFCURVE",
"512 553 OFFCURVE",
"355 553 CURVE SMOOTH",
"158 553 OFFCURVE",
"100 494 OFFCURVE",
"72 370 CURVE",
"271 347 LINE",
"281 385 OFFCURVE",
"293 407 OFFCURVE",
"339 407 CURVE SMOOTH",
"383 407 OFFCURVE",
"401 389 OFFCURVE",
"401 359 CURVE SMOOTH",
"401 349 OFFCURVE",
"400 339 OFFCURVE",
"398 327 CURVE SMOOTH",
"376 199 LINE SMOOTH",
"366 140 OFFCURVE",
"334 121 OFFCURVE",
"286 121 CURVE SMOOTH",
"249 121 OFFCURVE",
"233 137 OFFCURVE",
"233 163 CURVE SMOOTH",
"233 190 OFFCURVE",
"252 201 OFFCURVE",
"289 205 CURVE SMOOTH",
"413 218 LINE",
"427 329 LINE",
"233 311 LINE SMOOTH",
"87 297 OFFCURVE",
"21 244 OFFCURVE",
"21 141 CURVE SMOOTH",
"21 42 OFFCURVE",
"88 -13 OFFCURVE",
"199 -13 CURVE SMOOTH"
);
}
);
};
guideLines = (
{
angle = 80.1186;
position = "{406, 334}";
}
);
layerId = "C1DA716A-5F29-4CD0-A38F-CCADF5849A80";
paths = (
{
closed = 1;
nodes = (
"158 553 OFFCURVE",
"100 494 OFFCURVE",
"72 370 CURVE",
"271 347 LINE",
"281 385 OFFCURVE",
"294 407 OFFCURVE",
"343 407 CURVE SMOOTH",
"387 407 OFFCURVE",
"405 386 OFFCURVE",
"401 352 CURVE SMOOTH",
"398 326 LINE",
"385 325 OFFCURVE",
"364 323 OFFCURVE",
"351 322 CURVE SMOOTH",
"233 311 LINE SMOOTH",
"87 297 OFFCURVE",
"21 244 OFFCURVE",
"21 141 CURVE SMOOTH",
"21 42 OFFCURVE",
"88 -13 OFFCURVE",
"199 -13 CURVE SMOOTH",
"303 -13 OFFCURVE",
"333 32 OFFCURVE",
"358 73 CURVE",
"365 73 LINE",
"371 0 LINE",
"544 0 LINE",
"594 288 LINE SMOOTH",
"600 320 OFFCURVE",
"602 345 OFFCURVE",
"602 371 CURVE SMOOTH",
"602 487 OFFCURVE",
"512 553 OFFCURVE",
"355 553 CURVE SMOOTH"
);
},
{
closed = 1;
nodes = (
"249 121 OFFCURVE",
"233 137 OFFCURVE",
"233 163 CURVE SMOOTH",
"233 190 OFFCURVE",
"252 201 OFFCURVE",
"289 205 CURVE SMOOTH",
"350 211 LINE SMOOTH",
"371 213 OFFCURVE",
"392 216 OFFCURVE",
"413 218 CURVE",
"386 260 LINE",
"376 199 LINE SMOOTH",
"366 140 OFFCURVE",
"334 121 OFFCURVE",
"286 121 CURVE SMOOTH"
);
}
);
width = 648;
},
{
anchors = (
{
name = ogonek;
position = "{502, 0}";
},
{
name = top;
position = "{391, 535}";
}
);
associatedMasterId = "C1DA716A-5F29-4CD0-A38F-CCADF5849A80";
layerId = "78F4CA00-5BF0-4446-8E2B-D14509F47C7F";
name = "Oct 4 17, 18:09";
paths = (
{
closed = 1;
nodes = (
"267 -13 OFFCURVE",
"327 18 OFFCURVE",
"364 75 CURVE",
"337 68 LINE",
"384 68 LINE",
"366 84 LINE",
"373 0 LINE",
"543 0 LINE",
"597 310 LINE SMOOTH",
"601 332 OFFCURVE",
"602 355 OFFCURVE",
"602 371 CURVE SMOOTH",
"602 487 OFFCURVE",
"519 550 OFFCURVE",
"369 550 CURVE SMOOTH",
"191 550 OFFCURVE",
"119 474 OFFCURVE",
"93 350 CURVE",
"282 350 LINE",
"293 390 OFFCURVE",
"309 407 OFFCURVE",
"354 407 CURVE SMOOTH",
"391 407 OFFCURVE",
"409 390 OFFCURVE",
"409 358 CURVE SMOOTH",
"409 351 OFFCURVE",
"407 338 OFFCURVE",
"405 327 CURVE SMOOTH",
"381 197 LINE SMOOTH",
"369 132 OFFCURVE",
"333 114 OFFCURVE",
"282 114 CURVE SMOOTH",
"253 114 OFFCURVE",
"232 129 OFFCURVE",
"232 155 CURVE SMOOTH",
"232 192 OFFCURVE",
"261 208 OFFCURVE",
"307 213 CURVE SMOOTH",
"414 225 LINE",
"435 329 LINE",
"228 303 LINE SMOOTH",
"109 288 OFFCURVE",
"33 238 OFFCURVE",
"33 125 CURVE SMOOTH",
"33 39 OFFCURVE",
"93 -13 OFFCURVE",
"194 -13 CURVE SMOOTH"
);
}
);
width = 647;
},
{
anchors = (
{
name = bottom;
position = "{269, 0}";
},
{
name = ogonek;
position = "{433, 0}";
},
{
name = top;
position = "{335, 528}";
}
);
background = {
paths = (
{
closed = 1;
nodes = (
"305 -14 OFFCURVE",
"357 28 OFFCURVE",
"381 79 CURVE",
"386 79 LINE",
"381 0 LINE",
"463 0 LINE",
"515 316 LINE SMOOTH",
"519 338 OFFCURVE",
"520 364 OFFCURVE",
"520 384 CURVE SMOOTH",
"520 488 OFFCURVE",
"445 544 OFFCURVE",
"325 544 CURVE SMOOTH",
"183 544 OFFCURVE",
"131 491 OFFCURVE",
"102 384 CURVE",
"199 371 LINE",
"217 436 OFFCURVE",
"245 463 OFFCURVE",
"320 463 CURVE SMOOTH",
"395 463 OFFCURVE",
"425 429 OFFCURVE",
"424 376 CURVE SMOOTH",
"424 363 OFFCURVE",
"422 344 OFFCURVE",
"420 329 CURVE SMOOTH",
"398 194 LINE SMOOTH",
"385 113 OFFCURVE",
"323 66 OFFCURVE",
"240 66 CURVE SMOOTH",
"180 66 OFFCURVE",
"147 91 OFFCURVE",
"147 141 CURVE SMOOTH",
"147 197 OFFCURVE",
"184 219 OFFCURVE",
"252 225 CURVE SMOOTH",
"423 241 LINE",
"433 316 LINE",
"245 297 LINE SMOOTH",
"113 284 OFFCURVE",
"45 239 OFFCURVE",
"45 131 CURVE SMOOTH",
"45 46 OFFCURVE",
"105 -14 OFFCURVE",
"217 -14 CURVE SMOOTH"
);
}
);
};
layerId = "6641C2CA-B9F9-47EE-AEEC-6BEE387D8CB9";
paths = (
{
closed = 1;
nodes = (
"183 544 OFFCURVE",
"131 491 OFFCURVE",
"102 384 CURVE",
"199 371 LINE",
"217 436 OFFCURVE",
"245 463 OFFCURVE",
"320 463 CURVE SMOOTH",
"395 463 OFFCURVE",
"432 429 OFFCURVE",
"423 356 CURVE SMOOTH",
"418 314 LINE",
"406 313 OFFCURVE",
"381 311 OFFCURVE",
"364 309 CURVE SMOOTH",
"245 297 LINE SMOOTH",
"113 284 OFFCURVE",
"45 239 OFFCURVE",
"45 131 CURVE SMOOTH",
"45 46 OFFCURVE",
"105 -14 OFFCURVE",
"217 -14 CURVE SMOOTH",
"305 -14 OFFCURVE",
"357 28 OFFCURVE",
"381 79 CURVE",
"386 79 LINE",
"381 0 LINE",
"463 0 LINE",
"515 316 LINE SMOOTH",
"519 338 OFFCURVE",
"520 364 OFFCURVE",
"520 384 CURVE SMOOTH",
"520 488 OFFCURVE",
"445 544 OFFCURVE",
"325 544 CURVE SMOOTH"
);
},
{
closed = 1;
nodes = (
"180 66 OFFCURVE",
"147 91 OFFCURVE",
"147 141 CURVE SMOOTH",
"147 197 OFFCURVE",
"184 219 OFFCURVE",
"252 225 CURVE SMOOTH",
"370 236 LINE SMOOTH",
"395 238 OFFCURVE",
"425 241 OFFCURVE",
"450 243 CURVE",
"412 283 LINE",
"398 194 LINE SMOOTH",
"385 113 OFFCURVE",
"323 66 OFFCURVE",
"240 66 CURVE SMOOTH"
);
}
);
width = 597;
}
);
rightMetricsKey = n;
unicode = 0061;
userData = {
RMXScaler = {
source = a;
};
};
},
{
color = 7;
glyphname = b;
lastChange = "2018-04-03 11:57:46 +0000";
layers = (
{
associatedMasterId = "CC363ACD-D5A5-4E19-A940-9AF36D109D9E";
background = {
paths = (
{
closed = 1;
nodes = (
"83 750 LINE",
"83 0 LINE",
"206 0 LINE",
"221 85 LINE",
"228 85 LINE",
"259 19 OFFCURVE",
"315 -14 OFFCURVE",
"389 -14 CURVE SMOOTH",
"532 -14 OFFCURVE",
"618 90 OFFCURVE",
"618 263 CURVE SMOOTH",
"618 436 OFFCURVE",
"532 540 OFFCURVE",
"389 540 CURVE SMOOTH",
"315 540 OFFCURVE",
"259 508 OFFCURVE",
"228 446 CURVE",
"223 446 LINE",
"223 750 LINE"
);
},
{
closed = 1;
nodes = (
"266 106 OFFCURVE",
"223 161 OFFCURVE",
"223 263 CURVE SMOOTH",
"223 365 OFFCURVE",
"266 420 OFFCURVE",
"347 420 CURVE SMOOTH",
"432 420 OFFCURVE",
"473 370 OFFCURVE",
"473 263 CURVE SMOOTH",
"473 156 OFFCURVE",
"432 106 OFFCURVE",
"347 106 CURVE SMOOTH"
);
}
);
};
layerId = "84435905-EDCB-4949-A8A3-0E53308A2F50";
paths = (
{
closed = 1;
nodes = (
"64 750 LINE",
"64 0 LINE",
"245 0 LINE",
"262 81 LINE",
"275 81 LINE",
"296 33 OFFCURVE",
"350 -14 OFFCURVE",
"436 -14 CURVE SMOOTH",
"573 -14 OFFCURVE",
"653 93 OFFCURVE",
"653 267 CURVE SMOOTH",
"653 442 OFFCURVE",
"573 550 OFFCURVE",
"436 550 CURVE SMOOTH",
"350 550 OFFCURVE",
"296 503 OFFCURVE",
"275 455 CURVE",
"269 455 LINE",
"269 750 LINE"
);
},
{
closed = 1;
nodes = (
"299 151 OFFCURVE",
"269 190 OFFCURVE",
"269 267 CURVE SMOOTH",
"269 345 OFFCURVE",
"299 384 OFFCURVE",
"356 384 CURVE SMOOTH",
"417 384 OFFCURVE",
"443 346 OFFCURVE",
"443 267 CURVE SMOOTH",
"443 189 OFFCURVE",
"417 151 OFFCURVE",
"356 151 CURVE SMOOTH"
);
}
);
userData = {
RMXScaler = {
height = 100.1;
};
};
width = 689;
},
{
associatedMasterId = "CC363ACD-D5A5-4E19-A940-9AF36D109D9E";
background = {
paths = (
{
closed = 1;
nodes = (
"107 750 LINE",
"107 0 LINE",
"148 0 LINE",
"162 101 LINE",
"166 101 LINE",
"192 48 OFFCURVE",
"243 -15 OFFCURVE",
"345 -15 CURVE SMOOTH",
"492 -15 OFFCURVE",
"574 86 OFFCURVE",
"574 257 CURVE SMOOTH",
"574 426 OFFCURVE",
"487 530 OFFCURVE",
"345 530 CURVE SMOOTH",
"262 530 OFFCURVE",
"204 496 OFFCURVE",
"167 425 CURVE",
"162 425 LINE",
"162 750 LINE"
);
},
{
closed = 1;
nodes = (
"223 32 OFFCURVE",
"157 149 OFFCURVE",
"157 257 CURVE SMOOTH",
"157 381 OFFCURVE",
"223 483 OFFCURVE",
"343 483 CURVE SMOOTH",
"456 483 OFFCURVE",
"518 402 OFFCURVE",
"518 257 CURVE SMOOTH",
"518 112 OFFCURVE",
"462 32 OFFCURVE",
"343 32 CURVE SMOOTH"
);
}
);
};
layerId = "0A1AFE58-107D-4787-BDA0-D82FB635C3A6";
paths = (
{
closed = 1;
nodes = (
"107 750 LINE",
"107 0 LINE",
"148 0 LINE",
"162 101 LINE",
"166 101 LINE",
"192 48 OFFCURVE",
"243 -15 OFFCURVE",
"345 -15 CURVE SMOOTH",
"492 -15 OFFCURVE",
"574 86 OFFCURVE",
"574 257 CURVE SMOOTH",
"574 426 OFFCURVE",
"487 530 OFFCURVE",
"345 530 CURVE SMOOTH",
"262 530 OFFCURVE",
"204 496 OFFCURVE",
"167 425 CURVE",
"162 425 LINE",
"162 750 LINE"
);
},
{
closed = 1;
nodes = (
"223 32 OFFCURVE",
"157 149 OFFCURVE",
"157 257 CURVE SMOOTH",
"157 381 OFFCURVE",
"223 483 OFFCURVE",
"343 483 CURVE SMOOTH",
"456 483 OFFCURVE",
"518 402 OFFCURVE",
"518 257 CURVE SMOOTH",
"518 112 OFFCURVE",
"462 32 OFFCURVE",
"343 32 CURVE SMOOTH"
);
}
);
width = 641;
},
{
background = {
paths = (
{
closed = 1;
nodes = (
"102 0 LINE",
"145 0 LINE",
"156 95 LINE",
"160 95 LINE",
"193 32 OFFCURVE",
"253 -15 OFFCURVE",
"339 -15 CURVE SMOOTH",
"487 -15 OFFCURVE",
"569 87 OFFCURVE",
"569 261 CURVE SMOOTH",
"569 436 OFFCURVE",
"487 538 OFFCURVE",
"339 538 CURVE SMOOTH",
"253 538 OFFCURVE",
"192 496 OFFCURVE",
"161 434 CURVE",
"157 434 LINE",
"157 750 LINE",
"102 750 LINE"
);
},
{
closed = 1;
nodes = (
"454 486 OFFCURVE",
"512 413 OFFCURVE",
"512 261 CURVE SMOOTH",
"512 110 OFFCURVE",
"454 37 OFFCURVE",
"337 37 CURVE SMOOTH",
"213 37 OFFCURVE",
"153 139 OFFCURVE",
"153 261 CURVE SMOOTH",
"153 384 OFFCURVE",
"213 486 OFFCURVE",
"337 486 CURVE SMOOTH"
);
}
);
};
guideLines = (
{
angle = 80;
position = "{167, 347}";
}
);
layerId = "CC363ACD-D5A5-4E19-A940-9AF36D109D9E";
paths = (
{
closed = 1;
nodes = (
"56 0 LINE",
"99 0 LINE",
"127 95 LINE",
"131 95 LINE",
"153 32 OFFCURVE",
"210 -15 OFFCURVE",
"298 -15 CURVE SMOOTH",
"431 -15 OFFCURVE",
"523 78 OFFCURVE",
"554 252 CURVE SMOOTH",
"585 427 OFFCURVE",
"505 538 OFFCURVE",
"370 538 CURVE SMOOTH",
"284 538 OFFCURVE",
"223 491 OFFCURVE",
"191 434 CURVE",
"187 434 LINE",
"243 750 LINE",
"188 750 LINE"
);
},
{
closed = 1;
nodes = (
"469 487 OFFCURVE",
"525 404 OFFCURVE",
"498 252 CURVE SMOOTH",
"471 101 OFFCURVE",
"397 36 OFFCURVE",
"293 36 CURVE SMOOTH",
"184 36 OFFCURVE",
"129 129 OFFCURVE",
"153 266 CURVE SMOOTH",
"175 390 OFFCURVE",
"248 487 OFFCURVE",
"362 487 CURVE SMOOTH"
);
}
);
width = 621;
},
{
background = {
paths = (
{
closed = 1;
nodes = (
"60 0 LINE",
"246 0 LINE",
"264 97 LINE",
"271 97 LINE",
"292 38 OFFCURVE",
"341 -15 OFFCURVE",
"439 -15 CURVE SMOOTH",
"572 -15 OFFCURVE",
"652 94 OFFCURVE",
"652 268 CURVE SMOOTH",
"652 443 OFFCURVE",
"572 550 OFFCURVE",
"439 550 CURVE SMOOTH",
"346 550 OFFCURVE",
"298 508 OFFCURVE",
"277 451 CURVE",
"270 451 LINE",
"270 750 LINE",
"60 750 LINE"
);
},
{
closed = 1;
nodes = (
"417 390 OFFCURVE",
"439 350 OFFCURVE",
"439 268 CURVE SMOOTH",
"439 185 OFFCURVE",
"417 145 OFFCURVE",
"353 145 CURVE SMOOTH",
"290 145 OFFCURVE",
"268 185 OFFCURVE",
"268 268 CURVE SMOOTH",
"268 350 OFFCURVE",
"290 390 OFFCURVE",
"353 390 CURVE SMOOTH"
);
}
);
};
guideLines = (
{
angle = 80;
position = "{658, 347}";
}
);
layerId = "C1DA716A-5F29-4CD0-A38F-CCADF5849A80";
paths = (
{
closed = 1;
nodes = (
"13 0 LINE",
"199 0 LINE",
"234 97 LINE",
"241 97 LINE",
"257 28 OFFCURVE",
"302 -15 OFFCURVE",
"396 -15 CURVE SMOOTH",
"525 -15 OFFCURVE",
"613 94 OFFCURVE",
"644 268 CURVE SMOOTH",
"675 443 OFFCURVE",
"609 550 OFFCURVE",
"480 550 CURVE SMOOTH",
"391 550 OFFCURVE",
"341 508 OFFCURVE",
"310 451 CURVE",
"303 451 LINE",
"355 750 LINE",
"145 750 LINE"
);
},
{
closed = 1;
nodes = (
"426 390 OFFCURVE",
"446 350 OFFCURVE",
"431 268 CURVE SMOOTH",
"416 185 OFFCURVE",
"393 145 OFFCURVE",
"333 145 CURVE SMOOTH",
"274 145 OFFCURVE",
"254 185 OFFCURVE",
"268 268 CURVE SMOOTH",
"282 350 OFFCURVE",
"307 390 OFFCURVE",
"366 390 CURVE SMOOTH"
);
}
);
width = 677;
},
{
background = {
paths = (
{
closed = 1;
nodes = (
"91 0 LINE",
"176 0 LINE",
"189 91 LINE",
"194 91 LINE",
"230 21 OFFCURVE",
"283 -15 OFFCURVE",
"366 -15 CURVE SMOOTH",
"507 -15 OFFCURVE",
"590 88 OFFCURVE",
"590 264 CURVE SMOOTH",
"590 440 OFFCURVE",
"507 543 OFFCURVE",
"361 543 CURVE SMOOTH",
"280 543 OFFCURVE",
"225 507 OFFCURVE",
"196 444 CURVE",
"191 444 LINE",
"191 750 LINE",
"91 750 LINE"
);
},
{
closed = 1;
nodes = (
"438 458 OFFCURVE",
"488 394 OFFCURVE",
"488 264 CURVE SMOOTH",
"488 134 OFFCURVE",
"438 70 OFFCURVE",
"338 70 CURVE SMOOTH",
"238 70 OFFCURVE",
"189 144 OFFCURVE",
"189 264 CURVE SMOOTH",
"189 383 OFFCURVE",
"238 458 OFFCURVE",
"338 458 CURVE SMOOTH"
);
}
);
};
guideLines = (
{
angle = 80;
position = "{203, 347}";
}
);
layerId = "6641C2CA-B9F9-47EE-AEEC-6BEE387D8CB9";
paths = (
{
closed = 1;
nodes = (
"45 0 LINE",
"130 0 LINE",
"160 96 LINE",
"165 96 LINE",
"189 36 OFFCURVE",
"234 -15 OFFCURVE",
"328 -15 CURVE SMOOTH",
"457 -15 OFFCURVE",
"545 78 OFFCURVE",
"573 239 CURVE SMOOTH",
"605 424 OFFCURVE",
"525 543 OFFCURVE",
"389 543 CURVE SMOOTH",
"308 543 OFFCURVE",
"255 499 OFFCURVE",
"229 449 CURVE",
"224 449 LINE",
"277 750 LINE",
"177 750 LINE"
);
},
{
closed = 1;
nodes = (
"456 458 OFFCURVE",
"497 384 OFFCURVE",
"473 244 CURVE SMOOTH",
"453 128 OFFCURVE",
"397 70 OFFCURVE",
"312 70 CURVE SMOOTH",
"217 70 OFFCURVE",
"167 144 OFFCURVE",
"190 274 CURVE SMOOTH",
"211 394 OFFCURVE",
"263 458 OFFCURVE",
"353 458 CURVE SMOOTH"
);
}
);
width = 634;
}
);
leftMetricsKey = h;
rightMetricsKey = o;
unicode = 0062;
userData = {
RMXScaler = {
source = b;
};
};
},
{
color = 7;
glyphname = c;
lastChange = "2018-05-15 14:03:00 +0000";
layers = (
{
anchors = (
{
name = bottom;
position = "{257, 0}";
},
{
name = top;
position = "{338, 523}";
}
);
background = {
anchors = (
{
name = bottom;
position = "{268, 0}";
},
{
name = top;
position = "{329, 515}";
}
);
paths = (
{
closed = 1;
nodes = (
"379 -15 OFFCURVE",
"461 42 OFFCURVE",
"486 157 CURVE",
"432 162 LINE",
"416 81 OFFCURVE",
"359 32 OFFCURVE",
"268 32 CURVE SMOOTH",
"176 32 OFFCURVE",
"118 90 OFFCURVE",
"118 205 CURVE SMOOTH",
"118 379 OFFCURVE",
"195 483 OFFCURVE",
"324 483 CURVE SMOOTH",
"411 483 OFFCURVE",
"455 436 OFFCURVE",
"457 352 CURVE",
"511 355 LINE",
"509 458 OFFCURVE",
"440 530 OFFCURVE",
"327 530 CURVE SMOOTH",
"167 530 OFFCURVE",
"63 400 OFFCURVE",
"63 206 CURVE SMOOTH",
"63 62 OFFCURVE",
"146 -15 OFFCURVE",
"265 -15 CURVE SMOOTH"
);
}
);
};
guideLines = (
{
angle = 80;
position = "{136, 353}";
}
);
layerId = "CC363ACD-D5A5-4E19-A940-9AF36D109D9E";
paths = (
{
closed = 1;
nodes = (
"379 -15 OFFCURVE",
"457 48 OFFCURVE",
"484 154 CURVE",
"432 163 LINE",
"402 78 OFFCURVE",
"356 36 OFFCURVE",
"263 36 CURVE SMOOTH",
"150 36 OFFCURVE",
"94 117 OFFCURVE",
"122 272 CURVE SMOOTH",
"147 411 OFFCURVE",
"213 487 OFFCURVE",
"326 487 CURVE SMOOTH",
"412 487 OFFCURVE",
"462 447 OFFCURVE",
"467 360 CURVE",
"520 363 LINE",
"514 471 OFFCURVE",
"445 538 OFFCURVE",
"331 538 CURVE SMOOTH",
"186 538 OFFCURVE",
"96 439 OFFCURVE",
"67 275 CURVE SMOOTH",
"34 91 OFFCURVE",
"118 -15 OFFCURVE",
"258 -15 CURVE SMOOTH"
);
}
);
width = 568;
},
{
anchors = (
{
name = bottom;
position = "{278, 0}";
},
{
name = top;
position = "{357, 535}";
}
);
background = {
anchors = (
{
name = bottom;
position = "{295, 0}";
},
{
name = top;
position = "{350, 535}";
}
);
paths = (
{
closed = 1;
nodes = (
"468 -15 OFFCURVE",
"535 58 OFFCURVE",
"567 192 CURVE",
"382 212 LINE",
"374 170 OFFCURVE",
"347 146 OFFCURVE",
"303 146 CURVE SMOOTH",
"260 146 OFFCURVE",
"240 174 OFFCURVE",
"240 225 CURVE SMOOTH",
"240 291 OFFCURVE",
"257 389 OFFCURVE",
"335 389 CURVE SMOOTH",
"385 389 OFFCURVE",
"394 361 OFFCURVE",
"396 317 CURVE",
"587 332 LINE",
"592 467 OFFCURVE",
"515 550 OFFCURVE",
"345 550 CURVE SMOOTH",
"136 550 OFFCURVE",
"34 410 OFFCURVE",
"34 213 CURVE SMOOTH",
"34 63 OFFCURVE",
"132 -15 OFFCURVE",
"294 -15 CURVE SMOOTH"
);
}
);
};
guideLines = (
{
angle = 80;
position = "{47, 347}";
}
);
layerId = "C1DA716A-5F29-4CD0-A38F-CCADF5849A80";
paths = (
{
closed = 1;
nodes = (
"462 -15 OFFCURVE",
"553 56 OFFCURVE",
"582 201 CURVE",
"390 227 LINE",
"374 176 OFFCURVE",
"356 145 OFFCURVE",
"304 145 CURVE SMOOTH",
"245 145 OFFCURVE",
"231 190 OFFCURVE",
"244 264 CURVE SMOOTH",
"259 347 OFFCURVE",
"285 390 OFFCURVE",
"340 390 CURVE SMOOTH",
"391 390 OFFCURVE",
"406 360 OFFCURVE",
"406 307 CURVE",
"599 317 LINE",
"598 451 OFFCURVE",
"542 550 OFFCURVE",
"355 550 CURVE SMOOTH",
"178 550 OFFCURVE",
"67 463 OFFCURVE",
"35 279 CURVE SMOOTH",
"3 94 OFFCURVE",
"99 -15 OFFCURVE",
"276 -15 CURVE SMOOTH"
);
}
);
width = 624;
},
{
anchors = (
{
name = bottom;
position = "{254, 0}";
},
{
name = top;
position = "{347, 528}";
}
);
background = {
anchors = (
{
name = bottom;
position = "{266, 0}";
},
{
name = top;
position = "{333, 520}";
}
);
paths = (
{
closed = 1;
nodes = (
"408 -15 OFFCURVE",
"480 48 OFFCURVE",
"508 164 CURVE",
"410 177 LINE",
"394 104 OFFCURVE",
"348 68 OFFCURVE",
"276 68 CURVE SMOOTH",
"195 68 OFFCURVE",
"154 117 OFFCURVE",
"154 207 CURVE SMOOTH",
"154 373 OFFCURVE",
"224 452 OFFCURVE",
"325 452 CURVE SMOOTH",
"401 452 OFFCURVE",
"434 413 OFFCURVE",
"433 340 CURVE",
"534 347 LINE",
"535 458 OFFCURVE",
"467 535 OFFCURVE",
"326 535 CURVE SMOOTH",
"159 535 OFFCURVE",
"51 403 OFFCURVE",
"51 211 CURVE SMOOTH",
"51 65 OFFCURVE",
"133 -15 OFFCURVE",
"267 -15 CURVE SMOOTH"
);
}
);
};
guideLines = (
{
angle = 80;
position = "{73, 353}";
}
);
layerId = "6641C2CA-B9F9-47EE-AEEC-6BEE387D8CB9";
paths = (
{
closed = 1;
nodes = (
"406 -15 OFFCURVE",
"480 45 OFFCURVE",
"509 163 CURVE",
"409 175 LINE",
"386 105 OFFCURVE",
"352 70 OFFCURVE",
"275 70 CURVE SMOOTH",
"181 70 OFFCURVE",
"136 139 OFFCURVE",
"160 274 CURVE SMOOTH",
"181 391 OFFCURVE",
"233 458 OFFCURVE",
"325 458 CURVE SMOOTH",
"400 458 OFFCURVE",
"435 419 OFFCURVE",
"441 350 CURVE",
"541 355 LINE",
"533 465 OFFCURVE",
"469 543 OFFCURVE",
"335 543 CURVE SMOOTH",
"177 543 OFFCURVE",
"89 449 OFFCURVE",
"59 274 CURVE SMOOTH",
"28 91 OFFCURVE",
"112 -15 OFFCURVE",
"265 -15 CURVE SMOOTH"
);
}
);
width = 582;
}
);
leftMetricsKey = o;
unicode = 0063;
userData = {
RMXScaler = {
source = c;
};
};
},
{
color = 7;
glyphname = d;
lastChange = "2018-05-18 12:23:34 +0000";
layers = (
{
anchors = (
{
name = topright;
position = "{660, 523}";
}
);
background = {
paths = (
{
closed = 1;
nodes = (
"473 750 LINE",
"473 434 LINE",
"469 434 LINE",
"438 496 OFFCURVE",
"377 538 OFFCURVE",
"291 538 CURVE SMOOTH",
"143 538 OFFCURVE",
"61 436 OFFCURVE",
"61 261 CURVE SMOOTH",
"61 87 OFFCURVE",
"143 -15 OFFCURVE",
"291 -15 CURVE SMOOTH",
"377 -15 OFFCURVE",
"437 32 OFFCURVE",
"470 95 CURVE",
"474 95 LINE",
"485 0 LINE",
"528 0 LINE",
"528 750 LINE"
);
},
{
closed = 1;
nodes = (
"417 486 OFFCURVE",
"477 384 OFFCURVE",
"477 261 CURVE SMOOTH",
"477 139 OFFCURVE",
"417 37 OFFCURVE",
"293 37 CURVE SMOOTH",
"176 37 OFFCURVE",
"118 110 OFFCURVE",
"118 261 CURVE SMOOTH",
"118 413 OFFCURVE",
"176 486 OFFCURVE",
"293 486 CURVE SMOOTH"
);
},
{
closed = 1;
nodes = (
"550 750 LINE",
"494 434 LINE",
"490 434 LINE",
"469 488 OFFCURVE",
"409 538 OFFCURVE",
"323 538 CURVE SMOOTH",
"190 538 OFFCURVE",
"94 446 OFFCURVE",
"63 271 CURVE SMOOTH",
"32 97 OFFCURVE",
"116 -15 OFFCURVE",
"252 -15 CURVE SMOOTH",
"348 -15 OFFCURVE",
"399 33 OFFCURVE",
"432 95 CURVE",
"436 95 LINE",
"430 0 LINE",
"473 0 LINE",
"605 750 LINE"
);
}
);
};
guideLines = (
{
angle = 80;
position = "{78, 353}";
}
);
layerId = "CC363ACD-D5A5-4E19-A940-9AF36D109D9E";
paths = (
{
closed = 1;
nodes = (
"550 750 LINE",
"493 428 LINE",
"489 428 LINE",
"469 480 OFFCURVE",
"427 538 OFFCURVE",
"321 538 CURVE SMOOTH",
"193 538 OFFCURVE",
"97 441 OFFCURVE",
"67 271 CURVE SMOOTH",
"34 82 OFFCURVE",
"120 -15 OFFCURVE",
"256 -15 CURVE SMOOTH",
"339 -15 OFFCURVE",
"398 27 OFFCURVE",
"431 89 CURVE",
"435 89 LINE",
"431 0 LINE",
"473 0 LINE",
"605 750 LINE"
);
},
{
closed = 1;
nodes = (
"443 487 OFFCURVE",
"492 394 OFFCURVE",
"468 257 CURVE SMOOTH",
"447 135 OFFCURVE",
"382 36 OFFCURVE",
"263 36 CURVE SMOOTH",
"156 36 OFFCURVE",
"94 105 OFFCURVE",
"123 271 CURVE SMOOTH",
"148 413 OFFCURVE",
"222 487 OFFCURVE",
"316 487 CURVE SMOOTH"
);
}
);
width = 621;
},
{
anchors = (
{
name = topright;
position = "{757, 535}";
}
);
background = {
paths = (
{
closed = 1;
nodes = (
"663 535 LINE",
"477 535 LINE",
"442 438 LINE",
"435 438 LINE",
"419 507 OFFCURVE",
"374 550 OFFCURVE",
"280 550 CURVE SMOOTH",
"151 550 OFFCURVE",
"63 441 OFFCURVE",
"32 267 CURVE SMOOTH",
"1 92 OFFCURVE",
"67 -15 OFFCURVE",
"196 -15 CURVE SMOOTH",
"285 -15 OFFCURVE",
"335 27 OFFCURVE",
"366 84 CURVE",
"373 84 LINE",
"321 -215 LINE",
"531 -215 LINE"
);
},
{
closed = 1;
nodes = (
"250 145 OFFCURVE",
"230 185 OFFCURVE",
"245 267 CURVE SMOOTH",
"260 350 OFFCURVE",
"283 390 OFFCURVE",
"343 390 CURVE SMOOTH",
"402 390 OFFCURVE",
"422 350 OFFCURVE",
"408 267 CURVE SMOOTH",
"394 185 OFFCURVE",
"369 145 OFFCURVE",
"310 145 CURVE SMOOTH"
);
},
{
closed = 1;
nodes = (
"491 750 LINE",
"438 451 LINE",
"431 451 LINE",
"420 498 OFFCURVE",
"373 550 OFFCURVE",
"280 550 CURVE SMOOTH",
"151 550 OFFCURVE",
"63 441 OFFCURVE",
"33 268 CURVE SMOOTH",
"2 92 OFFCURVE",
"67 -15 OFFCURVE",
"197 -15 CURVE SMOOTH",
"295 -15 OFFCURVE",
"343 38 OFFCURVE",
"375 97 CURVE",
"382 97 LINE",
"383 0 LINE",
"569 0 LINE",
"701 750 LINE"
);
}
);
};
layerId = "C1DA716A-5F29-4CD0-A38F-CCADF5849A80";
paths = (
{
closed = 1;
nodes = (
"491 750 LINE",
"436 441 LINE",
"429 441 LINE",
"418 488 OFFCURVE",
"383 550 OFFCURVE",
"280 550 CURVE SMOOTH",
"151 550 OFFCURVE",
"62 441 OFFCURVE",
"33 268 CURVE SMOOTH",
"3 92 OFFCURVE",
"77 -15 OFFCURVE",
"207 -15 CURVE SMOOTH",
"300 -15 OFFCURVE",
"346 28 OFFCURVE",
"378 87 CURVE",
"385 87 LINE",
"393 0 LINE",
"569 0 LINE",
"701 750 LINE"
);
},
{
closed = 1;
nodes = (
"402 390 OFFCURVE",
"422 350 OFFCURVE",
"408 268 CURVE SMOOTH",
"394 185 OFFCURVE",
"369 145 OFFCURVE",
"310 145 CURVE SMOOTH",
"250 145 OFFCURVE",
"230 185 OFFCURVE",
"245 267 CURVE SMOOTH",
"260 350 OFFCURVE",
"283 390 OFFCURVE",
"343 390 CURVE SMOOTH"
);
}
);
width = 676;
},
{
anchors = (
{
name = topright;
position = "{675, 528}";
}
);
background = {
paths = (
{
closed = 1;
nodes = (
"589 528 LINE",
"504 528 LINE",
"474 432 LINE",
"469 432 LINE",
"445 492 OFFCURVE",
"400 543 OFFCURVE",
"306 543 CURVE SMOOTH",
"180 543 OFFCURVE",
"84 450 OFFCURVE",
"53 279 CURVE SMOOTH",
"21 103 OFFCURVE",
"102 -15 OFFCURVE",
"233 -15 CURVE SMOOTH",
"324 -15 OFFCURVE",
"374 29 OFFCURVE",
"405 79 CURVE",
"410 79 LINE",
"357 -222 LINE",
"457 -222 LINE"
);
},
{
closed = 1;
nodes = (
"178 70 OFFCURVE",
"131 144 OFFCURVE",
"155 274 CURVE SMOOTH",
"178 399 OFFCURVE",
"227 458 OFFCURVE",
"322 458 CURVE SMOOTH",
"417 458 OFFCURVE",
"466 384 OFFCURVE",
"444 254 CURVE SMOOTH",
"425 144 OFFCURVE",
"371 70 OFFCURVE",
"271 70 CURVE SMOOTH"
);
},
{
closed = 1;
nodes = (
"528 750 LINE",
"474 444 LINE",
"469 444 LINE",
"451 497 OFFCURVE",
"392 543 OFFCURVE",
"311 543 CURVE SMOOTH",
"180 543 OFFCURVE",
"84 450 OFFCURVE",
"53 279 CURVE SMOOTH",
"21 103 OFFCURVE",
"102 -15 OFFCURVE",
"233 -15 CURVE SMOOTH",
"326 -15 OFFCURVE",
"381 31 OFFCURVE",
"409 91 CURVE",
"414 91 LINE",
"411 0 LINE",
"496 0 LINE",
"628 750 LINE"
);
}
);
};
guideLines = (
{
angle = 80;
position = "{461, 347}";
}
);
layerId = "6641C2CA-B9F9-47EE-AEEC-6BEE387D8CB9";
paths = (
{
closed = 1;
nodes = (
"528 750 LINE",
"472 434 LINE",
"467 434 LINE",
"452 482 OFFCURVE",
"412 543 OFFCURVE",
"311 543 CURVE SMOOTH",
"178 543 OFFCURVE",
"89 450 OFFCURVE",
"61 289 CURVE SMOOTH",
"29 104 OFFCURVE",
"107 -15 OFFCURVE",
"248 -15 CURVE SMOOTH",
"336 -15 OFFCURVE",
"384 31 OFFCURVE",
"412 81 CURVE",
"417 81 LINE",
"413 0 LINE",
"496 0 LINE",
"628 750 LINE"
);
},
{
closed = 1;
nodes = (
"418 458 OFFCURVE",
"468 383 OFFCURVE",
"445 254 CURVE SMOOTH",
"424 134 OFFCURVE",
"372 70 OFFCURVE",
"272 70 CURVE SMOOTH",
"179 70 OFFCURVE",
"137 144 OFFCURVE",
"161 284 CURVE SMOOTH",
"181 400 OFFCURVE",
"237 458 OFFCURVE",
"322 458 CURVE SMOOTH"
);
}
);
width = 634;
}
);
leftMetricsKey = o;
rightMetricsKey = "=|n";
unicode = 0064;
userData = {
RMXScaler = {
source = d;
};
};
},
{
color = 7;
glyphname = e;
lastChange = "2018-04-05 23:12:18 +0000";
layers = (
{
anchors = (
{
name = ogonek;
position = "{356, 0}";
},
{
name = top;
position = "{357, 525}";
}
);
associatedMasterId = "CC363ACD-D5A5-4E19-A940-9AF36D109D9E";
background = {
anchors = (
{
name = ogonek;
position = "{409, 0}";
},
{
name = top;
position = "{314, 525}";
}
);
paths = (
{
closed = 1;
nodes = (
"436 -15 OFFCURVE",
"508 49 OFFCURVE",
"541 147 CURVE",
"400 147 LINE",
"383 111 OFFCURVE",
"353 95 OFFCURVE",
"297 95 CURVE SMOOTH",
"221 95 OFFCURVE",
"189 130 OFFCURVE",
"189 205 CURVE SMOOTH",
"189 222 OFFCURVE",
"191 241 OFFCURVE",
"197 286 CURVE SMOOTH",
"211 383 OFFCURVE",
"255 429 OFFCURVE",
"335 429 CURVE SMOOTH",
"399 429 OFFCURVE",
"430 400 OFFCURVE",
"430 339 CURVE SMOOTH",
"430 328 OFFCURVE",
"427 303 OFFCURVE",
"423 287 CURVE",
"444 311 LINE",
"168 311 LINE",
"153 221 LINE",
"551 221 LINE",
"557 254 LINE SMOOTH",
"562 284 OFFCURVE",
"566 309 OFFCURVE",
"566 334 CURVE SMOOTH",
"566 468 OFFCURVE",
"485 540 OFFCURVE",
"336 540 CURVE SMOOTH",
"137 540 OFFCURVE",
"49 395 OFFCURVE",
"49 210 CURVE SMOOTH",
"49 65 OFFCURVE",
"129 -15 OFFCURVE",
"288 -15 CURVE SMOOTH"
);
}
);
};
guideLines = (
{
angle = 91.7357;
position = "{536, 225}";
}
);
layerId = "EAB54FD9-3D60-4BB1-8D7E-6213FCC49E20";
name = "Aug 30 17, 12:25";
paths = (
{
closed = 1;
nodes = (
"418 -15 OFFCURVE",
"492 49 OFFCURVE",
"528 147 CURVE",
"388 147 LINE",
"370 111 OFFCURVE",
"343 95 OFFCURVE",
"284 95 CURVE SMOOTH",
"219 95 OFFCURVE",
"189 129 OFFCURVE",
"189 207 CURVE SMOOTH",
"189 376 OFFCURVE",
"251 429 OFFCURVE",
"338 429 CURVE SMOOTH",
"415 429 OFFCURVE",
"439 391 OFFCURVE",
"422 306 CURVE SMOOTH",
"418 287 LINE",
"440 311 LINE",
"172 311 LINE",
"156 221 LINE",
"545 221 LINE",
"556 284 LINE SMOOTH",
"584 442 OFFCURVE",
"525 540 OFFCURVE",
"359 540 CURVE SMOOTH",
"178 540 OFFCURVE",
"47 416 OFFCURVE",
"47 200 CURVE SMOOTH",
"47 70 OFFCURVE",
"116 -15 OFFCURVE",
"265 -15 CURVE SMOOTH"
);
}
);
width = 602;
},
{
anchors = (
{
name = bottom;
position = "{265, 0}";
},
{
name = ogonek;
position = "{328, 0}";
},
{
name = top;
position = "{334, 523}";
}
);
background = {
anchors = (
{
name = bottom;
position = "{262, 0}";
},
{
name = ogonek;
position = "{329, 0}";
},
{
name = top;
position = "{314, 515}";
}
);
paths = (
{
closed = 1;
nodes = (
"362 -15 OFFCURVE",
"435 28 OFFCURVE",
"463 119 CURVE",
"410 124 LINE",
"390 64 OFFCURVE",
"340 32 OFFCURVE",
"258 32 CURVE SMOOTH",
"164 32 OFFCURVE",
"107 100 OFFCURVE",
"107 200 CURVE SMOOTH",
"107 348 OFFCURVE",
"168 483 OFFCURVE",
"310 483 CURVE SMOOTH",
"406 483 OFFCURVE",
"455 427 OFFCURVE",
"455 327 CURVE SMOOTH",
"455 305 OFFCURVE",
"451 281 OFFCURVE",
"445 248 CURVE",
"461 280 LINE",
"97 280 LINE",
"89 235 LINE",
"493 235 LINE",
"500 270 OFFCURVE",
"505 299 OFFCURVE",
"505 327 CURVE SMOOTH",
"505 450 OFFCURVE",
"436 530 OFFCURVE",
"312 530 CURVE SMOOTH",
"143 530 OFFCURVE",
"53 374 OFFCURVE",
"53 200 CURVE SMOOTH",
"53 67 OFFCURVE",
"138 -15 OFFCURVE",
"256 -15 CURVE SMOOTH"
);
}
);
};
guideLines = (
{
angle = 80;
position = "{136, 353}";
}
);
layerId = "CC363ACD-D5A5-4E19-A940-9AF36D109D9E";
paths = (
{
closed = 1;
nodes = (
"380 -15 OFFCURVE",
"445 37 OFFCURVE",
"481 126 CURVE",
"428 133 LINE",
"400 69 OFFCURVE",
"354 34 OFFCURVE",
"269 34 CURVE SMOOTH",
"154 34 OFFCURVE",
"93 107 OFFCURVE",
"121 267 CURVE SMOOTH",
"147 417 OFFCURVE",
"217 489 OFFCURVE",
"328 489 CURVE SMOOTH",
"422 489 OFFCURVE",
"470 441 OFFCURVE",
"470 340 CURVE SMOOTH",
"470 321 OFFCURVE",
"468 299 OFFCURVE",
"464 276 CURVE",
"477 290 LINE",
"105 290 LINE",
"97 244 LINE",
"512 244 LINE",
"517 272 OFFCURVE",
"522 311 OFFCURVE",
"522 336 CURVE SMOOTH",
"522 465 OFFCURVE",
"452 538 OFFCURVE",
"331 538 CURVE SMOOTH",
"195 538 OFFCURVE",
"97 444 OFFCURVE",
"67 272 CURVE SMOOTH",
"34 82 OFFCURVE",
"123 -15 OFFCURVE",
"264 -15 CURVE SMOOTH"
);
}
);
width = 580;
},
{
anchors = (
{
name = bottom;
position = "{299, 0}";
},
{
name = ogonek;
position = "{360, 0}";
},
{
name = top;
position = "{359, 535}";
}
);
background = {
anchors = (
{
name = bottom;
position = "{300, 0}";
},
{
name = ogonek;
position = "{371, 0}";
},
{
name = top;
position = "{346, 535}";
}
);
paths = (
{
closed = 1;
nodes = (
"465 -15 OFFCURVE",
"540 56 OFFCURVE",
"565 165 CURVE",
"381 185 LINE",
"373 152 OFFCURVE",
"353 131 OFFCURVE",
"307 131 CURVE SMOOTH",
"251 131 OFFCURVE",
"225 160 OFFCURVE",
"225 222 CURVE SMOOTH",
"225 352 OFFCURVE",
"257 411 OFFCURVE",
"335 411 CURVE SMOOTH",
"385 411 OFFCURVE",
"408 384 OFFCURVE",
"408 338 CURVE SMOOTH",
"408 322 OFFCURVE",
"406 302 OFFCURVE",
"401 286 CURVE",
"447 323 LINE",
"220 323 LINE",
"203 225 LINE",
"577 225 LINE",
"584 257 OFFCURVE",
"587 303 OFFCURVE",
"587 331 CURVE SMOOTH",
"587 470 OFFCURVE",
"505 550 OFFCURVE",
"344 550 CURVE SMOOTH",
"126 550 OFFCURVE",
"35 398 OFFCURVE",
"35 214 CURVE SMOOTH",
"35 66 OFFCURVE",
"137 -15 OFFCURVE",
"295 -15 CURVE SMOOTH"
);
}
);
};
guideLines = (
{
angle = 260.2101;
position = "{48, 353}";
}
);
layerId = "C1DA716A-5F29-4CD0-A38F-CCADF5849A80";
paths = (
{
closed = 1;
nodes = (
"460 -15 OFFCURVE",
"543 36 OFFCURVE",
"586 148 CURVE",
"397 175 LINE",
"380 141 OFFCURVE",
"360 125 OFFCURVE",
"313 125 CURVE SMOOTH",
"248 125 OFFCURVE",
"218 162 OFFCURVE",
"237 268 CURVE SMOOTH",
"255 371 OFFCURVE",
"280 411 OFFCURVE",
"346 411 CURVE SMOOTH",
"397 411 OFFCURVE",
"421 386 OFFCURVE",
"421 337 CURVE SMOOTH",
"421 326 OFFCURVE",
"420 314 OFFCURVE",
"418 301 CURVE",
"442 331 LINE",
"224 331 LINE",
"203 210 LINE",
"599 211 LINE",
"611 263 OFFCURVE",
"614 296 OFFCURVE",
"614 333 CURVE SMOOTH",
"614 465 OFFCURVE",
"522 553 OFFCURVE",
"361 553 CURVE SMOOTH",
"181 553 OFFCURVE",
"68 469 OFFCURVE",
"35 279 CURVE SMOOTH",
"4 100 OFFCURVE",
"102 -15 OFFCURVE",
"303 -15 CURVE SMOOTH"
);
}
);
width = 644;
},
{
anchors = (
{
name = ogonek;
position = "{404, 0}";
},
{
name = top;
position = "{309, 525}";
}
);
associatedMasterId = "CC363ACD-D5A5-4E19-A940-9AF36D109D9E";
background = {
paths = (
{
closed = 1;
nodes = (
"483 -15 OFFCURVE",
"587 123 OFFCURVE",
"587 315 CURVE SMOOTH",
"587 461 OFFCURVE",
"496 540 OFFCURVE",
"343 540 CURVE SMOOTH",
"156 540 OFFCURVE",
"52 402 OFFCURVE",
"52 210 CURVE SMOOTH",
"52 64 OFFCURVE",
"143 -15 OFFCURVE",
"296 -15 CURVE SMOOTH"
);
},
{
closed = 1;
nodes = (
"228 100 OFFCURVE",
"194 137 OFFCURVE",
"194 213 CURVE SMOOTH",
"194 350 OFFCURVE",
"245 425 OFFCURVE",
"339 425 CURVE SMOOTH",
"411 425 OFFCURVE",
"445 388 OFFCURVE",
"445 312 CURVE SMOOTH",
"445 175 OFFCURVE",
"394 100 OFFCURVE",
"300 100 CURVE SMOOTH"
);
}
);
};
guideLines = (
{
angle = 91.7357;
position = "{531, 225}";
}
);
layerId = "E5273CF7-7070-45AC-A945-88C8A9873BCE";
name = "Oct 3 17, 17:55";
paths = (
{
closed = 1;
nodes = (
"429 -15 OFFCURVE",
"500 49 OFFCURVE",
"533 147 CURVE",
"392 147 LINE",
"375 111 OFFCURVE",
"346 95 OFFCURVE",
"292 95 CURVE SMOOTH",
"220 95 OFFCURVE",
"189 130 OFFCURVE",
"189 205 CURVE SMOOTH",
"189 325 OFFCURVE",
"223 429 OFFCURVE",
"335 429 CURVE SMOOTH",
"397 429 OFFCURVE",
"427 400 OFFCURVE",
"427 339 CURVE SMOOTH",
"427 328 OFFCURVE",
"424 303 OFFCURVE",
"420 287 CURVE",
"441 311 LINE",
"167 311 LINE",
"152 221 LINE",
"548 221 LINE",
"560 289 OFFCURVE",
"563 308 OFFCURVE",
"563 334 CURVE SMOOTH",
"563 468 OFFCURVE",
"483 540 OFFCURVE",
"337 540 CURVE SMOOTH",
"153 540 OFFCURVE",
"52 394 OFFCURVE",
"52 210 CURVE SMOOTH",
"52 65 OFFCURVE",
"130 -15 OFFCURVE",
"283 -15 CURVE SMOOTH"
);
}
);
width = 605;
},
{
anchors = (
{
name = ogonek;
position = "{371, 0}";
}
);
associatedMasterId = "C1DA716A-5F29-4CD0-A38F-CCADF5849A80";
background = {
anchors = (
{
name = top;
position = "{368, 535}";
}
);
paths = (
{
closed = 1;
nodes = (
"517 -15 OFFCURVE",
"606 136 OFFCURVE",
"609 315 CURVE SMOOTH",
"612 473 OFFCURVE",
"512 550 OFFCURVE",
"345 550 CURVE SMOOTH",
"126 550 OFFCURVE",
"37 399 OFFCURVE",
"34 220 CURVE SMOOTH",
"31 62 OFFCURVE",
"131 -15 OFFCURVE",
"298 -15 CURVE SMOOTH"
);
},
{
closed = 1;
nodes = (
"261 143 OFFCURVE",
"238 164 OFFCURVE",
"238 221 CURVE SMOOTH",
"238 326 OFFCURVE",
"273 392 OFFCURVE",
"336 392 CURVE SMOOTH",
"382 392 OFFCURVE",
"405 371 OFFCURVE",
"405 314 CURVE SMOOTH",
"405 209 OFFCURVE",
"370 143 OFFCURVE",
"307 143 CURVE SMOOTH"
);
}
);
};
layerId = "F8D2E8E2-B06B-4F49-BA7A-D31E7DE54CD7";
name = "Oct 4 17, 12:32";
paths = (
{
closed = 1;
nodes = (
"463 -15 OFFCURVE",
"543 56 OFFCURVE",
"574 180 CURVE",
"384 180 LINE",
"374 151 OFFCURVE",
"355 132 OFFCURVE",
"306 132 CURVE SMOOTH",
"250 132 OFFCURVE",
"226 169 OFFCURVE",
"226 223 CURVE SMOOTH",
"226 322 OFFCURVE",
"249 410 OFFCURVE",
"335 410 CURVE SMOOTH",
"391 410 OFFCURVE",
"413 383 OFFCURVE",
"413 338 CURVE SMOOTH",
"413 321 OFFCURVE",
"411 307 OFFCURVE",
"407 286 CURVE",
"451 323 LINE",
"221 323 LINE",
"204 225 LINE",
"583 225 LINE",
"592 257 OFFCURVE",
"596 303 OFFCURVE",
"596 328 CURVE SMOOTH",
"596 459 OFFCURVE",
"508 550 OFFCURVE",
"354 550 CURVE SMOOTH",
"127 550 OFFCURVE",
"34 400 OFFCURVE",
"34 215 CURVE SMOOTH",
"34 73 OFFCURVE",
"138 -15 OFFCURVE",
"293 -15 CURVE SMOOTH"
);
}
);
width = 627;
},
{
anchors = (
{
name = bottom;
position = "{271, 0}";
},
{
name = ogonek;
position = "{332, 0}";
},
{
name = top;
position = "{335, 528}";
}
);
background = {
anchors = (
{
name = bottom;
position = "{287, 0}";
},
{
name = ogonek;
position = "{357, 0}";
},
{
name = top;
position = "{331, 520}";
}
);
paths = (
{
closed = 1;
nodes = (
"401 -15 OFFCURVE",
"475 38 OFFCURVE",
"501 129 CURVE",
"403 139 LINE",
"387 92 OFFCURVE",
"349 65 OFFCURVE",
"282 65 CURVE SMOOTH",
"197 65 OFFCURVE",
"152 116 OFFCURVE",
"152 204 CURVE SMOOTH",
"152 324 OFFCURVE",
"190 456 OFFCURVE",
"326 456 CURVE SMOOTH",
"403 456 OFFCURVE",
"442 414 OFFCURVE",
"442 335 CURVE SMOOTH",
"442 317 OFFCURVE",
"439 293 OFFCURVE",
"434 269 CURVE",
"453 296 LINE",
"137 296 LINE",
"125 228 LINE",
"523 228 LINE",
"531 264 OFFCURVE",
"536 296 OFFCURVE",
"536 329 CURVE SMOOTH",
"536 458 OFFCURVE",
"461 535 OFFCURVE",
"329 535 CURVE SMOOTH",
"156 535 OFFCURVE",
"55 394 OFFCURVE",
"55 205 CURVE SMOOTH",
"55 66 OFFCURVE",
"140 -15 OFFCURVE",
"278 -15 CURVE SMOOTH"
);
}
);
};
guideLines = (
{
angle = 80;
position = "{173, 353}";
}
);
layerId = "6641C2CA-B9F9-47EE-AEEC-6BEE387D8CB9";
paths = (
{
closed = 1;
nodes = (
"409 -15 OFFCURVE",
"466 45 OFFCURVE",
"500 136 CURVE",
"403 146 LINE",
"379 100 OFFCURVE",
"347 70 OFFCURVE",
"279 70 CURVE SMOOTH",
"184 70 OFFCURVE",
"135 134 OFFCURVE",
"157 264 CURVE SMOOTH",
"180 399 OFFCURVE",
"231 462 OFFCURVE",
"327 462 CURVE SMOOTH",
"403 462 OFFCURVE",
"443 422 OFFCURVE",
"442 342 CURVE SMOOTH",
"442 326 OFFCURVE",
"440 307 OFFCURVE",
"437 289 CURVE",
"454 308 LINE",
"136 308 LINE",
"123 233 LINE",
"525 233 LINE",
"532 272 OFFCURVE",
"536 313 OFFCURVE",
"536 346 CURVE SMOOTH",
"536 465 OFFCURVE",
"460 544 OFFCURVE",
"332 544 CURVE SMOOTH",
"188 544 OFFCURVE",
"89 451 OFFCURVE",
"59 273 CURVE SMOOTH",
"31 104 OFFCURVE",
"106 -15 OFFCURVE",
"269 -15 CURVE SMOOTH"
);
}
);
width = 590;
}
);
leftMetricsKey = o;
unicode = 0065;
userData = {
RMXScaler = {
source = e;
};
};
},
{
color = 7;
glyphname = f;
lastChange = "2018-03-22 12:45:33 +0000";
layers = (
{
background = {
paths = (
{
closed = 1;
nodes = (
"353 474 LINE",
"353 523 LINE",
"45 523 LINE",
"45 474 LINE"
);
},
{
closed = 1;
nodes = (
"361 760 OFFCURVE",
"332 765 OFFCURVE",
"308 765 CURVE SMOOTH",
"203 765 OFFCURVE",
"150 708 OFFCURVE",
"150 578 CURVE SMOOTH",
"150 0 LINE",
"205 0 LINE",
"205 577 LINE SMOOTH",
"205 675 OFFCURVE",
"229 715 OFFCURVE",
"313 715 CURVE SMOOTH",
"330 715 OFFCURVE",
"352 712 OFFCURVE",
"367 708 CURVE",
"375 755 LINE"
);
}
);
};
layerId = "CC363ACD-D5A5-4E19-A940-9AF36D109D9E";
paths = (
{
closed = 1;
nodes = (
"377 474 LINE",
"385 523 LINE",
"86 523 LINE",
"78 474 LINE"
);
},
{
closed = 1;
nodes = (
"435 757 OFFCURVE",
"396 765 OFFCURVE",
"365 765 CURVE SMOOTH",
"277 765 OFFCURVE",
"226 721 OFFCURVE",
"206 606 CURVE SMOOTH",
"98 0 LINE",
"153 0 LINE",
"259 599 LINE SMOOTH",
"274 686 OFFCURVE",
"305 715 OFFCURVE",
"365 715 CURVE SMOOTH",
"393 715 OFFCURVE",
"417 711 OFFCURVE",
"438 705 CURVE",
"450 751 LINE"
);
}
);
width = 356;
},
{
background = {
paths = (
{
closed = 1;
nodes = (
"431 380 LINE",
"431 535 LINE",
"15 535 LINE",
"15 380 LINE"
);
},
{
closed = 1;
nodes = (
"425 757 OFFCURVE",
"373 765 OFFCURVE",
"315 765 CURVE SMOOTH",
"161 765 OFFCURVE",
"98 706 OFFCURVE",
"98 572 CURVE SMOOTH",
"98 0 LINE",
"308 0 LINE",
"308 529 LINE SMOOTH",
"308 576 OFFCURVE",
"317 603 OFFCURVE",
"371 603 CURVE SMOOTH",
"396 603 OFFCURVE",
"419 600 OFFCURVE",
"430 598 CURVE",
"450 750 LINE"
);
}
);
};
layerId = "C1DA716A-5F29-4CD0-A38F-CCADF5849A80";
paths = (
{
closed = 1;
nodes = (
"446 380 LINE",
"473 535 LINE",
"67 535 LINE",
"40 380 LINE"
);
},
{
closed = 1;
nodes = (
"477 756 OFFCURVE",
"422 765 OFFCURVE",
"368 765 CURVE SMOOTH",
"248 765 OFFCURVE",
"182 713 OFFCURVE",
"158 579 CURVE SMOOTH",
"56 0 LINE",
"266 0 LINE",
"361 536 LINE SMOOTH",
"370 586 OFFCURVE",
"381 603 OFFCURVE",
"420 603 CURVE SMOOTH",
"442 603 OFFCURVE",
"467 599 OFFCURVE",
"481 595 CURVE",
"515 744 LINE"
);
}
);
width = 421;
},
{
background = {
paths = (
{
closed = 1;
nodes = (
"369 443 LINE",
"369 528 LINE",
"35 528 LINE",
"35 443 LINE"
);
},
{
closed = 1;
nodes = (
"367 761 OFFCURVE",
"335 765 OFFCURVE",
"306 765 CURVE SMOOTH",
"198 765 OFFCURVE",
"131 713 OFFCURVE",
"131 580 CURVE SMOOTH",
"131 0 LINE",
"231 0 LINE",
"231 573 LINE SMOOTH",
"231 651 OFFCURVE",
"259 678 OFFCURVE",
"324 678 CURVE SMOOTH",
"344 678 OFFCURVE",
"363 676 OFFCURVE",
"376 673 CURVE",
"386 756 LINE"
);
}
);
};
layerId = "6641C2CA-B9F9-47EE-AEEC-6BEE387D8CB9";
paths = (
{
closed = 1;
nodes = (
"391 443 LINE",
"406 528 LINE",
"82 528 LINE",
"68 443 LINE"
);
},
{
closed = 1;
nodes = (
"439 757 OFFCURVE",
"403 765 OFFCURVE",
"356 765 CURVE SMOOTH",
"269 765 OFFCURVE",
"211 721 OFFCURVE",
"192 610 CURVE SMOOTH",
"85 0 LINE",
"185 0 LINE",
"289 588 LINE SMOOTH",
"301 654 OFFCURVE",
"321 678 OFFCURVE",
"373 678 CURVE SMOOTH",
"399 678 OFFCURVE",
"430 672 OFFCURVE",
"441 669 CURVE",
"459 750 LINE"
);
}
);
width = 377;
}
);
unicode = 0066;
userData = {
RMXScaler = {
source = f;
};
};
},
{
color = 7;
glyphname = g;
lastChange = "2018-04-03 12:02:20 +0000";
layers = (
{
anchors = (
{
name = top;
position = "{380, 525}";
}
);
associatedMasterId = "CC363ACD-D5A5-4E19-A940-9AF36D109D9E";
background = {
paths = (
{
closed = 1;
nodes = (
"224 131 OFFCURVE",
"190 167 OFFCURVE",
"190 242 CURVE SMOOTH",
"190 341 OFFCURVE",
"235 420 OFFCURVE",
"337 420 CURVE SMOOTH",
"407 420 OFFCURVE",
"440 389 OFFCURVE",
"440 317 CURVE SMOOTH",
"440 214 OFFCURVE",
"396 131 OFFCURVE",
"293 131 CURVE SMOOTH"
);
},
{
closed = 0;
nodes = (
"463 437 LINE",
"445 506 OFFCURVE",
"390 540 OFFCURVE",
"313 540 CURVE SMOOTH",
"152 540 OFFCURVE",
"48 407 OFFCURVE",
"48 234 CURVE SMOOTH",
"48 91 OFFCURVE",
"120 15 OFFCURVE",
"237 15 CURVE SMOOTH",
"305 15 OFFCURVE",
"364 50 OFFCURVE",
"404 110 CURVE"
);
}
);
};
layerId = "5EC14379-3221-4247-9F84-B6206966E7EE";
name = "Aug 30 17, 12:39";
paths = (
{
closed = 1;
nodes = (
"471 434 LINE",
"465 434 LINE",
"457 497 OFFCURVE",
"407 540 OFFCURVE",
"323 540 CURVE SMOOTH",
"144 540 OFFCURVE",
"49 386 OFFCURVE",
"49 219 CURVE SMOOTH",
"49 103 OFFCURVE",
"105 15 OFFCURVE",
"230 15 CURVE SMOOTH",
"324 15 OFFCURVE",
"378 69 OFFCURVE",
"403 103 CURVE",
"409 103 LINE",
"399 45 LINE SMOOTH",
"382 -55 OFFCURVE",
"348 -99 OFFCURVE",
"268 -99 CURVE SMOOTH",
"197 -99 OFFCURVE",
"169 -81 OFFCURVE",
"168 -35 CURVE",
"26 -35 LINE",
"21 -147 OFFCURVE",
"93 -210 OFFCURVE",
"253 -210 CURVE SMOOTH",
"436 -210 OFFCURVE",
"509 -124 OFFCURVE",
"543 69 CURVE SMOOTH",
"623 525 LINE",
"500 525 LINE"
);
},
{
closed = 1;
nodes = (
"225 127 OFFCURVE",
"195 167 OFFCURVE",
"195 235 CURVE SMOOTH",
"195 335 OFFCURVE",
"238 418 OFFCURVE",
"342 418 CURVE SMOOTH",
"410 418 OFFCURVE",
"443 374 OFFCURVE",
"443 308 CURVE SMOOTH",
"443 203 OFFCURVE",
"391 127 OFFCURVE",
"291 127 CURVE SMOOTH"
);
}
);
width = 643;
},
{
anchors = (
{
name = top;
position = "{351, 523}";
}
);
background = {
paths = (
{
closed = 1;
nodes = (
"549 750 LINE",
"492 428 LINE",
"488 428 LINE",
"468 480 OFFCURVE",
"426 538 OFFCURVE",
"320 538 CURVE SMOOTH",
"192 538 OFFCURVE",
"92 441 OFFCURVE",
"62 271 CURVE SMOOTH",
"29 82 OFFCURVE",
"119 -15 OFFCURVE",
"255 -15 CURVE SMOOTH",
"338 -15 OFFCURVE",
"397 27 OFFCURVE",
"430 89 CURVE",
"434 89 LINE",
"429 0 LINE",
"472 0 LINE",
"604 750 LINE"
);
},
{
closed = 1;
nodes = (
"442 487 OFFCURVE",
"491 394 OFFCURVE",
"467 257 CURVE SMOOTH",
"446 135 OFFCURVE",
"381 36 OFFCURVE",
"262 36 CURVE SMOOTH",
"155 36 OFFCURVE",
"89 105 OFFCURVE",
"118 271 CURVE SMOOTH",
"143 413 OFFCURVE",
"221 487 OFFCURVE",
"315 487 CURVE SMOOTH"
);
}
);
};
guideLines = (
{
angle = 80;
position = "{481, 347}";
}
);
layerId = "CC363ACD-D5A5-4E19-A940-9AF36D109D9E";
paths = (
{
closed = 1;
nodes = (
"376 -214 OFFCURVE",
"448 -139 OFFCURVE",
"479 39 CURVE SMOOTH",
"564 523 LINE",
"522 523 LINE",
"493 428 LINE",
"489 428 LINE",
"468 479 OFFCURVE",
"422 538 OFFCURVE",
"324 538 CURVE SMOOTH",
"187 538 OFFCURVE",
"96 436 OFFCURVE",
"68 278 CURVE SMOOTH",
"37 106 OFFCURVE",
"112 -1 OFFCURVE",
"250 -1 CURVE SMOOTH",
"342 -1 OFFCURVE",
"397 48 OFFCURVE",
"433 112 CURVE",
"437 112 LINE",
"424 41 LINE SMOOTH",
"397 -104 OFFCURVE",
"348 -164 OFFCURVE",
"234 -164 CURVE SMOOTH",
"134 -164 OFFCURVE",
"91 -123 OFFCURVE",
"83 -55 CURVE",
"29 -57 LINE",
"37 -154 OFFCURVE",
"98 -214 OFFCURVE",
"229 -214 CURVE SMOOTH"
);
},
{
closed = 1;
nodes = (
"147 49 OFFCURVE",
"98 129 OFFCURVE",
"123 273 CURVE SMOOTH",
"147 410 OFFCURVE",
"216 486 OFFCURVE",
"319 486 CURVE SMOOTH",
"441 486 OFFCURVE",
"488 389 OFFCURVE",
"468 273 CURVE SMOOTH",
"447 153 OFFCURVE",
"369 49 OFFCURVE",
"255 49 CURVE SMOOTH"
);
}
);
width = 620;
},
{
anchors = (
{
name = top;
position = "{384, 535}";
}
);
background = {
paths = (
{
closed = 1;
nodes = (
"487 750 LINE",
"432 441 LINE",
"425 441 LINE",
"414 488 OFFCURVE",
"379 550 OFFCURVE",
"276 550 CURVE SMOOTH",
"147 550 OFFCURVE",
"58 441 OFFCURVE",
"29 268 CURVE SMOOTH",
"-1 92 OFFCURVE",
"73 -15 OFFCURVE",
"203 -15 CURVE SMOOTH",
"291 -15 OFFCURVE",
"337 28 OFFCURVE",
"369 87 CURVE",
"376 87 LINE",
"379 0 LINE",
"565 0 LINE",
"697 750 LINE"
);
},
{
closed = 1;
nodes = (
"398 390 OFFCURVE",
"418 350 OFFCURVE",
"404 268 CURVE SMOOTH",
"390 185 OFFCURVE",
"365 145 OFFCURVE",
"306 145 CURVE SMOOTH",
"246 145 OFFCURVE",
"226 185 OFFCURVE",
"241 267 CURVE SMOOTH",
"256 350 OFFCURVE",
"279 390 OFFCURVE",
"339 390 CURVE SMOOTH"
);
}
);
};
layerId = "C1DA716A-5F29-4CD0-A38F-CCADF5849A80";
paths = (
{
closed = 1;
nodes = (
"463 -210 OFFCURVE",
"545 -109 OFFCURVE",
"578 78 CURVE SMOOTH",
"659 535 LINE",
"483 535 LINE",
"440 433 LINE",
"433 433 LINE",
"420 482 OFFCURVE",
"384 550 OFFCURVE",
"273 550 CURVE SMOOTH",
"145 550 OFFCURVE",
"63 450 OFFCURVE",
"38 296 CURVE SMOOTH",
"11 128 OFFCURVE",
"80 32 OFFCURVE",
"206 32 CURVE SMOOTH",
"296 32 OFFCURVE",
"338 67 OFFCURVE",
"369 113 CURVE",
"375 113 LINE",
"362 39 LINE SMOOTH",
"350 -28 OFFCURVE",
"332 -60 OFFCURVE",
"271 -60 CURVE SMOOTH",
"222 -60 OFFCURVE",
"208 -37 OFFCURVE",
"199 1 CURVE",
"-16 -14 LINE",
"-8 -136 OFFCURVE",
"67 -210 OFFCURVE",
"251 -210 CURVE SMOOTH"
);
},
{
closed = 1;
nodes = (
"256 167 OFFCURVE",
"229 205 OFFCURVE",
"243 284 CURVE SMOOTH",
"256 355 OFFCURVE",
"285 395 OFFCURVE",
"338 395 CURVE SMOOTH",
"396 395 OFFCURVE",
"419 355 OFFCURVE",
"407 284 CURVE SMOOTH",
"394 205 OFFCURVE",
"367 167 OFFCURVE",
"309 167 CURVE SMOOTH"
);
}
);
width = 672;
},
{
anchors = (
{
name = top;
position = "{356, 528}";
}
);
background = {
paths = (
{
closed = 1;
nodes = (
"527 750 LINE",
"471 434 LINE",
"466 434 LINE",
"448 492 OFFCURVE",
"401 543 OFFCURVE",
"310 543 CURVE SMOOTH",
"179 543 OFFCURVE",
"83 450 OFFCURVE",
"52 279 CURVE SMOOTH",
"20 103 OFFCURVE",
"101 -15 OFFCURVE",
"242 -15 CURVE SMOOTH",
"325 -15 OFFCURVE",
"378 31 OFFCURVE",
"406 81 CURVE",
"411 81 LINE",
"410 0 LINE",
"495 0 LINE",
"627 750 LINE"
);
},
{
closed = 1;
nodes = (
"416 458 OFFCURVE",
"464 383 OFFCURVE",
"443 264 CURVE SMOOTH",
"422 144 OFFCURVE",
"370 70 OFFCURVE",
"270 70 CURVE SMOOTH",
"177 70 OFFCURVE",
"130 144 OFFCURVE",
"153 274 CURVE SMOOTH",
"175 399 OFFCURVE",
"226 458 OFFCURVE",
"320 458 CURVE SMOOTH"
);
}
);
};
guideLines = (
{
angle = 80;
position = "{73, 353}";
}
);
layerId = "6641C2CA-B9F9-47EE-AEEC-6BEE387D8CB9";
paths = (
{
closed = 1;
nodes = (
"404 -210 OFFCURVE",
"475 -117 OFFCURVE",
"503 44 CURVE SMOOTH",
"588 528 LINE",
"505 528 LINE",
"474 437 LINE",
"469 437 LINE",
"447 488 OFFCURVE",
"407 543 OFFCURVE",
"311 543 CURVE SMOOTH",
"171 543 OFFCURVE",
"89 444 OFFCURVE",
"61 285 CURVE SMOOTH",
"31 116 OFFCURVE",
"110 9 OFFCURVE",
"251 9 CURVE SMOOTH",
"337 9 OFFCURVE",
"380 50 OFFCURVE",
"407 101 CURVE",
"413 101 LINE",
"402 43 LINE SMOOTH",
"381 -66 OFFCURVE",
"342 -126 OFFCURVE",
"240 -126 CURVE SMOOTH",
"165 -126 OFFCURVE",
"131 -89 OFFCURVE",
"123 -38 CURVE",
"20 -46 LINE",
"29 -146 OFFCURVE",
"97 -210 OFFCURVE",
"235 -210 CURVE SMOOTH"
);
},
{
closed = 1;
nodes = (
"177 92 OFFCURVE",
"140 166 OFFCURVE",
"161 285 CURVE SMOOTH",
"179 388 OFFCURVE",
"224 458 OFFCURVE",
"323 458 CURVE SMOOTH",
"424 458 OFFCURVE",
"466 381 OFFCURVE",
"445 265 CURVE SMOOTH",
"427 163 OFFCURVE",
"379 92 OFFCURVE",
"278 92 CURVE SMOOTH"
);
}
);
width = 633;
}
);
leftMetricsKey = o;
rightMetricsKey = "=|n";
unicode = 0067;
userData = {
RMXScaler = {
source = g;
};
};
},
{
color = 7;
glyphname = h;
lastChange = "2018-03-21 22:58:08 +0000";
layers = (
{
anchors = (
{
name = top;
position = "{212, 731}";
}
);
background = {
paths = (
{
closed = 1;
nodes = (
"111 0 LINE",
"160 276 LINE SMOOTH",
"182 399 OFFCURVE",
"263 480 OFFCURVE",
"363 480 CURVE SMOOTH",
"430 480 OFFCURVE",
"465 447 OFFCURVE",
"465 383 CURVE SMOOTH",
"465 366 OFFCURVE",
"463 341 OFFCURVE",
"459 318 CURVE SMOOTH",
"403 0 LINE",
"458 0 LINE",
"513 310 LINE SMOOTH",
"520 347 OFFCURVE",
"520 368 OFFCURVE",
"520 393 CURVE SMOOTH",
"520 487 OFFCURVE",
"454 530 OFFCURVE",
"373 530 CURVE SMOOTH",
"274 530 OFFCURVE",
"210 471 OFFCURVE",
"176 397 CURVE",
"208 420 LINE",
"171 420 LINE",
"182 400 LINE",
"243 750 LINE",
"188 750 LINE",
"56 0 LINE"
);
}
);
};
layerId = "CC363ACD-D5A5-4E19-A940-9AF36D109D9E";
paths = (
{
closed = 1;
nodes = (
"291 538 OFFCURVE",
"226 487 OFFCURVE",
"191 431 CURVE",
"187 431 LINE",
"243 750 LINE",
"188 750 LINE",
"56 0 LINE",
"111 0 LINE",
"161 284 LINE SMOOTH",
"181 398 OFFCURVE",
"264 485 OFFCURVE",
"371 485 CURVE SMOOTH",
"441 485 OFFCURVE",
"476 453 OFFCURVE",
"476 391 CURVE SMOOTH",
"476 373 OFFCURVE",
"474 351 OFFCURVE",
"470 326 CURVE SMOOTH",
"413 0 LINE",
"468 0 LINE",
"525 325 LINE SMOOTH",
"529 349 OFFCURVE",
"531 370 OFFCURVE",
"531 395 CURVE SMOOTH",
"531 484 OFFCURVE",
"479 538 OFFCURVE",
"376 538 CURVE SMOOTH"
);
}
);
width = 611;
},
{
anchors = (
{
name = top;
position = "{243, 741}";
}
);
background = {
paths = (
{
closed = 1;
nodes = (
"375 550 OFFCURVE",
"341 488 OFFCURVE",
"308 432 CURVE",
"301 432 LINE",
"355 750 LINE",
"145 750 LINE",
"13 0 LINE",
"223 0 LINE",
"271 272 LINE SMOOTH",
"283 338 OFFCURVE",
"314 370 OFFCURVE",
"363 370 CURVE SMOOTH",
"398 370 OFFCURVE",
"416 353 OFFCURVE",
"416 319 CURVE SMOOTH",
"416 308 OFFCURVE",
"414 293 OFFCURVE",
"412 282 CURVE SMOOTH",
"362 0 LINE",
"572 0 LINE",
"627 310 LINE SMOOTH",
"632 338 OFFCURVE",
"634 364 OFFCURVE",
"634 391 CURVE SMOOTH",
"634 487 OFFCURVE",
"584 550 OFFCURVE",
"482 550 CURVE SMOOTH"
);
}
);
};
layerId = "C1DA716A-5F29-4CD0-A38F-CCADF5849A80";
paths = (
{
closed = 1;
nodes = (
"375 550 OFFCURVE",
"341 488 OFFCURVE",
"308 432 CURVE",
"301 432 LINE",
"355 750 LINE",
"145 750 LINE",
"13 0 LINE",
"223 0 LINE",
"271 272 LINE SMOOTH",
"283 338 OFFCURVE",
"314 370 OFFCURVE",
"363 370 CURVE SMOOTH",
"398 370 OFFCURVE",
"416 353 OFFCURVE",
"416 319 CURVE SMOOTH",
"416 308 OFFCURVE",
"414 293 OFFCURVE",
"412 282 CURVE SMOOTH",
"362 0 LINE",
"572 0 LINE",
"627 310 LINE SMOOTH",
"632 338 OFFCURVE",
"634 364 OFFCURVE",
"634 391 CURVE SMOOTH",
"634 487 OFFCURVE",
"584 550 OFFCURVE",
"482 550 CURVE SMOOTH"
);
}
);
width = 677;
},
{
anchors = (
{
name = top;
position = "{224, 731}";
}
);
background = {
paths = (
{
closed = 1;
nodes = (
"145 0 LINE",
"196 289 LINE SMOOTH",
"214 385 OFFCURVE",
"278 446 OFFCURVE",
"362 446 CURVE SMOOTH",
"421 446 OFFCURVE",
"450 417 OFFCURVE",
"450 363 CURVE SMOOTH",
"450 349 OFFCURVE",
"448 329 OFFCURVE",
"444 306 CURVE SMOOTH",
"391 0 LINE",
"491 0 LINE",
"545 305 LINE SMOOTH",
"551 341 OFFCURVE",
"554 370 OFFCURVE",
"554 397 CURVE SMOOTH",
"554 489 OFFCURVE",
"496 535 OFFCURVE",
"408 535 CURVE SMOOTH",
"316 535 OFFCURVE",
"249 483 OFFCURVE",
"217 413 CURVE",
"241 431 LINE",
"207 431 LINE",
"219 416 LINE",
"277 750 LINE",
"177 750 LINE",
"45 0 LINE"
);
}
);
};
layerId = "6641C2CA-B9F9-47EE-AEEC-6BEE387D8CB9";
paths = (
{
closed = 1;
nodes = (
"306 543 OFFCURVE",
"265 493 OFFCURVE",
"229 447 CURVE",
"224 447 LINE",
"277 750 LINE",
"177 750 LINE",
"44 0 LINE",
"144 0 LINE",
"196 295 LINE SMOOTH",
"213 394 OFFCURVE",
"293 453 OFFCURVE",
"368 453 CURVE SMOOTH",
"428 453 OFFCURVE",
"455 425 OFFCURVE",
"455 371 CURVE SMOOTH",
"455 357 OFFCURVE",
"453 338 OFFCURVE",
"449 314 CURVE SMOOTH",
"393 0 LINE",
"493 0 LINE",
"549 313 LINE SMOOTH",
"554 343 OFFCURVE",
"556 370 OFFCURVE",
"556 396 CURVE SMOOTH",
"556 486 OFFCURVE",
"502 543 OFFCURVE",
"404 543 CURVE SMOOTH"
);
}
);
width = 627;
}
);
leftMetricsKey = n;
rightMetricsKey = n;
unicode = 0068;
userData = {
RMXScaler = {
source = h;
};
};
},
{
glyphname = i;
lastChange = "2018-07-17 10:07:31 +0000";
layers = (
{
background = {
paths = (
{
closed = 1;
nodes = (
"112 0 LINE",
"203 515 LINE",
"148 515 LINE",
"57 0 LINE"
);
},
{
closed = 1;
nodes = (
"219 610 OFFCURVE",
"241 626 OFFCURVE",
"241 659 CURVE SMOOTH",
"241 683 OFFCURVE",
"226 696 OFFCURVE",
"204 696 CURVE SMOOTH",
"179 696 OFFCURVE",
"158 680 OFFCURVE",
"158 647 CURVE SMOOTH",
"158 624 OFFCURVE",
"172 610 OFFCURVE",
"195 610 CURVE SMOOTH"
);
}
);
};
components = (
{
name = idotless;
},
{
name = dotaccentcomb;
transform = "{1, 0, 0, 1, 130, 0}";
}
);
layerId = "CC363ACD-D5A5-4E19-A940-9AF36D109D9E";
width = 259;
},
{
background = {
anchors = (
{
name = ogonek;
position = "{180, 0}";
}
);
paths = (
{
closed = 1;
nodes = (
"220 0 LINE",
"314 535 LINE",
"109 535 LINE",
"15 0 LINE"
);
},
{
closed = 1;
nodes = (
"301 599 OFFCURVE",
"348 645 OFFCURVE",
"348 713 CURVE SMOOTH",
"348 762 OFFCURVE",
"315 793 OFFCURVE",
"254 793 CURVE SMOOTH",
"175 793 OFFCURVE",
"128 748 OFFCURVE",
"128 679 CURVE SMOOTH",
"128 630 OFFCURVE",
"162 599 OFFCURVE",
"224 599 CURVE SMOOTH"
);
}
);
};
components = (
{
name = idotless;
},
{
name = dotaccentcomb;
transform = "{1, 0, 0, 1, 166, 0}";
}
);
layerId = "C1DA716A-5F29-4CD0-A38F-CCADF5849A80";
width = 330;
},
{
components = (
{
name = idotless;
},
{
name = dotaccentcomb;
transform = "{1, 0, 0, 1, 142, 0}";
}
);
layerId = "6641C2CA-B9F9-47EE-AEEC-6BEE387D8CB9";
width = 282;
}
);
unicode = 0069;
userData = {
RMXScaler = {
source = i;
};
};
},
{
glyphname = j;
lastChange = "2018-05-23 09:25:25 +0000";
layers = (
{
background = {
paths = (
{
closed = 1;
nodes = (
"43 -210 OFFCURVE",
"85 -181 OFFCURVE",
"102 -86 CURVE SMOOTH",
"208 515 LINE",
"153 515 LINE",
"48 -82 LINE SMOOTH",
"36 -148 OFFCURVE",
"9 -161 OFFCURVE",
"-26 -161 CURVE SMOOTH",
"-39 -161 OFFCURVE",
"-60 -158 OFFCURVE",
"-75 -154 CURVE",
"-84 -200 LINE",
"-66 -205 OFFCURVE",
"-39 -210 OFFCURVE",
"-17 -210 CURVE SMOOTH"
);
},
{
closed = 1;
nodes = (
"224 610 OFFCURVE",
"246 626 OFFCURVE",
"246 659 CURVE SMOOTH",
"246 683 OFFCURVE",
"231 696 OFFCURVE",
"209 696 CURVE SMOOTH",
"184 696 OFFCURVE",
"163 680 OFFCURVE",
"163 647 CURVE SMOOTH",
"163 624 OFFCURVE",
"177 610 OFFCURVE",
"200 610 CURVE SMOOTH"
);
}
);
};
components = (
{
name = jdotless;
},
{
name = dotaccentcomb;
transform = "{1, 0, 0, 1, 129, 0}";
}
);
layerId = "CC363ACD-D5A5-4E19-A940-9AF36D109D9E";
width = 258;
},
{
background = {
paths = (
{
closed = 1;
nodes = (
"157 -210 OFFCURVE",
"216 -136 OFFCURVE",
"242 9 CURVE SMOOTH",
"336 535 LINE",
"131 535 LINE",
"40 14 LINE SMOOTH",
"32 -32 OFFCURVE",
"13 -56 OFFCURVE",
"-30 -56 CURVE SMOOTH",
"-47 -56 OFFCURVE",
"-71 -53 OFFCURVE",
"-95 -45 CURVE",
"-124 -187 LINE",
"-93 -199 OFFCURVE",
"-31 -210 OFFCURVE",
"12 -210 CURVE SMOOTH"
);
},
{
closed = 1;
nodes = (
"322 599 OFFCURVE",
"369 645 OFFCURVE",
"369 713 CURVE SMOOTH",
"369 762 OFFCURVE",
"336 793 OFFCURVE",
"275 793 CURVE SMOOTH",
"196 793 OFFCURVE",
"149 748 OFFCURVE",
"149 679 CURVE SMOOTH",
"149 630 OFFCURVE",
"183 599 OFFCURVE",
"245 599 CURVE SMOOTH"
);
}
);
};
components = (
{
name = jdotless;
},
{
name = dotaccentcomb;
transform = "{1, 0, 0, 1, 172, 0}";
}
);
layerId = "C1DA716A-5F29-4CD0-A38F-CCADF5849A80";
width = 337;
},
{
components = (
{
name = jdotless;
},
{
name = dotaccentcomb;
transform = "{1, 0, 0, 1, 147, 0}";
}
);
layerId = "6641C2CA-B9F9-47EE-AEEC-6BEE387D8CB9";
width = 287;
}
);
rightMetricsKey = "=i";
unicode = 006A;
userData = {
RMXScaler = {
source = j;
};
};
},
{
color = 7;
glyphname = k;
lastChange = "2018-05-18 14:03:11 +0000";
layers = (
{
anchors = (
{
name = bottom;
position = "{261, 0}";
}
);
associatedMasterId = "CC363ACD-D5A5-4E19-A940-9AF36D109D9E";
background = {
anchors = (
{
name = bottom;
position = "{311, 0}";
}
);
paths = (
{
closed = 1;
nodes = (
"292 221 LINE",
"573 525 LINE",
"408 525 LINE",
"229 323 LINE",
"196 323 LINE",
"196 221 LINE"
);
},
{
closed = 1;
nodes = (
"223 0 LINE",
"223 750 LINE",
"83 750 LINE",
"83 0 LINE"
);
},
{
closed = 1;
nodes = (
"583 0 LINE",
"313 319 LINE",
"200 253 LINE",
"416 0 LINE"
);
}
);
};
layerId = "873A0B25-08FC-42D7-98BE-1098C7D91BCD";
name = "Aug 30 17, 11:49";
paths = (
{
closed = 1;
nodes = (
"287 221 LINE",
"609 525 LINE",
"445 525 LINE",
"240 323 LINE",
"207 323 LINE",
"189 221 LINE"
);
},
{
closed = 1;
nodes = (
"177 0 LINE",
"309 750 LINE",
"169 750 LINE",
"37 0 LINE"
);
},
{
closed = 1;
nodes = (
"526 0 LINE",
"324 319 LINE",
"199 253 LINE",
"360 0 LINE"
);
}
);
width = 588;
},
{
anchors = (
{
name = bottom;
position = "{224, 0}";
}
);
background = {
paths = (
{
closed = 1;
nodes = (
"201 258 LINE",
"525 523 LINE",
"452 523 LINE",
"166 289 LINE",
"145 289 LINE",
"141 258 LINE"
);
},
{
closed = 1;
nodes = (
"111 0 LINE",
"243 750 LINE",
"188 750 LINE",
"56 0 LINE"
);
},
{
closed = 1;
nodes = (
"434 0 LINE",
"205 288 LINE",
"157 263 LINE",
"369 0 LINE"
);
}
);
};
layerId = "CC363ACD-D5A5-4E19-A940-9AF36D109D9E";
paths = (
{
closed = 1;
nodes = (
"111 0 LINE",
"243 750 LINE",
"188 750 LINE",
"56 0 LINE"
);
},
{
closed = 1;
nodes = (
"452 523 LINE",
"166 289 LINE",
"145 289 LINE",
"141 258 LINE",
"161 258 LINE",
"369 0 LINE",
"434 0 LINE",
"203 291 LINE",
"200 257 LINE",
"525 523 LINE"
);
}
);
width = 495;
},
{
anchors = (
{
name = bottom;
position = "{286, 0}";
}
);
background = {
paths = (
{
closed = 1;
nodes = (
"398 215 LINE",
"660 535 LINE",
"448 535 LINE",
"287 328 LINE",
"249 328 LINE",
"230 215 LINE"
);
},
{
closed = 1;
nodes = (
"223 0 LINE",
"355 750 LINE",
"145 750 LINE",
"13 0 LINE"
);
},
{
closed = 1;
nodes = (
"575 0 LINE",
"423 331 LINE",
"251 253 LINE",
"355 0 LINE"
);
}
);
};
layerId = "C1DA716A-5F29-4CD0-A38F-CCADF5849A80";
paths = (
{
closed = 1;
nodes = (
"223 0 LINE",
"355 750 LINE",
"145 750 LINE",
"13 0 LINE"
);
},
{
closed = 1;
nodes = (
"448 535 LINE",
"287 328 LINE",
"249 328 LINE",
"230 215 LINE",
"267 215 LINE",
"355 0 LINE",
"575 0 LINE",
"409 362 LINE",
"388 203 LINE",
"660 535 LINE"
);
}
);
width = 626;
},
{
anchors = (
{
name = bottom;
position = "{243, 0}";
}
);
background = {
paths = (
{
closed = 1;
nodes = (
"251 242 LINE",
"565 528 LINE",
"443 528 LINE",
"204 309 LINE",
"178 309 LINE",
"178 242 LINE"
);
},
{
closed = 1;
nodes = (
"145 0 LINE",
"277 750 LINE",
"177 750 LINE",
"45 0 LINE"
);
},
{
closed = 1;
nodes = (
"479 0 LINE",
"262 303 LINE",
"179 261 LINE",
"365 0 LINE"
);
}
);
};
layerId = "6641C2CA-B9F9-47EE-AEEC-6BEE387D8CB9";
paths = (
{
closed = 1;
nodes = (
"145 0 LINE",
"277 750 LINE",
"177 750 LINE",
"45 0 LINE"
);
},
{
closed = 1;
nodes = (
"443 528 LINE",
"204 309 LINE",
"178 309 LINE",
"168 242 LINE",
"193 242 LINE",
"365 0 LINE",
"479 0 LINE",
"258 309 LINE",
"251 242 LINE",
"565 528 LINE"
);
}
);
width = 536;
}
);
leftMetricsKey = h;
unicode = 006B;
userData = {
RMXScaler = {
source = k;
};
};
},
{
color = 7;
glyphname = l;
lastChange = "2018-03-27 15:00:14 +0000";
layers = (
{
anchors = (
{
name = bottom;
position = "{83, 0}";
},
{
name = periodcentered;
position = "{272, 378}";
},
{
name = top;
position = "{212, 731}";
},
{
name = topright;
position = "{278, 523}";
}
);
background = {
paths = (
{
closed = 1;
nodes = (
"151 0 LINE",
"151 750 LINE",
"96 750 LINE",
"96 0 LINE"
);
}
);
};
layerId = "CC363ACD-D5A5-4E19-A940-9AF36D109D9E";
paths = (
{
closed = 1;
nodes = (
"111 0 LINE",
"243 750 LINE",
"188 750 LINE",
"56 0 LINE"
);
}
);
width = 259;
},
{
anchors = (
{
name = bottom;
position = "{121, 0}";
},
{
name = periodcentered;
position = "{346, 370}";
},
{
name = top;
position = "{249, 741}";
},
{
name = topright;
position = "{410, 535}";
}
);
background = {
paths = (
{
closed = 1;
nodes = (
"271 0 LINE",
"271 750 LINE",
"61 750 LINE",
"61 0 LINE"
);
}
);
};
layerId = "C1DA716A-5F29-4CD0-A38F-CCADF5849A80";
paths = (
{
closed = 1;
nodes = (
"223 0 LINE",
"355 750 LINE",
"145 750 LINE",
"13 0 LINE"
);
}
);
width = 330;
},
{
anchors = (
{
name = bottom;
position = "{94, 0}";
},
{
name = periodcentered;
position = "{296, 378}";
},
{
name = top;
position = "{222, 730}";
},
{
name = topright;
position = "{324, 528}";
}
);
background = {
paths = (
{
closed = 1;
nodes = (
"189 0 LINE",
"189 750 LINE",
"89 750 LINE",
"89 0 LINE"
);
}
);
};
layerId = "6641C2CA-B9F9-47EE-AEEC-6BEE387D8CB9";
paths = (
{
closed = 1;
nodes = (
"145 0 LINE",
"277 750 LINE",
"177 750 LINE",
"45 0 LINE"
);
}
);
width = 283;
}
);
leftMetricsKey = h;
rightMetricsKey = d;
unicode = 006C;
userData = {
RMXScaler = {
source = l;
};
};
},
{
color = 7;
glyphname = m;
lastChange = "2018-05-11 14:26:56 +0000";
layers = (
{
background = {
paths = (
{
closed = 1;
nodes = (
"98 0 LINE",
"153 0 LINE",
"153 284 LINE SMOOTH",
"153 405 OFFCURVE",
"233 485 OFFCURVE",
"329 485 CURVE SMOOTH",
"412 485 OFFCURVE",
"455 439 OFFCURVE",
"455 338 CURVE SMOOTH",
"455 0 LINE",
"510 0 LINE",
"510 284 LINE SMOOTH",
"510 405 OFFCURVE",
"590 485 OFFCURVE",
"686 485 CURVE SMOOTH",
"769 485 OFFCURVE",
"812 439 OFFCURVE",
"812 338 CURVE SMOOTH",
"812 0 LINE",
"867 0 LINE",
"867 347 LINE SMOOTH",
"867 472 OFFCURVE",
"802 538 OFFCURVE",
"696 538 CURVE SMOOTH",
"611 538 OFFCURVE",
"544 494 OFFCURVE",
"505 420 CURVE",
"501 420 LINE",
"481 494 OFFCURVE",
"424 538 OFFCURVE",
"339 538 CURVE SMOOTH",
"254 538 OFFCURVE",
"191 489 OFFCURVE",
"156 428 CURVE",
"152 428 LINE",
"141 523 LINE",
"98 523 LINE"
);
}
);
};
layerId = "CC363ACD-D5A5-4E19-A940-9AF36D109D9E";
paths = (
{
closed = 1;
nodes = (
"56 0 LINE",
"111 0 LINE",
"161 284 LINE SMOOTH",
"181 398 OFFCURVE",
"264 485 OFFCURVE",
"364 485 CURVE SMOOTH",
"432 485 OFFCURVE",
"466 451 OFFCURVE",
"466 391 CURVE SMOOTH",
"466 373 OFFCURVE",
"464 351 OFFCURVE",
"460 326 CURVE SMOOTH",
"403 0 LINE",
"458 0 LINE",
"508 284 LINE SMOOTH",
"528 398 OFFCURVE",
"611 485 OFFCURVE",
"711 485 CURVE SMOOTH",
"781 485 OFFCURVE",
"813 453 OFFCURVE",
"813 391 CURVE SMOOTH",
"813 373 OFFCURVE",
"811 351 OFFCURVE",
"807 326 CURVE SMOOTH",
"750 0 LINE",
"805 0 LINE",
"862 325 LINE SMOOTH",
"866 349 OFFCURVE",
"868 370 OFFCURVE",
"868 395 CURVE SMOOTH",
"868 484 OFFCURVE",
"819 538 OFFCURVE",
"716 538 CURVE SMOOTH",
"617 538 OFFCURVE",
"552 472 OFFCURVE",
"522 418 CURVE",
"508 418 LINE",
"518 405 LINE",
"518 474 OFFCURVE",
"470 538 OFFCURVE",
"374 538 CURVE SMOOTH",
"288 538 OFFCURVE",
"225 486 OFFCURVE",
"187 428 CURVE",
"183 428 LINE",
"190 523 LINE",
"148 523 LINE"
);
}
);
width = 948;
},
{
background = {
paths = (
{
closed = 1;
nodes = (
"60 0 LINE",
"270 0 LINE",
"270 279 LINE SMOOTH",
"270 335 OFFCURVE",
"306 370 OFFCURVE",
"353 370 CURVE SMOOTH",
"399 370 OFFCURVE",
"414 342 OFFCURVE",
"414 292 CURVE SMOOTH",
"414 0 LINE",
"624 0 LINE",
"624 279 LINE SMOOTH",
"624 335 OFFCURVE",
"660 370 OFFCURVE",
"707 370 CURVE SMOOTH",
"753 370 OFFCURVE",
"768 342 OFFCURVE",
"768 292 CURVE SMOOTH",
"768 0 LINE",
"978 0 LINE",
"978 347 LINE SMOOTH",
"978 469 OFFCURVE",
"932 550 OFFCURVE",
"806 550 CURVE SMOOTH",
"703 550 OFFCURVE",
"657 502 OFFCURVE",
"622 427 CURVE",
"615 427 LINE",
"598 499 OFFCURVE",
"553 550 OFFCURVE",
"452 550 CURVE SMOOTH",
"359 550 OFFCURVE",
"307 502 OFFCURVE",
"273 427 CURVE",
"266 427 LINE",
"246 535 LINE",
"60 535 LINE"
);
}
);
};
layerId = "C1DA716A-5F29-4CD0-A38F-CCADF5849A80";
paths = (
{
closed = 1;
nodes = (
"13 0 LINE",
"223 0 LINE",
"271 272 LINE SMOOTH",
"283 338 OFFCURVE",
"314 370 OFFCURVE",
"358 370 CURVE SMOOTH",
"393 370 OFFCURVE",
"411 353 OFFCURVE",
"411 319 CURVE SMOOTH",
"411 308 OFFCURVE",
"409 293 OFFCURVE",
"407 282 CURVE SMOOTH",
"357 0 LINE",
"567 0 LINE",
"615 272 LINE SMOOTH",
"627 338 OFFCURVE",
"658 370 OFFCURVE",
"702 370 CURVE SMOOTH",
"737 370 OFFCURVE",
"755 353 OFFCURVE",
"755 319 CURVE SMOOTH",
"755 308 OFFCURVE",
"753 293 OFFCURVE",
"751 282 CURVE SMOOTH",
"701 0 LINE",
"911 0 LINE",
"966 310 LINE SMOOTH",
"971 338 OFFCURVE",
"973 364 OFFCURVE",
"973 391 CURVE SMOOTH",
"973 487 OFFCURVE",
"923 550 OFFCURVE",
"821 550 CURVE SMOOTH",
"713 550 OFFCURVE",
"660 488 OFFCURVE",
"627 422 CURVE",
"600 422 LINE",
"624 391 LINE",
"624 487 OFFCURVE",
"574 550 OFFCURVE",
"477 550 CURVE SMOOTH",
"374 550 OFFCURVE",
"331 493 OFFCURVE",
"293 427 CURVE",
"286 427 LINE",
"284 535 LINE",
"108 535 LINE"
);
}
);
width = 1016;
},
{
background = {
paths = (
{
closed = 1;
nodes = (
"89 0 LINE",
"189 0 LINE",
"189 290 LINE SMOOTH",
"189 388 OFFCURVE",
"251 453 OFFCURVE",
"334 453 CURVE SMOOTH",
"403 453 OFFCURVE",
"438 409 OFFCURVE",
"438 323 CURVE SMOOTH",
"438 0 LINE",
"538 0 LINE",
"538 290 LINE SMOOTH",
"538 388 OFFCURVE",
"600 453 OFFCURVE",
"683 453 CURVE SMOOTH",
"752 453 OFFCURVE",
"787 409 OFFCURVE",
"787 323 CURVE SMOOTH",
"787 0 LINE",
"887 0 LINE",
"887 356 LINE SMOOTH",
"887 476 OFFCURVE",
"827 543 OFFCURVE",
"715 543 CURVE SMOOTH",
"621 543 OFFCURVE",
"569 490 OFFCURVE",
"534 427 CURVE",
"529 427 LINE",
"510 500 OFFCURVE",
"456 543 OFFCURVE",
"366 543 CURVE SMOOTH",
"282 543 OFFCURVE",
"227 500 OFFCURVE",
"192 437 CURVE",
"187 437 LINE",
"174 528 LINE",
"89 528 LINE"
);
}
);
};
layerId = "6641C2CA-B9F9-47EE-AEEC-6BEE387D8CB9";
paths = (
{
closed = 1;
nodes = (
"44 0 LINE",
"144 0 LINE",
"196 295 LINE SMOOTH",
"213 394 OFFCURVE",
"293 453 OFFCURVE",
"362 453 CURVE SMOOTH",
"417 453 OFFCURVE",
"445 425 OFFCURVE",
"445 371 CURVE SMOOTH",
"445 357 OFFCURVE",
"443 338 OFFCURVE",
"439 314 CURVE SMOOTH",
"383 0 LINE",
"483 0 LINE",
"535 295 LINE SMOOTH",
"552 393 OFFCURVE",
"632 453 OFFCURVE",
"701 453 CURVE SMOOTH",
"756 453 OFFCURVE",
"784 425 OFFCURVE",
"784 371 CURVE SMOOTH",
"784 357 OFFCURVE",
"782 338 OFFCURVE",
"778 314 CURVE SMOOTH",
"722 0 LINE",
"822 0 LINE",
"878 313 LINE SMOOTH",
"883 343 OFFCURVE",
"885 370 OFFCURVE",
"885 396 CURVE SMOOTH",
"885 486 OFFCURVE",
"830 543 OFFCURVE",
"737 543 CURVE SMOOTH",
"635 543 OFFCURVE",
"583 488 OFFCURVE",
"542 427 CURVE",
"520 427 LINE",
"541 396 LINE",
"541 486 OFFCURVE",
"491 543 OFFCURVE",
"398 543 CURVE SMOOTH",
"306 543 OFFCURVE",
"257 493 OFFCURVE",
"221 437 CURVE",
"216 437 LINE",
"221 528 LINE",
"138 528 LINE"
);
}
);
width = 956;
}
);
leftMetricsKey = n;
rightMetricsKey = n;
unicode = 006D;
userData = {
RMXScaler = {
source = m;
};
};
},
{
color = 7;
glyphname = n;
lastChange = "2018-05-18 12:25:18 +0000";
layers = (
{
anchors = (
{
name = apostrophe;
position = "{57, 523}";
},
{
name = bottom;
position = "{255, 0}";
},
{
name = top;
position = "{351, 523}";
}
);
background = {
paths = (
{
closed = 1;
nodes = (
"151 0 LINE",
"151 284 LINE SMOOTH",
"151 405 OFFCURVE",
"231 485 OFFCURVE",
"332 485 CURVE SMOOTH",
"420 485 OFFCURVE",
"463 439 OFFCURVE",
"463 338 CURVE SMOOTH",
"463 0 LINE",
"518 0 LINE",
"518 347 LINE SMOOTH",
"518 472 OFFCURVE",
"453 538 OFFCURVE",
"342 538 CURVE SMOOTH",
"252 538 OFFCURVE",
"189 489 OFFCURVE",
"154 428 CURVE",
"150 428 LINE",
"139 523 LINE",
"96 523 LINE",
"96 0 LINE"
);
}
);
};
guideLines = (
{
angle = 80;
position = "{560, 353}";
}
);
layerId = "CC363ACD-D5A5-4E19-A940-9AF36D109D9E";
paths = (
{
closed = 1;
nodes = (
"288 538 OFFCURVE",
"225 486 OFFCURVE",
"187 428 CURVE",
"183 428 LINE",
"190 523 LINE",
"148 523 LINE",
"56 0 LINE",
"111 0 LINE",
"161 284 LINE SMOOTH",
"181 398 OFFCURVE",
"264 485 OFFCURVE",
"371 485 CURVE SMOOTH",
"441 485 OFFCURVE",
"476 453 OFFCURVE",
"476 391 CURVE SMOOTH",
"476 373 OFFCURVE",
"474 351 OFFCURVE",
"470 326 CURVE SMOOTH",
"413 0 LINE",
"468 0 LINE",
"525 325 LINE SMOOTH",
"529 349 OFFCURVE",
"531 370 OFFCURVE",
"531 395 CURVE SMOOTH",
"531 484 OFFCURVE",
"479 538 OFFCURVE",
"376 538 CURVE SMOOTH"
);
}
);
width = 611;
},
{
anchors = (
{
name = apostrophe;
position = "{51, 535}";
},
{
name = bottom;
position = "{292, 0}";
},
{
name = top;
position = "{389, 535}";
}
);
background = {
paths = (
{
closed = 1;
nodes = (
"275 0 LINE",
"275 279 LINE SMOOTH",
"275 335 OFFCURVE",
"311 370 OFFCURVE",
"361 370 CURVE SMOOTH",
"409 370 OFFCURVE",
"424 342 OFFCURVE",
"424 292 CURVE SMOOTH",
"424 0 LINE",
"634 0 LINE",
"634 347 LINE SMOOTH",
"634 469 OFFCURVE",
"588 550 OFFCURVE",
"460 550 CURVE SMOOTH",
"364 550 OFFCURVE",
"312 502 OFFCURVE",
"278 427 CURVE",
"271 427 LINE",
"251 535 LINE",
"65 535 LINE",
"65 0 LINE"
);
}
);
};
guideLines = (
{
angle = 79.9309;
position = "{223, 0}";
}
);
layerId = "C1DA716A-5F29-4CD0-A38F-CCADF5849A80";
paths = (
{
closed = 1;
nodes = (
"375 550 OFFCURVE",
"331 493 OFFCURVE",
"293 427 CURVE",
"286 427 LINE",
"284 535 LINE",
"108 535 LINE",
"13 0 LINE",
"223 0 LINE",
"271 272 LINE SMOOTH",
"283 338 OFFCURVE",
"314 370 OFFCURVE",
"363 370 CURVE SMOOTH",
"398 370 OFFCURVE",
"416 353 OFFCURVE",
"416 319 CURVE SMOOTH",
"416 308 OFFCURVE",
"414 293 OFFCURVE",
"412 282 CURVE SMOOTH",
"362 0 LINE",
"572 0 LINE",
"627 310 LINE SMOOTH",
"632 338 OFFCURVE",
"634 364 OFFCURVE",
"634 391 CURVE SMOOTH",
"634 487 OFFCURVE",
"584 550 OFFCURVE",
"482 550 CURVE SMOOTH"
);
}
);
width = 677;
},
{
anchors = (
{
name = apostrophe;
position = "{53, 528}";
},
{
name = bottom;
position = "{270, 0}";
},
{
name = top;
position = "{358, 528}";
}
);
background = {
paths = (
{
closed = 1;
nodes = (
"191 0 LINE",
"191 290 LINE SMOOTH",
"191 388 OFFCURVE",
"253 453 OFFCURVE",
"341 453 CURVE SMOOTH",
"415 453 OFFCURVE",
"450 409 OFFCURVE",
"450 323 CURVE SMOOTH",
"450 0 LINE",
"550 0 LINE",
"550 356 LINE SMOOTH",
"550 476 OFFCURVE",
"490 543 OFFCURVE",
"373 543 CURVE SMOOTH",
"284 543 OFFCURVE",
"229 500 OFFCURVE",
"194 437 CURVE",
"189 437 LINE",
"176 528 LINE",
"91 528 LINE",
"91 0 LINE"
);
}
);
};
layerId = "6641C2CA-B9F9-47EE-AEEC-6BEE387D8CB9";
paths = (
{
closed = 1;
nodes = (
"306 543 OFFCURVE",
"257 493 OFFCURVE",
"221 437 CURVE",
"216 437 LINE",
"221 528 LINE",
"138 528 LINE",
"44 0 LINE",
"144 0 LINE",
"196 295 LINE SMOOTH",
"213 394 OFFCURVE",
"293 453 OFFCURVE",
"368 453 CURVE SMOOTH",
"428 453 OFFCURVE",
"455 425 OFFCURVE",
"455 371 CURVE SMOOTH",
"455 357 OFFCURVE",
"453 338 OFFCURVE",
"449 314 CURVE SMOOTH",
"393 0 LINE",
"493 0 LINE",
"549 313 LINE SMOOTH",
"554 343 OFFCURVE",
"556 370 OFFCURVE",
"556 396 CURVE SMOOTH",
"556 486 OFFCURVE",
"502 543 OFFCURVE",
"404 543 CURVE SMOOTH"
);
}
);
width = 627;
}
);
unicode = 006E;
userData = {
RMXScaler = {
source = n;
};
};
},
{
color = 7;
glyphname = o;
lastChange = "2018-05-11 09:26:42 +0000";
layers = (
{
anchors = (
{
name = bottom;
position = "{262, 0}";
},
{
name = top;
position = "{341, 523}";
}
);
background = {
paths = (
{
closed = 1;
nodes = (
"455 -15 OFFCURVE",
"547 84 OFFCURVE",
"547 262 CURVE SMOOTH",
"547 440 OFFCURVE",
"455 538 OFFCURVE",
"306 538 CURVE SMOOTH",
"157 538 OFFCURVE",
"65 440 OFFCURVE",
"65 262 CURVE SMOOTH",
"65 84 OFFCURVE",
"157 -15 OFFCURVE",
"306 -15 CURVE SMOOTH"
);
},
{
closed = 1;
nodes = (
"185 36 OFFCURVE",
"122 108 OFFCURVE",
"122 262 CURVE SMOOTH",
"122 416 OFFCURVE",
"185 487 OFFCURVE",
"306 487 CURVE SMOOTH",
"427 487 OFFCURVE",
"490 416 OFFCURVE",
"490 262 CURVE SMOOTH",
"490 108 OFFCURVE",
"427 36 OFFCURVE",
"306 36 CURVE SMOOTH"
);
}
);
};
layerId = "CC363ACD-D5A5-4E19-A940-9AF36D109D9E";
paths = (
{
closed = 1;
nodes = (
"404 -15 OFFCURVE",
"503 79 OFFCURVE",
"534 257 CURVE SMOOTH",
"565 435 OFFCURVE",
"479 538 OFFCURVE",
"340 538 CURVE SMOOTH",
"196 538 OFFCURVE",
"97 445 OFFCURVE",
"66 267 CURVE SMOOTH",
"35 89 OFFCURVE",
"121 -15 OFFCURVE",
"260 -15 CURVE SMOOTH"
);
},
{
closed = 1;
nodes = (
"154 36 OFFCURVE",
"94 107 OFFCURVE",
"122 267 CURVE SMOOTH",
"148 415 OFFCURVE",
"219 487 OFFCURVE",
"335 487 CURVE SMOOTH",
"446 487 OFFCURVE",
"506 416 OFFCURVE",
"478 257 CURVE SMOOTH",
"452 108 OFFCURVE",
"381 36 OFFCURVE",
"265 36 CURVE SMOOTH"
);
}
);
width = 600;
},
{
anchors = (
{
name = bottom;
position = "{291, 0}";
},
{
name = top;
position = "{367, 535}";
}
);
background = {
paths = (
{
closed = 1;
nodes = (
"544 -15 OFFCURVE",
"647 88 OFFCURVE",
"647 267 CURVE SMOOTH",
"647 446 OFFCURVE",
"544 550 OFFCURVE",
"345 550 CURVE SMOOTH",
"146 550 OFFCURVE",
"43 446 OFFCURVE",
"43 267 CURVE SMOOTH",
"43 88 OFFCURVE",
"146 -15 OFFCURVE",
"345 -15 CURVE SMOOTH"
);
},
{
closed = 1;
nodes = (
"277 140 OFFCURVE",
"256 180 OFFCURVE",
"256 267 CURVE SMOOTH",
"256 355 OFFCURVE",
"277 395 OFFCURVE",
"345 395 CURVE SMOOTH",
"413 395 OFFCURVE",
"434 355 OFFCURVE",
"434 267 CURVE SMOOTH",
"434 180 OFFCURVE",
"413 140 OFFCURVE",
"345 140 CURVE SMOOTH"
);
}
);
};
guideLines = (
{
angle = 80;
position = "{618, 238}";
}
);
layerId = "C1DA716A-5F29-4CD0-A38F-CCADF5849A80";
paths = (
{
closed = 1;
nodes = (
"482 -15 OFFCURVE",
"590 78 OFFCURVE",
"620 247 CURVE SMOOTH",
"653 435 OFFCURVE",
"562 550 OFFCURVE",
"368 550 CURVE SMOOTH",
"174 550 OFFCURVE",
"66 456 OFFCURVE",
"36 287 CURVE SMOOTH",
"3 99 OFFCURVE",
"94 -15 OFFCURVE",
"288 -15 CURVE SMOOTH"
);
},
{
closed = 1;
nodes = (
"249 140 OFFCURVE",
"229 180 OFFCURVE",
"244 267 CURVE SMOOTH",
"259 355 OFFCURVE",
"285 395 OFFCURVE",
"348 395 CURVE SMOOTH",
"406 395 OFFCURVE",
"427 355 OFFCURVE",
"412 267 CURVE SMOOTH",
"397 180 OFFCURVE",
"370 140 OFFCURVE",
"307 140 CURVE SMOOTH"
);
}
);
width = 657;
},
{
anchors = (
{
name = top;
position = "{341, 515}";
}
);
associatedMasterId = "CC363ACD-D5A5-4E19-A940-9AF36D109D9E";
background = {
paths = (
{
closed = 1;
nodes = (
"463 -15 OFFCURVE",
"531 157 OFFCURVE",
"531 317 CURVE SMOOTH",
"531 450 OFFCURVE",
"452 530 OFFCURVE",
"328 530 CURVE SMOOTH",
"131 530 OFFCURVE",
"62 356 OFFCURVE",
"62 197 CURVE SMOOTH",
"62 64 OFFCURVE",
"142 -15 OFFCURVE",
"265 -15 CURVE SMOOTH"
);
},
{
closed = 1;
nodes = (
"170 32 OFFCURVE",
"117 92 OFFCURVE",
"117 197 CURVE SMOOTH",
"117 328 OFFCURVE",
"159 483 OFFCURVE",
"326 483 CURVE SMOOTH",
"423 483 OFFCURVE",
"476 422 OFFCURVE",
"476 317 CURVE SMOOTH",
"476 185 OFFCURVE",
"434 32 OFFCURVE",
"267 32 CURVE SMOOTH"
);
}
);
};
layerId = "9D8F7E6B-5AAE-410B-B2B6-D8CC432F32E6";
name = "Sep 27 17, 14:13";
paths = (
{
closed = 1;
nodes = (
"463 -15 OFFCURVE",
"531 157 OFFCURVE",
"531 317 CURVE SMOOTH",
"531 450 OFFCURVE",
"452 530 OFFCURVE",
"328 530 CURVE SMOOTH",
"131 530 OFFCURVE",
"62 356 OFFCURVE",
"62 197 CURVE SMOOTH",
"62 64 OFFCURVE",
"142 -15 OFFCURVE",
"265 -15 CURVE SMOOTH"
);
},
{
closed = 1;
nodes = (
"170 32 OFFCURVE",
"117 92 OFFCURVE",
"117 197 CURVE SMOOTH",
"117 328 OFFCURVE",
"159 483 OFFCURVE",
"326 483 CURVE SMOOTH",
"423 483 OFFCURVE",
"476 422 OFFCURVE",
"476 317 CURVE SMOOTH",
"476 185 OFFCURVE",
"434 32 OFFCURVE",
"267 32 CURVE SMOOTH"
);
}
);
width = 594;
},
{
anchors = (
{
name = top;
position = "{346, 525}";
}
);
associatedMasterId = "CC363ACD-D5A5-4E19-A940-9AF36D109D9E";
background = {
paths = (
{
closed = 1;
nodes = (
"474 -15 OFFCURVE",
"583 108 OFFCURVE",
"583 323 CURVE SMOOTH",
"583 459 OFFCURVE",
"496 540 OFFCURVE",
"348 540 CURVE SMOOTH",
"157 540 OFFCURVE",
"48 417 OFFCURVE",
"48 202 CURVE SMOOTH",
"48 66 OFFCURVE",
"135 -15 OFFCURVE",
"283 -15 CURVE SMOOTH"
);
},
{
closed = 1;
nodes = (
"223 100 OFFCURVE",
"190 133 OFFCURVE",
"190 205 CURVE SMOOTH",
"190 325 OFFCURVE",
"229 425 OFFCURVE",
"337 425 CURVE SMOOTH",
"408 425 OFFCURVE",
"441 392 OFFCURVE",
"441 320 CURVE SMOOTH",
"441 200 OFFCURVE",
"402 100 OFFCURVE",
"294 100 CURVE SMOOTH"
);
}
);
};
layerId = "9E1BBE25-F631-4A0C-B01E-887E684B7725";
name = "Oct 3 17, 16:52";
paths = (
{
closed = 1;
nodes = (
"474 -15 OFFCURVE",
"583 108 OFFCURVE",
"583 323 CURVE SMOOTH",
"583 459 OFFCURVE",
"496 540 OFFCURVE",
"348 540 CURVE SMOOTH",
"157 540 OFFCURVE",
"48 417 OFFCURVE",
"48 202 CURVE SMOOTH",
"48 66 OFFCURVE",
"135 -15 OFFCURVE",
"283 -15 CURVE SMOOTH"
);
},
{
closed = 1;
nodes = (
"223 100 OFFCURVE",
"190 133 OFFCURVE",
"190 205 CURVE SMOOTH",
"190 325 OFFCURVE",
"229 425 OFFCURVE",
"337 425 CURVE SMOOTH",
"408 425 OFFCURVE",
"441 392 OFFCURVE",
"441 320 CURVE SMOOTH",
"441 200 OFFCURVE",
"402 100 OFFCURVE",
"294 100 CURVE SMOOTH"
);
}
);
width = 631;
},
{
anchors = (
{
name = top;
position = "{368, 535}";
}
);
associatedMasterId = "C1DA716A-5F29-4CD0-A38F-CCADF5849A80";
background = {
paths = (
{
closed = 1;
nodes = (
"507 -15 OFFCURVE",
"608 125 OFFCURVE",
"608 320 CURVE SMOOTH",
"608 462 OFFCURVE",
"507 550 OFFCURVE",
"354 550 CURVE SMOOTH",
"135 550 OFFCURVE",
"34 410 OFFCURVE",
"34 215 CURVE SMOOTH",
"34 73 OFFCURVE",
"136 -15 OFFCURVE",
"288 -15 CURVE SMOOTH"
);
},
{
closed = 1;
nodes = (
"263 143 OFFCURVE",
"239 172 OFFCURVE",
"239 225 CURVE SMOOTH",
"239 305 OFFCURVE",
"249 391 OFFCURVE",
"337 391 CURVE SMOOTH",
"379 391 OFFCURVE",
"403 362 OFFCURVE",
"403 309 CURVE SMOOTH",
"403 229 OFFCURVE",
"391 143 OFFCURVE",
"305 143 CURVE SMOOTH"
);
}
);
};
layerId = "238EBE47-9D70-4C6C-998E-759ED4EA4CB0";
name = "Oct 3 17, 21:07";
paths = (
{
closed = 1;
nodes = (
"507 -15 OFFCURVE",
"608 125 OFFCURVE",
"608 320 CURVE SMOOTH",
"608 462 OFFCURVE",
"507 550 OFFCURVE",
"354 550 CURVE SMOOTH",
"135 550 OFFCURVE",
"34 410 OFFCURVE",
"34 215 CURVE SMOOTH",
"34 73 OFFCURVE",
"136 -15 OFFCURVE",
"288 -15 CURVE SMOOTH"
);
},
{
closed = 1;
nodes = (
"263 143 OFFCURVE",
"239 172 OFFCURVE",
"239 225 CURVE SMOOTH",
"239 305 OFFCURVE",
"249 391 OFFCURVE",
"337 391 CURVE SMOOTH",
"379 391 OFFCURVE",
"403 362 OFFCURVE",
"403 309 CURVE SMOOTH",
"403 229 OFFCURVE",
"391 143 OFFCURVE",
"305 143 CURVE SMOOTH"
);
}
);
width = 642;
},
{
anchors = (
{
name = top;
position = "{368, 535}";
}
);
associatedMasterId = "C1DA716A-5F29-4CD0-A38F-CCADF5849A80";
background = {
paths = (
{
closed = 1;
nodes = (
"507 -25 OFFCURVE",
"608 125 OFFCURVE",
"608 320 CURVE SMOOTH",
"608 462 OFFCURVE",
"507 546 OFFCURVE",
"354 550 CURVE SMOOTH",
"135 556 OFFCURVE",
"46 410 OFFCURVE",
"38 236 CURVE SMOOTH",
"30 73 OFFCURVE",
"136 -8 OFFCURVE",
"288 -15 CURVE SMOOTH"
);
},
{
closed = 1;
nodes = (
"255 146 OFFCURVE",
"232 172 OFFCURVE",
"237 245 CURVE SMOOTH",
"244 340 OFFCURVE",
"269 395 OFFCURVE",
"337 392 CURVE SMOOTH",
"379 390 OFFCURVE",
"403 362 OFFCURVE",
"403 309 CURVE SMOOTH",
"403 229 OFFCURVE",
"386 137 OFFCURVE",
"300 143 CURVE SMOOTH"
);
}
);
};
guideLines = (
{
angle = 80;
position = "{321, 268}";
}
);
layerId = "6D7BA73E-2F40-4FDE-A60F-57F1F342B806";
name = "Oct 3 17, 21:24";
paths = (
{
closed = 1;
nodes = (
"490 -15 OFFCURVE",
"602 115 OFFCURVE",
"605 316 CURVE SMOOTH",
"607 463 OFFCURVE",
"507 550 OFFCURVE",
"344 550 CURVE SMOOTH",
"152 550 OFFCURVE",
"39 420 OFFCURVE",
"37 219 CURVE SMOOTH",
"36 72 OFFCURVE",
"135 -15 OFFCURVE",
"298 -15 CURVE SMOOTH"
);
},
{
closed = 1;
nodes = (
"260 145 OFFCURVE",
"235 164 OFFCURVE",
"237 227 CURVE SMOOTH",
"240 339 OFFCURVE",
"275 393 OFFCURVE",
"336 392 CURVE SMOOTH",
"382 391 OFFCURVE",
"407 371 OFFCURVE",
"405 308 CURVE SMOOTH",
"401 196 OFFCURVE",
"367 141 OFFCURVE",
"306 143 CURVE SMOOTH"
);
}
);
width = 642;
},
{
anchors = (
{
name = top;
position = "{368, 535}";
}
);
associatedMasterId = "C1DA716A-5F29-4CD0-A38F-CCADF5849A80";
background = {
anchors = (
{
name = top;
position = "{368, 535}";
}
);
paths = (
{
closed = 1;
nodes = (
"490 -15 OFFCURVE",
"602 115 OFFCURVE",
"605 316 CURVE SMOOTH",
"607 463 OFFCURVE",
"507 550 OFFCURVE",
"344 550 CURVE SMOOTH",
"152 550 OFFCURVE",
"39 420 OFFCURVE",
"37 219 CURVE SMOOTH",
"36 72 OFFCURVE",
"135 -15 OFFCURVE",
"298 -15 CURVE SMOOTH"
);
},
{
closed = 1;
nodes = (
"260 145 OFFCURVE",
"235 164 OFFCURVE",
"237 227 CURVE SMOOTH",
"240 339 OFFCURVE",
"275 393 OFFCURVE",
"336 392 CURVE SMOOTH",
"382 391 OFFCURVE",
"407 371 OFFCURVE",
"405 308 CURVE SMOOTH",
"401 196 OFFCURVE",
"367 141 OFFCURVE",
"306 143 CURVE SMOOTH"
);
}
);
};
guideLines = (
{
angle = 80;
position = "{321, 268}";
}
);
layerId = "704A058A-F542-4D34-B1D0-03F1D0473D69";
name = "Oct 3 17, 21:28";
paths = (
{
closed = 1;
nodes = (
"490 -15 OFFCURVE",
"603 115 OFFCURVE",
"606 316 CURVE SMOOTH",
"608 463 OFFCURVE",
"507 550 OFFCURVE",
"346 550 CURVE SMOOTH",
"152 550 OFFCURVE",
"40 420 OFFCURVE",
"37 219 CURVE SMOOTH",
"35 72 OFFCURVE",
"135 -15 OFFCURVE",
"297 -15 CURVE SMOOTH"
);
},
{
closed = 1;
nodes = (
"260 143 OFFCURVE",
"237 164 OFFCURVE",
"237 221 CURVE SMOOTH",
"237 326 OFFCURVE",
"272 392 OFFCURVE",
"336 392 CURVE SMOOTH",
"383 392 OFFCURVE",
"406 371 OFFCURVE",
"406 314 CURVE SMOOTH",
"406 209 OFFCURVE",
"371 143 OFFCURVE",
"307 143 CURVE SMOOTH"
);
}
);
width = 642;
},
{
anchors = (
{
name = bottom;
position = "{270, 0}";
},
{
name = top;
position = "{342, 528}";
}
);
background = {
paths = (
{
closed = 1;
nodes = (
"476 -15 OFFCURVE",
"567 85 OFFCURVE",
"567 265 CURVE SMOOTH",
"567 444 OFFCURVE",
"476 543 OFFCURVE",
"312 543 CURVE SMOOTH",
"149 543 OFFCURVE",
"58 444 OFFCURVE",
"58 265 CURVE SMOOTH",
"58 85 OFFCURVE",
"149 -15 OFFCURVE",
"312 -15 CURVE SMOOTH"
);
},
{
closed = 1;
nodes = (
"209 70 OFFCURVE",
"160 137 OFFCURVE",
"160 265 CURVE SMOOTH",
"160 392 OFFCURVE",
"209 458 OFFCURVE",
"312 458 CURVE SMOOTH",
"416 458 OFFCURVE",
"465 392 OFFCURVE",
"465 265 CURVE SMOOTH",
"465 137 OFFCURVE",
"416 70 OFFCURVE",
"312 70 CURVE SMOOTH"
);
}
);
};
guideLines = (
{
angle = 80;
position = "{612, 353}";
}
);
layerId = "6641C2CA-B9F9-47EE-AEEC-6BEE387D8CB9";
paths = (
{
closed = 1;
nodes = (
"428 -15 OFFCURVE",
"522 75 OFFCURVE",
"554 255 CURVE SMOOTH",
"586 434 OFFCURVE",
"499 543 OFFCURVE",
"342 543 CURVE SMOOTH",
"184 543 OFFCURVE",
"91 454 OFFCURVE",
"59 275 CURVE SMOOTH",
"27 95 OFFCURVE",
"113 -15 OFFCURVE",
"269 -15 CURVE SMOOTH"
);
},
{
closed = 1;
nodes = (
"180 70 OFFCURVE",
"137 137 OFFCURVE",
"159 265 CURVE SMOOTH",
"181 392 OFFCURVE",
"233 458 OFFCURVE",
"335 458 CURVE SMOOTH",
"432 458 OFFCURVE",
"476 392 OFFCURVE",
"454 265 CURVE SMOOTH",
"432 137 OFFCURVE",
"379 70 OFFCURVE",
"276 70 CURVE SMOOTH"
);
}
);
width = 613;
}
);
unicode = 006F;
userData = {
RMXScaler = {
source = o;
};
};
},
{
glyphname = p;
lastChange = "2018-07-17 10:07:31 +0000";
layers = (
{
background = {
paths = (
{
closed = 1;
nodes = (
"77 -195 LINE",
"127 91 LINE",
"132 91 LINE",
"153 42 OFFCURVE",
"200 -15 OFFCURVE",
"299 -15 CURVE SMOOTH",
"460 -15 OFFCURVE",
"555 137 OFFCURVE",
"555 320 CURVE SMOOTH",
"555 448 OFFCURVE",
"486 530 OFFCURVE",
"366 530 CURVE SMOOTH",
"272 530 OFFCURVE",
"216 480 OFFCURVE",
"185 414 CURVE",
"181 414 LINE",
"188 515 LINE",
"147 515 LINE",
"22 -195 LINE"
);
},
{
closed = 1;
nodes = (
"204 32 OFFCURVE",
"146 86 OFFCURVE",
"146 195 CURVE SMOOTH",
"146 331 OFFCURVE",
"226 483 OFFCURVE",
"361 483 CURVE SMOOTH",
"456 483 OFFCURVE",
"500 413 OFFCURVE",
"500 315 CURVE SMOOTH",
"500 162 OFFCURVE",
"435 32 OFFCURVE",
"299 32 CURVE SMOOTH"
);
}
);
};
components = (
{
name = d;
transform = "{-1, 0, 0, -1, 621, 523}";
}
);
layerId = "CC363ACD-D5A5-4E19-A940-9AF36D109D9E";
width = 621;
},
{
background = {
paths = (
{
closed = 1;
nodes = (
"232 80 LINE",
"238 80 LINE",
"260 32 OFFCURVE",
"299 -15 OFFCURVE",
"389 -15 CURVE SMOOTH",
"567 -15 OFFCURVE",
"643 149 OFFCURVE",
"643 330 CURVE SMOOTH",
"643 450 OFFCURVE",
"583 549 OFFCURVE",
"467 549 CURVE SMOOTH",
"388 549 OFFCURVE",
"329 502 OFFCURVE",
"301 454 CURVE",
"289 454 LINE",
"287 535 LINE",
"107 535 LINE",
"-22 -195 LINE",
"183 -195 LINE"
);
},
{
closed = 1;
nodes = (
"411 384 OFFCURVE",
"437 352 OFFCURVE",
"437 302 CURVE SMOOTH",
"437 242 OFFCURVE",
"424 151 OFFCURVE",
"331 151 CURVE SMOOTH",
"284 151 OFFCURVE",
"259 183 OFFCURVE",
"259 233 CURVE SMOOTH",
"259 293 OFFCURVE",
"274 384 OFFCURVE",
"365 384 CURVE SMOOTH"
);
}
);
};
components = (
{
name = d;
transform = "{-1, 0, 0, -1, 676, 535}";
}
);
layerId = "C1DA716A-5F29-4CD0-A38F-CCADF5849A80";
width = 676;
},
{
components = (
{
name = d;
transform = "{-1, 0, 0, -1, 634, 528}";
}
);
layerId = "6641C2CA-B9F9-47EE-AEEC-6BEE387D8CB9";
width = 634;
}
);
leftMetricsKey = n;
rightMetricsKey = o;
unicode = 0070;
userData = {
RMXScaler = {
source = p;
};
};
},
{
glyphname = q;
lastChange = "2018-05-18 19:29:27 +0000";
layers = (
{
background = {
paths = (
{
closed = 1;
nodes = (
"436 -195 LINE",
"561 515 LINE",
"519 515 LINE",
"488 412 LINE",
"484 412 LINE",
"466 465 OFFCURVE",
"425 530 OFFCURVE",
"318 530 CURVE SMOOTH",
"157 530 OFFCURVE",
"62 378 OFFCURVE",
"62 195 CURVE SMOOTH",
"62 69 OFFCURVE",
"126 -15 OFFCURVE",
"246 -15 CURVE SMOOTH",
"340 -15 OFFCURVE",
"395 32 OFFCURVE",
"426 88 CURVE",
"431 88 LINE",
"381 -195 LINE"
);
},
{
closed = 1;
nodes = (
"427 483 OFFCURVE",
"469 402 OFFCURVE",
"469 303 CURVE SMOOTH",
"469 179 OFFCURVE",
"400 32 OFFCURVE",
"256 32 CURVE SMOOTH",
"161 32 OFFCURVE",
"117 89 OFFCURVE",
"117 195 CURVE SMOOTH",
"117 348 OFFCURVE",
"187 483 OFFCURVE",
"323 483 CURVE SMOOTH"
);
}
);
};
components = (
{
name = b;
transform = "{-1, 0, 0, -1, 621, 523}";
}
);
layerId = "CC363ACD-D5A5-4E19-A940-9AF36D109D9E";
width = 621;
},
{
background = {
paths = (
{
closed = 1;
nodes = (
"531 -195 LINE",
"661 535 LINE",
"479 535 LINE",
"448 454 LINE",
"436 454 LINE",
"410 507 OFFCURVE",
"365 549 OFFCURVE",
"280 549 CURVE SMOOTH",
"113 549 OFFCURVE",
"32 385 OFFCURVE",
"32 194 CURVE SMOOTH",
"32 74 OFFCURVE",
"92 -15 OFFCURVE",
"207 -15 CURVE SMOOTH",
"287 -15 OFFCURVE",
"336 21 OFFCURVE",
"370 80 CURVE",
"377 80 LINE",
"326 -195 LINE"
);
},
{
closed = 1;
nodes = (
"390 384 OFFCURVE",
"416 352 OFFCURVE",
"416 302 CURVE SMOOTH",
"416 242 OFFCURVE",
"403 151 OFFCURVE",
"310 151 CURVE SMOOTH",
"263 151 OFFCURVE",
"238 183 OFFCURVE",
"238 233 CURVE SMOOTH",
"238 293 OFFCURVE",
"253 384 OFFCURVE",
"344 384 CURVE SMOOTH"
);
}
);
};
components = (
{
name = b;
transform = "{-1, 0, 0, -1, 677, 535}";
}
);
layerId = "C1DA716A-5F29-4CD0-A38F-CCADF5849A80";
width = 677;
},
{
components = (
{
name = b;
transform = "{-1, 0, 0, -1, 634, 528}";
}
);
layerId = "6641C2CA-B9F9-47EE-AEEC-6BEE387D8CB9";
width = 634;
}
);
leftMetricsKey = o;
rightMetricsKey = idotless;
unicode = 0071;
userData = {
RMXScaler = {
source = q;
};
};
},
{
color = 7;
glyphname = r;
lastChange = "2018-03-12 14:33:06 +0000";
layers = (
{
anchors = (
{
name = bottom;
position = "{84, 0}";
},
{
name = top;
position = "{268, 523}";
}
);
background = {
paths = (
{
closed = 1;
nodes = (
"288 538 OFFCURVE",
"225 486 OFFCURVE",
"187 428 CURVE",
"183 428 LINE",
"190 523 LINE",
"148 523 LINE",
"56 0 LINE",
"111 0 LINE",
"161 284 LINE SMOOTH",
"181 398 OFFCURVE",
"264 485 OFFCURVE",
"371 485 CURVE SMOOTH",
"441 485 OFFCURVE",
"476 453 OFFCURVE",
"476 391 CURVE SMOOTH",
"476 373 OFFCURVE",
"474 351 OFFCURVE",
"470 326 CURVE SMOOTH",
"413 0 LINE",
"468 0 LINE",
"525 325 LINE SMOOTH",
"529 349 OFFCURVE",
"531 370 OFFCURVE",
"531 395 CURVE SMOOTH",
"531 484 OFFCURVE",
"479 538 OFFCURVE",
"376 538 CURVE SMOOTH"
);
}
);
};
layerId = "CC363ACD-D5A5-4E19-A940-9AF36D109D9E";
paths = (
{
closed = 1;
nodes = (
"271 538 OFFCURVE",
"223 502 OFFCURVE",
"186 428 CURVE",
"183 428 LINE",
"190 523 LINE",
"148 523 LINE",
"56 0 LINE",
"111 0 LINE",
"161 284 LINE SMOOTH",
"180 392 OFFCURVE",
"238 483 OFFCURVE",
"334 483 CURVE SMOOTH",
"358 483 OFFCURVE",
"375 479 OFFCURVE",
"385 477 CURVE",
"397 529 LINE",
"384 534 OFFCURVE",
"360 538 OFFCURVE",
"340 538 CURVE SMOOTH"
);
}
);
width = 355;
},
{
anchors = (
{
name = bottom;
position = "{116, 0}";
},
{
name = top;
position = "{291, 535}";
}
);
background = {
paths = (
{
closed = 1;
nodes = (
"375 550 OFFCURVE",
"331 493 OFFCURVE",
"293 427 CURVE",
"286 427 LINE",
"284 535 LINE",
"108 535 LINE",
"13 0 LINE",
"223 0 LINE",
"271 272 LINE SMOOTH",
"283 338 OFFCURVE",
"314 370 OFFCURVE",
"363 370 CURVE SMOOTH",
"398 370 OFFCURVE",
"416 353 OFFCURVE",
"416 319 CURVE SMOOTH",
"416 308 OFFCURVE",
"414 293 OFFCURVE",
"412 282 CURVE SMOOTH",
"362 0 LINE",
"572 0 LINE",
"627 310 LINE SMOOTH",
"632 338 OFFCURVE",
"634 364 OFFCURVE",
"634 391 CURVE SMOOTH",
"634 487 OFFCURVE",
"584 550 OFFCURVE",
"482 550 CURVE SMOOTH"
);
}
);
};
layerId = "C1DA716A-5F29-4CD0-A38F-CCADF5849A80";
paths = (
{
closed = 1;
nodes = (
"347 550 OFFCURVE",
"318 504 OFFCURVE",
"293 417 CURVE",
"286 417 LINE",
"284 535 LINE",
"108 535 LINE",
"13 0 LINE",
"223 0 LINE",
"265 242 LINE SMOOTH",
"280 329 OFFCURVE",
"317 358 OFFCURVE",
"392 358 CURVE SMOOTH",
"408 358 OFFCURVE",
"429 355 OFFCURVE",
"444 352 CURVE",
"487 540 LINE",
"475 545 OFFCURVE",
"448 550 OFFCURVE",
"427 550 CURVE SMOOTH"
);
}
);
width = 447;
},
{
anchors = (
{
name = bottom;
position = "{94, 0}";
},
{
name = top;
position = "{286, 528}";
}
);
background = {
paths = (
{
closed = 1;
nodes = (
"306 543 OFFCURVE",
"257 493 OFFCURVE",
"221 437 CURVE",
"216 437 LINE",
"221 528 LINE",
"138 528 LINE",
"44 0 LINE",
"144 0 LINE",
"196 295 LINE SMOOTH",
"213 394 OFFCURVE",
"293 453 OFFCURVE",
"368 453 CURVE SMOOTH",
"428 453 OFFCURVE",
"455 425 OFFCURVE",
"455 371 CURVE SMOOTH",
"455 357 OFFCURVE",
"453 338 OFFCURVE",
"449 314 CURVE SMOOTH",
"393 0 LINE",
"493 0 LINE",
"549 313 LINE SMOOTH",
"554 343 OFFCURVE",
"556 370 OFFCURVE",
"556 396 CURVE SMOOTH",
"556 486 OFFCURVE",
"502 543 OFFCURVE",
"404 543 CURVE SMOOTH"
);
}
);
};
layerId = "6641C2CA-B9F9-47EE-AEEC-6BEE387D8CB9";
paths = (
{
closed = 1;
nodes = (
"300 543 OFFCURVE",
"257 510 OFFCURVE",
"221 437 CURVE",
"216 437 LINE",
"221 528 LINE",
"138 528 LINE",
"45 0 LINE",
"145 0 LINE",
"198 297 LINE SMOOTH",
"214 387 OFFCURVE",
"269 446 OFFCURVE",
"348 446 CURVE SMOOTH",
"371 446 OFFCURVE",
"392 442 OFFCURVE",
"405 438 CURVE",
"427 534 LINE",
"414 539 OFFCURVE",
"391 543 OFFCURVE",
"370 543 CURVE SMOOTH"
);
}
);
width = 384;
}
);
leftMetricsKey = n;
unicode = 0072;
userData = {
RMXScaler = {
source = r;
};
};
},
{
color = 7;
glyphname = s;
lastChange = "2018-06-28 13:59:14 +0000";
layers = (
{
anchors = (
{
name = bottom;
position = "{239, 0}";
},
{
name = top;
position = "{325, 525}";
}
);
associatedMasterId = "CC363ACD-D5A5-4E19-A940-9AF36D109D9E";
background = {
anchors = (
{
name = bottom;
position = "{284, 0}";
},
{
name = top;
position = "{277, 525}";
}
);
paths = (
{
closed = 1;
nodes = (
"403 -15 OFFCURVE",
"506 51 OFFCURVE",
"506 171 CURVE SMOOTH",
"506 252 OFFCURVE",
"450 293 OFFCURVE",
"345 312 CURVE SMOOTH",
"272 325 LINE SMOOTH",
"229 333 OFFCURVE",
"211 350 OFFCURVE",
"211 376 CURVE SMOOTH",
"211 414 OFFCURVE",
"242 435 OFFCURVE",
"299 435 CURVE SMOOTH",
"362 435 OFFCURVE",
"384 418 OFFCURVE",
"384 373 CURVE",
"520 373 LINE",
"524 481 OFFCURVE",
"461 540 OFFCURVE",
"304 540 CURVE SMOOTH",
"164 540 OFFCURVE",
"75 482 OFFCURVE",
"75 361 CURVE SMOOTH",
"75 276 OFFCURVE",
"132 233 OFFCURVE",
"224 217 CURVE SMOOTH",
"297 204 LINE SMOOTH",
"353 194 OFFCURVE",
"370 178 OFFCURVE",
"370 151 CURVE SMOOTH",
"370 109 OFFCURVE",
"329 90 OFFCURVE",
"271 90 CURVE SMOOTH",
"202 90 OFFCURVE",
"169 109 OFFCURVE",
"169 157 CURVE",
"33 157 LINE",
"33 39 OFFCURVE",
"108 -15 OFFCURVE",
"269 -15 CURVE SMOOTH"
);
}
);
};
layerId = "88BC82E2-047E-4845-A855-EDCB4372DCA0";
name = "Aug 30 17, 11:32";
paths = (
{
closed = 1;
nodes = (
"404 -15 OFFCURVE",
"500 54 OFFCURVE",
"500 180 CURVE SMOOTH",
"500 248 OFFCURVE",
"449 295 OFFCURVE",
"347 314 CURVE SMOOTH",
"276 327 LINE SMOOTH",
"236 334 OFFCURVE",
"221 351 OFFCURVE",
"221 375 CURVE SMOOTH",
"221 413 OFFCURVE",
"251 435 OFFCURVE",
"308 435 CURVE SMOOTH",
"370 435 OFFCURVE",
"391 419 OFFCURVE",
"388 373 CURVE",
"524 373 LINE",
"537 481 OFFCURVE",
"486 540 OFFCURVE",
"327 540 CURVE SMOOTH",
"167 540 OFFCURVE",
"82 463 OFFCURVE",
"82 354 CURVE SMOOTH",
"82 279 OFFCURVE",
"134 232 OFFCURVE",
"224 216 CURVE SMOOTH",
"291 204 LINE SMOOTH",
"344 195 OFFCURVE",
"359 175 OFFCURVE",
"359 151 CURVE SMOOTH",
"359 108 OFFCURVE",
"318 90 OFFCURVE",
"263 90 CURVE SMOOTH",
"196 90 OFFCURVE",
"165 109 OFFCURVE",
"167 157 CURVE",
"31 157 LINE",
"23 40 OFFCURVE",
"76 -15 OFFCURVE",
"240 -15 CURVE SMOOTH"
);
}
);
width = 568;
},
{
anchors = (
{
name = bottom;
position = "{226, 0}";
},
{
name = top;
position = "{311, 523}";
}
);
background = {
anchors = (
{
name = bottom;
position = "{233, 0}";
},
{
name = top;
position = "{312, 515}";
}
);
paths = (
{
closed = 1;
nodes = (
"362 -15 OFFCURVE",
"435 46 OFFCURVE",
"435 146 CURVE SMOOTH",
"435 213 OFFCURVE",
"395 254 OFFCURVE",
"312 275 CURVE SMOOTH",
"229 297 LINE SMOOTH",
"180 310 OFFCURVE",
"156 336 OFFCURVE",
"156 381 CURVE SMOOTH",
"156 449 OFFCURVE",
"202 485 OFFCURVE",
"291 485 CURVE SMOOTH",
"373 485 OFFCURVE",
"413 455 OFFCURVE",
"415 379 CURVE",
"467 382 LINE",
"468 477 OFFCURVE",
"401 530 OFFCURVE",
"294 530 CURVE SMOOTH",
"174 530 OFFCURVE",
"105 473 OFFCURVE",
"105 378 CURVE SMOOTH",
"105 310 OFFCURVE",
"145 270 OFFCURVE",
"218 251 CURVE SMOOTH",
"301 229 LINE SMOOTH",
"363 213 OFFCURVE",
"384 189 OFFCURVE",
"384 142 CURVE SMOOTH",
"384 69 OFFCURVE",
"335 30 OFFCURVE",
"235 30 CURVE SMOOTH",
"144 30 OFFCURVE",
"100 63 OFFCURVE",
"102 140 CURVE",
"50 137 LINE",
"46 35 OFFCURVE",
"116 -15 OFFCURVE",
"232 -15 CURVE SMOOTH"
);
}
);
};
guideLines = (
{
angle = 80;
position = "{153, 353}";
}
);
layerId = "CC363ACD-D5A5-4E19-A940-9AF36D109D9E";
paths = (
{
closed = 1;
nodes = (
"352 -15 OFFCURVE",
"424 28 OFFCURVE",
"439 116 CURVE SMOOTH",
"455 208 OFFCURVE",
"400 258 OFFCURVE",
"314 279 CURVE SMOOTH",
"247 295 LINE SMOOTH",
"176 312 OFFCURVE",
"152 347 OFFCURVE",
"162 405 CURVE SMOOTH",
"173 471 OFFCURVE",
"223 492 OFFCURVE",
"299 492 CURVE SMOOTH",
"382 492 OFFCURVE",
"418 457 OFFCURVE",
"420 389 CURVE",
"474 392 LINE",
"472 478 OFFCURVE",
"421 540 OFFCURVE",
"304 540 CURVE SMOOTH",
"203 540 OFFCURVE",
"127 504 OFFCURVE",
"110 410 CURVE SMOOTH",
"96 331 OFFCURVE",
"132 274 OFFCURVE",
"231 250 CURVE SMOOTH",
"294 235 LINE SMOOTH",
"361 219 OFFCURVE",
"397 186 OFFCURVE",
"386 121 CURVE SMOOTH",
"375 57 OFFCURVE",
"319 33 OFFCURVE",
"240 33 CURVE SMOOTH",
"151 33 OFFCURVE",
"103 66 OFFCURVE",
"98 145 CURVE",
"44 142 LINE",
"47 44 OFFCURVE",
"110 -15 OFFCURVE",
"235 -15 CURVE SMOOTH"
);
}
);
width = 530;
},
{
anchors = (
{
name = bottom;
position = "{271, 0}";
},
{
name = top;
position = "{333, 535}";
}
);
background = {
anchors = (
{
name = bottom;
position = "{254, 0}";
},
{
name = top;
position = "{343, 535}";
}
);
paths = (
{
closed = 1;
nodes = (
"419 -15 OFFCURVE",
"532 42 OFFCURVE",
"532 182 CURVE SMOOTH",
"532 261 OFFCURVE",
"468 309 OFFCURVE",
"374 328 CURVE SMOOTH",
"296 344 LINE SMOOTH",
"268 350 OFFCURVE",
"256 361 OFFCURVE",
"256 382 CURVE SMOOTH",
"256 406 OFFCURVE",
"277 420 OFFCURVE",
"317 419 CURVE SMOOTH",
"360 418 OFFCURVE",
"372 397 OFFCURVE",
"372 364 CURVE",
"560 378 LINE",
"560 492 OFFCURVE",
"484 550 OFFCURVE",
"322 550 CURVE SMOOTH",
"161 550 OFFCURVE",
"69 481 OFFCURVE",
"69 360 CURVE SMOOTH",
"69 274 OFFCURVE",
"118 223 OFFCURVE",
"223 203 CURVE SMOOTH",
"291 190 LINE SMOOTH",
"330 183 OFFCURVE",
"337 166 OFFCURVE",
"337 150 CURVE SMOOTH",
"337 127 OFFCURVE",
"318 115 OFFCURVE",
"279 115 CURVE SMOOTH",
"231 115 OFFCURVE",
"220 136 OFFCURVE",
"218 170 CURVE",
"26 155 LINE",
"33 34 OFFCURVE",
"108 -15 OFFCURVE",
"263 -15 CURVE SMOOTH"
);
}
);
};
layerId = "C1DA716A-5F29-4CD0-A38F-CCADF5849A80";
paths = (
{
closed = 1;
nodes = (
"425 -20 OFFCURVE",
"522 32 OFFCURVE",
"541 150 CURVE SMOOTH",
"557 251 OFFCURVE",
"501 303 OFFCURVE",
"388 331 CURVE SMOOTH",
"315 349 LINE SMOOTH",
"278 358 OFFCURVE",
"267 369 OFFCURVE",
"270 390 CURVE SMOOTH",
"273 409 OFFCURVE",
"293 415 OFFCURVE",
"321 415 CURVE SMOOTH",
"363 415 OFFCURVE",
"376 398 OFFCURVE",
"377 368 CURVE",
"574 379 LINE",
"568 500 OFFCURVE",
"496 553 OFFCURVE",
"333 553 CURVE SMOOTH",
"179 553 OFFCURVE",
"85 502 OFFCURVE",
"68 395 CURVE SMOOTH",
"53 300 OFFCURVE",
"100 230 OFFCURVE",
"225 198 CURVE SMOOTH",
"288 182 LINE SMOOTH",
"327 172 OFFCURVE",
"341 162 OFFCURVE",
"337 141 CURVE SMOOTH",
"333 121 OFFCURVE",
"316 115 OFFCURVE",
"280 115 CURVE SMOOTH",
"236 115 OFFCURVE",
"217 130 OFFCURVE",
"212 165 CURVE",
"14 150 LINE",
"19 33 OFFCURVE",
"87 -20 OFFCURVE",
"268 -20 CURVE SMOOTH"
);
}
);
width = 596;
},
{
anchors = (
{
name = bottom;
position = "{222, 0}";
},
{
name = top;
position = "{306, 515}";
}
);
associatedMasterId = "CC363ACD-D5A5-4E19-A940-9AF36D109D9E";
background = {
paths = (
{
closed = 1;
nodes = (
"343 -15 OFFCURVE",
"429 44 OFFCURVE",
"429 155 CURVE SMOOTH",
"429 225 OFFCURVE",
"378 258 OFFCURVE",
"299 277 CURVE SMOOTH",
"241 291 LINE SMOOTH",
"182 305 OFFCURVE",
"156 329 OFFCURVE",
"156 373 CURVE SMOOTH",
"156 447 OFFCURVE",
"213 483 OFFCURVE",
"297 483 CURVE SMOOTH",
"380 483 OFFCURVE",
"409 447 OFFCURVE",
"410 379 CURVE",
"463 379 LINE",
"466 476 OFFCURVE",
"412 530 OFFCURVE",
"299 530 CURVE SMOOTH",
"187 530 OFFCURVE",
"105 473 OFFCURVE",
"105 370 CURVE SMOOTH",
"105 297 OFFCURVE",
"156 260 OFFCURVE",
"220 245 CURVE SMOOTH",
"291 228 LINE SMOOTH",
"345 215 OFFCURVE",
"377 196 OFFCURVE",
"377 150 CURVE SMOOTH",
"377 68 OFFCURVE",
"316 31 OFFCURVE",
"221 31 CURVE SMOOTH",
"135 31 OFFCURVE",
"94 59 OFFCURVE",
"96 140 CURVE",
"43 140 LINE",
"34 38 OFFCURVE",
"100 -15 OFFCURVE",
"223 -15 CURVE SMOOTH"
);
},
{
closed = 1;
nodes = (
"-114 -15 OFFCURVE",
"-31 33 OFFCURVE",
"-31 133 CURVE SMOOTH",
"-31 224 OFFCURVE",
"-91 257 OFFCURVE",
"-190 278 CURVE SMOOTH",
"-255 292 LINE SMOOTH",
"-330 308 OFFCURVE",
"-363 336 OFFCURVE",
"-363 392 CURVE SMOOTH",
"-363 450 OFFCURVE",
"-317 483 OFFCURVE",
"-232 483 CURVE SMOOTH",
"-143 483 OFFCURVE",
"-99 451 OFFCURVE",
"-92 379 CURVE",
"-37 379 LINE",
"-46 483 OFFCURVE",
"-112 530 OFFCURVE",
"-232 530 CURVE SMOOTH",
"-341 530 OFFCURVE",
"-414 479 OFFCURVE",
"-414 392 CURVE SMOOTH",
"-414 299 OFFCURVE",
"-349 261 OFFCURVE",
"-271 244 CURVE SMOOTH",
"-191 227 LINE SMOOTH",
"-123 213 OFFCURVE",
"-82 194 OFFCURVE",
"-82 128 CURVE SMOOTH",
"-82 63 OFFCURVE",
"-139 31 OFFCURVE",
"-228 31 CURVE SMOOTH",
"-324 31 OFFCURVE",
"-376 65 OFFCURVE",
"-380 140 CURVE",
"-435 140 LINE",
"-435 39 OFFCURVE",
"-360 -15 OFFCURVE",
"-226 -15 CURVE SMOOTH"
);
}
);
};
layerId = "31CB84DC-1B2D-425A-B3D8-19BCB4EBD1F5";
name = "Sep 27 17, 15:35";
paths = (
{
closed = 1;
nodes = (
"349 -15 OFFCURVE",
"430 39 OFFCURVE",
"430 147 CURVE SMOOTH",
"430 217 OFFCURVE",
"375 252 OFFCURVE",
"296 276 CURVE SMOOTH",
"247 291 LINE SMOOTH",
"188 309 OFFCURVE",
"152 334 OFFCURVE",
"152 378 CURVE SMOOTH",
"152 447 OFFCURVE",
"199 483 OFFCURVE",
"293 483 CURVE SMOOTH",
"376 483 OFFCURVE",
"410 447 OFFCURVE",
"411 379 CURVE",
"464 379 LINE",
"467 466 OFFCURVE",
"408 530 OFFCURVE",
"295 530 CURVE SMOOTH",
"173 530 OFFCURVE",
"101 473 OFFCURVE",
"101 375 CURVE SMOOTH",
"101 301 OFFCURVE",
"162 266 OFFCURVE",
"228 246 CURVE SMOOTH",
"288 228 LINE SMOOTH",
"342 212 OFFCURVE",
"378 188 OFFCURVE",
"378 142 CURVE SMOOTH",
"378 65 OFFCURVE",
"322 31 OFFCURVE",
"227 31 CURVE SMOOTH",
"141 31 OFFCURVE",
"95 59 OFFCURVE",
"97 140 CURVE",
"44 140 LINE",
"40 38 OFFCURVE",
"106 -15 OFFCURVE",
"229 -15 CURVE SMOOTH"
);
}
);
width = 513;
},
{
associatedMasterId = "CC363ACD-D5A5-4E19-A940-9AF36D109D9E";
background = {
paths = (
{
closed = 1;
nodes = (
"357 -15 OFFCURVE",
"430 44 OFFCURVE",
"430 145 CURVE SMOOTH",
"430 214 OFFCURVE",
"391 255 OFFCURVE",
"308 275 CURVE SMOOTH",
"226 295 LINE SMOOTH",
"176 307 OFFCURVE",
"152 334 OFFCURVE",
"152 380 CURVE SMOOTH",
"152 450 OFFCURVE",
"198 485 OFFCURVE",
"287 485 CURVE SMOOTH",
"369 485 OFFCURVE",
"409 455 OFFCURVE",
"411 379 CURVE",
"463 379 LINE",
"466 476 OFFCURVE",
"397 530 OFFCURVE",
"290 530 CURVE SMOOTH",
"170 530 OFFCURVE",
"101 474 OFFCURVE",
"101 378 CURVE SMOOTH",
"101 308 OFFCURVE",
"141 268 OFFCURVE",
"214 250 CURVE SMOOTH",
"296 230 LINE SMOOTH",
"358 215 OFFCURVE",
"379 191 OFFCURVE",
"379 142 CURVE SMOOTH",
"379 67 OFFCURVE",
"330 30 OFFCURVE",
"230 30 CURVE SMOOTH",
"138 30 OFFCURVE",
"95 63 OFFCURVE",
"97 140 CURVE",
"45 140 LINE",
"41 40 OFFCURVE",
"110 -15 OFFCURVE",
"227 -15 CURVE SMOOTH"
);
}
);
};
guideLines = (
{
angle = 166.293;
position = "{296, 230}";
},
{
angle = -13.707;
position = "{308, 275}";
}
);
layerId = "3EA3D867-BB2D-4979-9C60-B32A886F64F9";
name = "Sep 27 17, 16:22";
paths = (
{
closed = 1;
nodes = (
"357 -15 OFFCURVE",
"430 44 OFFCURVE",
"430 145 CURVE SMOOTH",
"430 214 OFFCURVE",
"391 255 OFFCURVE",
"308 275 CURVE SMOOTH",
"226 295 LINE SMOOTH",
"176 307 OFFCURVE",
"152 334 OFFCURVE",
"152 380 CURVE SMOOTH",
"152 450 OFFCURVE",
"198 485 OFFCURVE",
"287 485 CURVE SMOOTH",
"369 485 OFFCURVE",
"409 455 OFFCURVE",
"411 379 CURVE",
"463 379 LINE",
"466 476 OFFCURVE",
"397 530 OFFCURVE",
"290 530 CURVE SMOOTH",
"170 530 OFFCURVE",
"101 474 OFFCURVE",
"101 378 CURVE SMOOTH",
"101 308 OFFCURVE",
"141 268 OFFCURVE",
"214 250 CURVE SMOOTH",
"296 230 LINE SMOOTH",
"358 215 OFFCURVE",
"379 191 OFFCURVE",
"379 142 CURVE SMOOTH",
"379 67 OFFCURVE",
"330 30 OFFCURVE",
"230 30 CURVE SMOOTH",
"138 30 OFFCURVE",
"95 63 OFFCURVE",
"97 140 CURVE",
"45 140 LINE",
"41 40 OFFCURVE",
"110 -15 OFFCURVE",
"227 -15 CURVE SMOOTH"
);
}
);
width = 513;
},
{
anchors = (
{
name = bottom;
position = "{245, 0}";
},
{
name = top;
position = "{334, 535}";
}
);
associatedMasterId = "C1DA716A-5F29-4CD0-A38F-CCADF5849A80";
background = {
anchors = (
{
name = bottom;
position = "{245, 0}";
},
{
name = top;
position = "{334, 535}";
}
);
paths = (
{
closed = 1;
nodes = (
"410 -15 OFFCURVE",
"523 42 OFFCURVE",
"523 182 CURVE SMOOTH",
"523 261 OFFCURVE",
"459 306 OFFCURVE",
"365 328 CURVE SMOOTH",
"305 342 LINE SMOOTH",
"265 351 OFFCURVE",
"253 363 OFFCURVE",
"253 383 CURVE SMOOTH",
"253 407 OFFCURVE",
"276 419 OFFCURVE",
"309 419 CURVE SMOOTH",
"350 419 OFFCURVE",
"365 402 OFFCURVE",
"365 369 CURVE",
"557 369 LINE",
"557 486 OFFCURVE",
"472 550 OFFCURVE",
"321 550 CURVE SMOOTH",
"161 550 OFFCURVE",
"60 487 OFFCURVE",
"60 361 CURVE SMOOTH",
"60 281 OFFCURVE",
"109 226 OFFCURVE",
"214 203 CURVE SMOOTH",
"282 188 LINE SMOOTH",
"321 179 OFFCURVE",
"328 166 OFFCURVE",
"328 150 CURVE SMOOTH",
"328 127 OFFCURVE",
"309 115 OFFCURVE",
"270 115 CURVE SMOOTH",
"227 115 OFFCURVE",
"211 131 OFFCURVE",
"209 165 CURVE",
"17 165 LINE",
"14 44 OFFCURVE",
"99 -15 OFFCURVE",
"254 -15 CURVE SMOOTH"
);
}
);
};
layerId = "A611FA9B-88AB-4381-83C3-65CCC488E4C5";
name = "Sep 27 17, 16:27";
paths = (
{
closed = 1;
nodes = (
"410 -15 OFFCURVE",
"523 42 OFFCURVE",
"523 182 CURVE SMOOTH",
"523 261 OFFCURVE",
"459 306 OFFCURVE",
"365 328 CURVE SMOOTH",
"305 342 LINE SMOOTH",
"265 351 OFFCURVE",
"253 363 OFFCURVE",
"253 383 CURVE SMOOTH",
"253 407 OFFCURVE",
"276 419 OFFCURVE",
"309 419 CURVE SMOOTH",
"350 419 OFFCURVE",
"365 402 OFFCURVE",
"365 369 CURVE",
"557 369 LINE",
"557 486 OFFCURVE",
"472 550 OFFCURVE",
"321 550 CURVE SMOOTH",
"161 550 OFFCURVE",
"60 487 OFFCURVE",
"60 361 CURVE SMOOTH",
"60 281 OFFCURVE",
"109 226 OFFCURVE",
"214 203 CURVE SMOOTH",
"282 188 LINE SMOOTH",
"321 179 OFFCURVE",
"328 166 OFFCURVE",
"328 150 CURVE SMOOTH",
"328 127 OFFCURVE",
"309 115 OFFCURVE",
"270 115 CURVE SMOOTH",
"227 115 OFFCURVE",
"211 131 OFFCURVE",
"209 165 CURVE",
"17 165 LINE",
"14 44 OFFCURVE",
"99 -15 OFFCURVE",
"254 -15 CURVE SMOOTH"
);
}
);
width = 577;
},
{
anchors = (
{
name = bottom;
position = "{226, 0}";
},
{
name = top;
position = "{305, 515}";
}
);
associatedMasterId = "CC363ACD-D5A5-4E19-A940-9AF36D109D9E";
background = {
anchors = (
{
name = bottom;
position = "{222, 0}";
},
{
name = top;
position = "{306, 515}";
}
);
paths = (
{
closed = 1;
nodes = (
"349 -15 OFFCURVE",
"430 39 OFFCURVE",
"430 147 CURVE SMOOTH",
"430 217 OFFCURVE",
"375 252 OFFCURVE",
"296 276 CURVE SMOOTH",
"247 291 LINE SMOOTH",
"188 309 OFFCURVE",
"152 334 OFFCURVE",
"152 378 CURVE SMOOTH",
"152 447 OFFCURVE",
"199 483 OFFCURVE",
"293 483 CURVE SMOOTH",
"376 483 OFFCURVE",
"410 447 OFFCURVE",
"411 379 CURVE",
"464 379 LINE",
"467 466 OFFCURVE",
"408 530 OFFCURVE",
"295 530 CURVE SMOOTH",
"173 530 OFFCURVE",
"101 473 OFFCURVE",
"101 375 CURVE SMOOTH",
"101 301 OFFCURVE",
"162 266 OFFCURVE",
"228 246 CURVE SMOOTH",
"288 228 LINE SMOOTH",
"342 212 OFFCURVE",
"378 188 OFFCURVE",
"378 142 CURVE SMOOTH",
"378 65 OFFCURVE",
"322 31 OFFCURVE",
"227 31 CURVE SMOOTH",
"141 31 OFFCURVE",
"95 59 OFFCURVE",
"97 140 CURVE",
"44 140 LINE",
"40 38 OFFCURVE",
"106 -15 OFFCURVE",
"229 -15 CURVE SMOOTH"
);
}
);
};
guideLines = (
{
angle = 166.293;
position = "{293, 230}";
},
{
angle = -13.707;
position = "{305, 275}";
},
{
angle = 256.8313;
position = "{229, 153}";
showMeasurement = 1;
}
);
layerId = "C9C38675-991D-44E1-B5E7-084FC7C680B3";
name = "Sep 29 17, 09:46";
paths = (
{
closed = 1;
nodes = (
"355 -15 OFFCURVE",
"428 46 OFFCURVE",
"428 146 CURVE SMOOTH",
"428 213 OFFCURVE",
"388 254 OFFCURVE",
"305 275 CURVE SMOOTH",
"222 296 LINE SMOOTH",
"173 309 OFFCURVE",
"149 335 OFFCURVE",
"149 381 CURVE SMOOTH",
"149 449 OFFCURVE",
"195 485 OFFCURVE",
"284 485 CURVE SMOOTH",
"366 485 OFFCURVE",
"406 455 OFFCURVE",
"408 379 CURVE",
"460 379 LINE",
"463 476 OFFCURVE",
"394 530 OFFCURVE",
"287 530 CURVE SMOOTH",
"167 530 OFFCURVE",
"98 473 OFFCURVE",
"98 378 CURVE SMOOTH",
"98 309 OFFCURVE",
"138 269 OFFCURVE",
"211 250 CURVE SMOOTH",
"294 229 LINE SMOOTH",
"356 213 OFFCURVE",
"377 189 OFFCURVE",
"377 142 CURVE SMOOTH",
"377 69 OFFCURVE",
"328 30 OFFCURVE",
"228 30 CURVE SMOOTH",
"137 30 OFFCURVE",
"93 63 OFFCURVE",
"95 140 CURVE",
"43 140 LINE",
"39 40 OFFCURVE",
"109 -15 OFFCURVE",
"225 -15 CURVE SMOOTH"
);
}
);
width = 509;
},
{
anchors = (
{
name = bottom;
position = "{258, 0}";
},
{
name = top;
position = "{319, 525}";
}
);
associatedMasterId = "CC363ACD-D5A5-4E19-A940-9AF36D109D9E";
background = {
paths = (
{
closed = 1;
nodes = (
"389 -15 OFFCURVE",
"496 52 OFFCURVE",
"496 168 CURVE SMOOTH",
"496 253 OFFCURVE",
"445 293 OFFCURVE",
"341 312 CURVE SMOOTH",
"271 325 LINE SMOOTH",
"229 333 OFFCURVE",
"213 350 OFFCURVE",
"213 376 CURVE SMOOTH",
"213 414 OFFCURVE",
"246 435 OFFCURVE",
"302 435 CURVE SMOOTH",
"364 435 OFFCURVE",
"385 418 OFFCURVE",
"384 373 CURVE",
"520 373 LINE",
"526 481 OFFCURVE",
"465 540 OFFCURVE",
"307 540 CURVE SMOOTH",
"168 540 OFFCURVE",
"77 480 OFFCURVE",
"77 362 CURVE SMOOTH",
"77 274 OFFCURVE",
"132 234 OFFCURVE",
"221 217 CURVE SMOOTH",
"291 204 LINE SMOOTH",
"345 194 OFFCURVE",
"360 179 OFFCURVE",
"360 154 CURVE SMOOTH",
"360 110 OFFCURVE",
"317 90 OFFCURVE",
"258 90 CURVE SMOOTH",
"190 90 OFFCURVE",
"161 109 OFFCURVE",
"162 157 CURVE",
"26 157 LINE",
"24 39 OFFCURVE",
"94 -15 OFFCURVE",
"256 -15 CURVE SMOOTH"
);
}
);
};
layerId = "754059F4-B6FF-448B-9855-BCEE341C79D6";
name = "Oct 3 17, 17:24";
paths = (
{
closed = 1;
nodes = (
"389 -15 OFFCURVE",
"496 52 OFFCURVE",
"496 168 CURVE SMOOTH",
"496 253 OFFCURVE",
"445 293 OFFCURVE",
"341 312 CURVE SMOOTH",
"271 325 LINE SMOOTH",
"229 333 OFFCURVE",
"213 350 OFFCURVE",
"213 376 CURVE SMOOTH",
"213 414 OFFCURVE",
"246 435 OFFCURVE",
"302 435 CURVE SMOOTH",
"364 435 OFFCURVE",
"385 418 OFFCURVE",
"384 373 CURVE",
"520 373 LINE",
"526 481 OFFCURVE",
"465 540 OFFCURVE",
"307 540 CURVE SMOOTH",
"168 540 OFFCURVE",
"77 480 OFFCURVE",
"77 362 CURVE SMOOTH",
"77 274 OFFCURVE",
"132 234 OFFCURVE",
"221 217 CURVE SMOOTH",
"291 204 LINE SMOOTH",
"345 194 OFFCURVE",
"360 179 OFFCURVE",
"360 154 CURVE SMOOTH",
"360 110 OFFCURVE",
"317 90 OFFCURVE",
"258 90 CURVE SMOOTH",
"190 90 OFFCURVE",
"161 109 OFFCURVE",
"162 157 CURVE",
"26 157 LINE",
"24 39 OFFCURVE",
"94 -15 OFFCURVE",
"256 -15 CURVE SMOOTH"
);
}
);
width = 561;
},
{
anchors = (
{
name = bottom;
position = "{245, 0}";
},
{
name = top;
position = "{334, 535}";
}
);
associatedMasterId = "C1DA716A-5F29-4CD0-A38F-CCADF5849A80";
background = {
anchors = (
{
name = bottom;
position = "{245, 0}";
},
{
name = top;
position = "{334, 535}";
}
);
paths = (
{
closed = 1;
nodes = (
"410 -15 OFFCURVE",
"523 42 OFFCURVE",
"523 182 CURVE SMOOTH",
"523 261 OFFCURVE",
"459 306 OFFCURVE",
"365 328 CURVE SMOOTH",
"305 342 LINE SMOOTH",
"265 351 OFFCURVE",
"253 363 OFFCURVE",
"253 383 CURVE SMOOTH",
"253 407 OFFCURVE",
"276 419 OFFCURVE",
"309 419 CURVE SMOOTH",
"350 419 OFFCURVE",
"365 402 OFFCURVE",
"365 369 CURVE",
"557 369 LINE",
"557 486 OFFCURVE",
"472 550 OFFCURVE",
"321 550 CURVE SMOOTH",
"161 550 OFFCURVE",
"60 487 OFFCURVE",
"60 361 CURVE SMOOTH",
"60 281 OFFCURVE",
"109 226 OFFCURVE",
"214 203 CURVE SMOOTH",
"282 188 LINE SMOOTH",
"321 179 OFFCURVE",
"328 166 OFFCURVE",
"328 150 CURVE SMOOTH",
"328 127 OFFCURVE",
"309 115 OFFCURVE",
"270 115 CURVE SMOOTH",
"227 115 OFFCURVE",
"211 131 OFFCURVE",
"209 165 CURVE",
"17 165 LINE",
"14 44 OFFCURVE",
"99 -15 OFFCURVE",
"254 -15 CURVE SMOOTH"
);
}
);
};
layerId = "7B4EF5A9-9A94-45B5-8843-F2E75965330F";
name = "Oct 4 17, 22:35";
paths = (
{
closed = 1;
nodes = (
"410 -15 OFFCURVE",
"523 42 OFFCURVE",
"523 182 CURVE SMOOTH",
"523 261 OFFCURVE",
"459 314 OFFCURVE",
"365 330 CURVE SMOOTH",
"302 341 LINE SMOOTH",
"265 347 OFFCURVE",
"252 359 OFFCURVE",
"253 382 CURVE SMOOTH",
"254 407 OFFCURVE",
"276 419 OFFCURVE",
"309 419 CURVE SMOOTH",
"350 419 OFFCURVE",
"366 402 OFFCURVE",
"365 369 CURVE",
"555 369 LINE",
"558 486 OFFCURVE",
"475 550 OFFCURVE",
"320 550 CURVE SMOOTH",
"160 550 OFFCURVE",
"60 487 OFFCURVE",
"60 361 CURVE SMOOTH",
"60 281 OFFCURVE",
"109 218 OFFCURVE",
"214 201 CURVE SMOOTH",
"282 190 LINE SMOOTH",
"321 184 OFFCURVE",
"328 166 OFFCURVE",
"328 150 CURVE SMOOTH",
"328 127 OFFCURVE",
"309 115 OFFCURVE",
"270 115 CURVE SMOOTH",
"227 115 OFFCURVE",
"211 131 OFFCURVE",
"209 165 CURVE",
"17 165 LINE",
"14 44 OFFCURVE",
"99 -15 OFFCURVE",
"254 -15 CURVE SMOOTH"
);
}
);
width = 577;
},
{
anchors = (
{
name = bottom;
position = "{248, 0}";
},
{
name = top;
position = "{319, 528}";
}
);
background = {
anchors = (
{
name = bottom;
position = "{244, 0}";
},
{
name = top;
position = "{314, 520}";
}
);
paths = (
{
closed = 1;
nodes = (
"381 -15 OFFCURVE",
"465 50 OFFCURVE",
"465 154 CURVE SMOOTH",
"465 234 OFFCURVE",
"418 272 OFFCURVE",
"326 294 CURVE SMOOTH",
"249 313 LINE SMOOTH",
"205 324 OFFCURVE",
"185 344 OFFCURVE",
"185 380 CURVE SMOOTH",
"185 430 OFFCURVE",
"222 459 OFFCURVE",
"293 459 CURVE SMOOTH",
"366 459 OFFCURVE",
"394 432 OFFCURVE",
"396 373 CURVE",
"493 380 LINE",
"491 481 OFFCURVE",
"428 535 OFFCURVE",
"300 535 CURVE SMOOTH",
"165 535 OFFCURVE",
"89 474 OFFCURVE",
"89 373 CURVE SMOOTH",
"89 298 OFFCURVE",
"132 255 OFFCURVE",
"218 234 CURVE SMOOTH",
"294 215 LINE SMOOTH",
"351 201 OFFCURVE",
"369 184 OFFCURVE",
"369 146 CURVE SMOOTH",
"369 92 OFFCURVE",
"327 62 OFFCURVE",
"251 62 CURVE SMOOTH",
"170 62 OFFCURVE",
"137 89 OFFCURVE",
"136 152 CURVE",
"39 145 LINE",
"39 36 OFFCURVE",
"109 -15 OFFCURVE",
"246 -15 CURVE SMOOTH"
);
}
);
};
guideLines = (
{
angle = 80;
position = "{509, 353}";
}
);
layerId = "6641C2CA-B9F9-47EE-AEEC-6BEE387D8CB9";
paths = (
{
closed = 1;
nodes = (
"367 -15 OFFCURVE",
"450 25 OFFCURVE",
"468 123 CURVE SMOOTH",
"485 218 OFFCURVE",
"439 266 OFFCURVE",
"335 297 CURVE SMOOTH",
"274 315 LINE SMOOTH",
"215 332 OFFCURVE",
"190 355 OFFCURVE",
"198 401 CURVE SMOOTH",
"206 445 OFFCURVE",
"239 464 OFFCURVE",
"308 464 CURVE SMOOTH",
"376 464 OFFCURVE",
"403 439 OFFCURVE",
"404 379 CURVE",
"503 384 LINE",
"504 485 OFFCURVE",
"440 545 OFFCURVE",
"313 545 CURVE SMOOTH",
"189 545 OFFCURVE",
"118 498 OFFCURVE",
"102 407 CURVE SMOOTH",
"85 308 OFFCURVE",
"148 262 OFFCURVE",
"239 235 CURVE SMOOTH",
"296 218 LINE SMOOTH",
"356 200 OFFCURVE",
"380 177 OFFCURVE",
"372 131 CURVE SMOOTH",
"363 82 OFFCURVE",
"318 65 OFFCURVE",
"253 65 CURVE SMOOTH",
"178 65 OFFCURVE",
"141 93 OFFCURVE",
"137 156 CURVE",
"38 150 LINE",
"39 41 OFFCURVE",
"107 -15 OFFCURVE",
"248 -15 CURVE SMOOTH"
);
}
);
width = 555;
}
);
unicode = 0073;
userData = {
RMXScaler = {
source = s;
};
};
},
